Bungee_Color-Regular.ufo
<glyph name="exclam" format="1">
  <advance width="424"/>
  <unicode hex="0021"/>
  <outline>
    <contour>
      <point x="304" y="0" type="line" smooth="yes"/>
      <point x="329" y="0"/>
      <point x="340" y="11"/>
      <point x="340" y="36" type="curve" smooth="yes"/>
      <point x="340" y="167" type="line" smooth="yes"/>
      <point x="340" y="193"/>
      <point x="329" y="203"/>
      <point x="304" y="203" type="curve" smooth="yes"/>
      <point x="120" y="203" type="line" smooth="yes"/>
      <point x="95" y="203"/>
      <point x="84" y="193"/>
      <point x="84" y="167" type="curve"/>
      <point x="84" y="36" type="line"/>
      <point x="84" y="11"/>
      <point x="95" y="0"/>
      <point x="120" y="0" type="curve" smooth="yes"/>
    </contour>
    <contour>
      <point x="289" y="262" type="line" smooth="yes"/>
      <point x="314" y="262"/>
      <point x="326" y="273"/>
      <point x="327" y="298" type="curve" smooth="yes"/>
      <point x="341" y="684" type="line" smooth="yes"/>
      <point x="342" y="709"/>
      <point x="332" y="720"/>
      <point x="307" y="720" type="curve" smooth="yes"/>
      <point x="116" y="720" type="line" smooth="yes"/>
      <point x="91" y="720"/>
      <point x="81" y="709"/>
      <point x="82" y="684" type="curve" smooth="yes"/>
      <point x="97" y="298" type="line" smooth="yes"/>
      <point x="98" y="273"/>
      <point x="109" y="262"/>
      <point x="134" y="262" type="curve" smooth="yes"/>
    </contour>
  </outline>
</glyph>
<glyph name="quotesingle" format="1">
  <advance width="356"/>
  <unicode hex="0027"/>
  <outline>
    <contour>
      <point x="250" y="345" type="line" smooth="yes"/>
      <point x="285" y="345"/>
      <point x="290" y="351"/>
      <point x="292" y="386" type="curve" smooth="yes"/>
      <point x="300" y="679" type="line" smooth="yes"/>
      <point x="301" y="714"/>
      <point x="295" y="720"/>
      <point x="261" y="720" type="curve" smooth="yes"/>
      <point x="96" y="720" type="line" smooth="yes"/>
      <point x="61" y="720"/>
      <point x="55" y="714"/>
      <point x="56" y="679" type="curve" smooth="yes"/>
      <point x="64" y="386" type="line" smooth="yes"/>
      <point x="65" y="351"/>
      <point x="71" y="345"/>
      <point x="106" y="345" type="curve" smooth="yes"/>
    </contour>
  </outline>
</glyph>
<glyph name="parenleft" format="1">
  <advance width="429"/>
  <unicode hex="0028"/>
  <outline>
    <contour>
      <point x="348" y="-80" type="line" smooth="yes"/>
      <point x="373" y="-80"/>
      <point x="384" y="-69"/>
      <point x="384" y="-44" type="curve" smooth="yes"/>
      <point x="384" y="75" type="line" smooth="yes"/>
      <point x="384" y="100"/>
      <point x="373" y="111"/>
      <point x="348" y="111" type="curve" smooth="yes"/>
      <point x="317" y="111" type="line" smooth="yes"/>
      <point x="285" y="111"/>
      <point x="276" y="126"/>
      <point x="276" y="161" type="curve"/>
      <point x="276" y="557" type="line" smooth="yes"/>
      <point x="276" y="592"/>
      <point x="285" y="607"/>
      <point x="317" y="607" type="curve" smooth="yes"/>
      <point x="348" y="607" type="line" smooth="yes"/>
      <point x="373" y="607"/>
      <point x="384" y="618"/>
      <point x="384" y="643" type="curve" smooth="yes"/>
      <point x="384" y="764" type="line" smooth="yes"/>
      <point x="384" y="789"/>
      <point x="373" y="800"/>
      <point x="348" y="800" type="curve" smooth="yes"/>
      <point x="294" y="800" type="line" smooth="yes"/>
      <point x="105" y="800"/>
      <point x="48" y="717"/>
      <point x="48" y="595" type="curve" smooth="yes"/>
      <point x="48" y="124" type="line" smooth="yes"/>
      <point x="48" y="3"/>
      <point x="105" y="-80"/>
      <point x="294" y="-80" type="curve" smooth="yes"/>
    </contour>
  </outline>
</glyph>
<glyph name="one" format="1">
  <advance width="601"/>
  <unicode hex="0031"/>
  <outline>
    <contour>
      <point x="526" y="0" type="line" smooth="yes"/>
      <point x="551" y="0"/>
      <point x="562" y="11"/>
      <point x="562" y="36" type="curve"/>
      <point x="562" y="157" type="line" smooth="yes"/>
      <point x="562" y="182"/>
      <point x="551" y="193"/>
      <point x="526" y="193" type="curve"/>
      <point x="430" y="193" type="line"/>
      <point x="430" y="684" type="line" smooth="yes"/>
      <point x="430" y="709"/>
      <point x="419" y="720"/>
      <point x="394" y="720" type="curve" smooth="yes"/>
      <point x="104" y="720" type="line" smooth="yes"/>
      <point x="79" y="720"/>
      <point x="68" y="709"/>
      <point x="68" y="684" type="curve" smooth="yes"/>
      <point x="68" y="563" type="line" smooth="yes"/>
      <point x="68" y="538"/>
      <point x="79" y="527"/>
      <point x="104" y="527" type="curve" smooth="yes"/>
      <point x="196" y="527" type="line"/>
      <point x="196" y="193" type="line"/>
      <point x="84" y="193" type="line" smooth="yes"/>
      <point x="59" y="193"/>
      <point x="48" y="182"/>
      <point x="48" y="157" type="curve"/>
      <point x="48" y="36" type="line"/>
      <point x="48" y="11"/>
      <point x="59" y="0"/>
      <point x="84" y="0" type="curve" smooth="yes"/>
    </contour>
  </outline>
</glyph>
<glyph name="X" format="1">
  <advance width="737"/>
  <unicode hex="0058"/>
  <outline>
    <contour>
      <point x="251" y="0" type="line" smooth="yes"/>
      <point x="276" y="0"/>
      <point x="287" y="11"/>
      <point x="287" y="36" type="curve" smooth="yes"/>
      <point x="287" y="230" type="line" smooth="yes"/>
      <point x="287" y="252"/>
      <point x="298" y="265"/>
      <point x="319" y="265" type="curve" smooth="yes"/>
      <point x="419" y="265" type="line" smooth="yes"/>
      <point x="440" y="265"/>
      <point x="451" y="252"/>
      <point x="451" y="230" type="curve" smooth="yes"/>
      <point x="451" y="36" type="line" smooth="yes"/>
      <point x="451" y="11"/>
      <point x="462" y="0"/>
      <point x="487" y="0" type="curve" smooth="yes"/>
      <point x="641" y="0" type="line" smooth="yes"/>
      <point x="666" y="0"/>
      <point x="677" y="11"/>
      <point x="677" y="36" type="curve" smooth="yes"/>
      <point x="677" y="317" type="line" smooth="yes"/>
      <point x="677" y="382"/>
      <point x="645" y="430"/>
      <point x="591" y="446" type="curve"/>
      <point x="656" y="685" type="line" smooth="yes"/>
      <point x="662" y="708"/>
      <point x="654" y="720"/>
      <point x="629" y="720" type="curve" smooth="yes"/>
      <point x="477" y="720" type="line" smooth="yes"/>
      <point x="451" y="720"/>
      <point x="440" y="710"/>
      <point x="434" y="685" type="curve" smooth="yes"/>
      <point x="386" y="454" type="line"/>
      <point x="353" y="454" type="line"/>
      <point x="305" y="685" type="line" smooth="yes"/>
      <point x="299" y="710"/>
      <point x="287" y="720"/>
      <point x="261" y="720" type="curve" smooth="yes"/>
      <point x="110" y="720" type="line" smooth="yes"/>
      <point x="86" y="720"/>
      <point x="78" y="708"/>
      <point x="84" y="685" type="curve" smooth="yes"/>
      <point x="149" y="446" type="line"/>
      <point x="93" y="431"/>
      <point x="60" y="383"/>
      <point x="60" y="317" type="curve" smooth="yes"/>
      <point x="60" y="36" type="line"/>
      <point x="60" y="11"/>
      <point x="71" y="0"/>
      <point x="96" y="0" type="curve" smooth="yes"/>
    </contour>
    <contour>
      <point x="368.0" y="747.0" type="move" name="top"/>
    </contour>
    <contour>
      <point x="368.0" y="0.0" type="move" name="bottom"/>
    </contour>
  </outline>
</glyph>
<glyph name="cent" format="1">
  <advance width="628"/>
  <unicode hex="00A2"/>
  <outline>
    <contour>
      <point x="548" y="40" type="line" smooth="yes"/>
      <point x="573" y="40"/>
      <point x="584" y="51"/>
      <point x="584" y="76" type="curve" smooth="yes"/>
      <point x="584" y="195" type="line" smooth="yes"/>
      <point x="584" y="220"/>
      <point x="573" y="231"/>
      <point x="548" y="231" type="curve" smooth="yes"/>
      <point x="347" y="231" type="line" smooth="yes"/>
      <point x="295" y="231"/>
      <point x="286" y="251"/>
      <point x="286" y="279" type="curve" smooth="yes"/>
      <point x="286" y="437" type="line" smooth="yes"/>
      <point x="286" y="463"/>
      <point x="295" y="487"/>
      <point x="347" y="487" type="curve" smooth="yes"/>
      <point x="548" y="487" type="line" smooth="yes"/>
      <point x="573" y="487"/>
      <point x="584" y="498"/>
      <point x="584" y="523" type="curve" smooth="yes"/>
      <point x="584" y="644" type="line" smooth="yes"/>
      <point x="584" y="669"/>
      <point x="573" y="680"/>
      <point x="548" y="680" type="curve" smooth="yes"/>
      <point x="304" y="680" type="line" smooth="yes"/>
      <point x="115" y="680"/>
      <point x="58" y="597"/>
      <point x="58" y="475" type="curve" smooth="yes"/>
      <point x="58" y="244" type="line" smooth="yes"/>
      <point x="58" y="123"/>
      <point x="115" y="40"/>
      <point x="304" y="40" type="curve" smooth="yes"/>
    </contour>
    <contour>
      <point x="254" y="123" type="line"/>
      <point x="254" y="-14" type="line" smooth="yes"/>
      <point x="254" y="-39"/>
      <point x="265" y="-50"/>
      <point x="290" y="-50" type="curve" smooth="yes"/>
      <point x="435" y="-50" type="line" smooth="yes"/>
      <point x="460" y="-50"/>
      <point x="471" y="-39"/>
      <point x="471" y="-14" type="curve" smooth="yes"/>
      <point x="471" y="123" type="line"/>
    </contour>
    <contour>
      <point x="471" y="582" type="line"/>
      <point x="471" y="734" type="line" smooth="yes"/>
      <point x="471" y="759"/>
      <point x="460" y="770"/>
      <point x="435" y="770" type="curve" smooth="yes"/>
      <point x="290" y="770" type="line" smooth="yes"/>
      <point x="265" y="770"/>
      <point x="254" y="759"/>
      <point x="254" y="734" type="curve" smooth="yes"/>
      <point x="254" y="582" type="line"/>
    </contour>
  </outline>
</glyph>
<glyph name="Hbar" format="1">
  <advance width="779"/>
  <unicode hex="0126"/>
  <outline>
    <contour>
      <point x="267" y="0" type="line" smooth="yes"/>
      <point x="292" y="0"/>
      <point x="303" y="11"/>
      <point x="303" y="36" type="curve" smooth="yes"/>
      <point x="303" y="148" type="line"/>
      <point x="476" y="148" type="line"/>
      <point x="476" y="36" type="line" smooth="yes"/>
      <point x="476" y="11"/>
      <point x="487" y="0"/>
      <point x="512" y="0" type="curve" smooth="yes"/>
      <point x="664" y="0" type="line" smooth="yes"/>
      <point x="689" y="0"/>
      <point x="700" y="11"/>
      <point x="700" y="36" type="curve" smooth="yes"/>
      <point x="700" y="684" type="line" smooth="yes"/>
      <point x="700" y="709"/>
      <point x="689" y="720"/>
      <point x="664" y="720" type="curve" smooth="yes"/>
      <point x="512" y="720" type="line" smooth="yes"/>
      <point x="487" y="720"/>
      <point x="476" y="709"/>
      <point x="476" y="684" type="curve" smooth="yes"/>
      <point x="476" y="347" type="line"/>
      <point x="303" y="347" type="line"/>
      <point x="303" y="684" type="line" smooth="yes"/>
      <point x="303" y="709"/>
      <point x="292" y="720"/>
      <point x="267" y="720" type="curve" smooth="yes"/>
      <point x="115" y="720" type="line" smooth="yes"/>
      <point x="90" y="720"/>
      <point x="79" y="709"/>
      <point x="79" y="684" type="curve" smooth="yes"/>
      <point x="79" y="36" type="line" smooth="yes"/>
      <point x="79" y="11"/>
      <point x="90" y="0"/>
      <point x="115" y="0" type="curve" smooth="yes"/>
    </contour>
    <contour>
      <point x="66" y="425" type="curve"/>
      <point x="713" y="425" type="line" smooth="yes"/>
      <point x="738" y="425"/>
      <point x="749" y="435"/>
      <point x="749" y="461" type="curve" smooth="yes"/>
      <point x="749" y="558" type="line" smooth="yes"/>
      <point x="749" y="584"/>
      <point x="738" y="594"/>
      <point x="713" y="594" type="curve" smooth="yes"/>
      <point x="66" y="594" type="line" smooth="yes"/>
      <point x="41" y="594"/>
      <point x="30" y="583"/>
      <point x="30" y="558" type="curve" smooth="yes"/>
      <point x="30" y="461" type="line" smooth="yes"/>
      <point x="30" y="435"/>
      <point x="41" y="425"/>
    </contour>
  </outline>
</glyph>
<glyph name="ring" format="1">
  <advance width="500"/>
  <unicode hex="02DA"/>
  <outline>
    <contour>
      <point x="467" y="995" type="line" smooth="yes"/>
      <point x="467" y="1080"/>
      <point x="424" y="1138"/>
      <point x="250" y="1138" type="curve" smooth="yes"/>
      <point x="76" y="1138"/>
      <point x="33" y="1080"/>
      <point x="33" y="995" type="curve" smooth="yes"/>
      <point x="33" y="897" type="line" smooth="yes"/>
      <point x="33" y="812"/>
      <point x="76" y="754"/>
      <point x="250" y="754" type="curve" smooth="yes"/>
      <point x="424" y="754"/>
      <point x="467" y="812"/>
      <point x="467" y="897" type="curve" smooth="yes"/>
    </contour>
    <contour>
      <point x="310" y="930" type="line" smooth="yes"/>
      <point x="310" y="901"/>
      <point x="301" y="887"/>
      <point x="251" y="887" type="curve" smooth="yes"/>
      <point x="202" y="887"/>
      <point x="194" y="901"/>
      <point x="194" y="930" type="curve" smooth="yes"/>
      <point x="194" y="965" type="line" smooth="yes"/>
      <point x="194" y="991"/>
      <point x="202" y="1005"/>
      <point x="251" y="1005" type="curve" smooth="yes"/>
      <point x="301" y="1005"/>
      <point x="310" y="991"/>
      <point x="310" y="965" type="curve" smooth="yes"/>
    </contour>
    <contour>
      <point x="250.0" y="747.0" type="move" name="_top"/>
    </contour>
    <contour>
      <point x="250.0" y="0.0" type="move" name="_bottom"/>
    </contour>
  </outline>
</glyph>
<glyph name="hungarumlaut" format="1">
  <advance width="500"/>
  <unicode hex="02DD"/>
  <outline>
    <contour>
      <point x="-5" y="794" type="line" smooth="yes"/>
      <point x="-11" y="772"/>
      <point x="5" y="760"/>
      <point x="28" y="760" type="curve" smooth="yes"/>
      <point x="134" y="760" type="line" smooth="yes"/>
      <point x="159" y="760"/>
      <point x="164" y="772"/>
      <point x="170" y="796" type="curve" smooth="yes"/>
      <point x="223" y="1003" type="line" smooth="yes"/>
      <point x="229" y="1025"/>
      <point x="213" y="1037"/>
      <point x="190" y="1037" type="curve" smooth="yes"/>
      <point x="84" y="1037" type="line" smooth="yes"/>
      <point x="59" y="1037"/>
      <point x="54" y="1025"/>
      <point x="48" y="1001" type="curve" smooth="yes"/>
    </contour>
    <contour>
      <point x="255" y="794" type="line" smooth="yes"/>
      <point x="249" y="772"/>
      <point x="265" y="760"/>
      <point x="288" y="760" type="curve" smooth="yes"/>
      <point x="394" y="760" type="line" smooth="yes"/>
      <point x="419" y="760"/>
      <point x="424" y="772"/>
      <point x="430" y="796" type="curve" smooth="yes"/>
      <point x="483" y="1003" type="line" smooth="yes"/>
      <point x="489" y="1025"/>
      <point x="473" y="1037"/>
      <point x="450" y="1037" type="curve" smooth="yes"/>
      <point x="344" y="1037" type="line" smooth="yes"/>
      <point x="319" y="1037"/>
      <point x="314" y="1025"/>
      <point x="308" y="1001" type="curve" smooth="yes"/>
    </contour>
  </outline>
</glyph>
<glyph name="endash" format="1">
  <advance width="734"/>
  <unicode hex="2013"/>
  <outline>
    <contour>
      <point x="106" y="257" type="curve"/>
      <point x="628" y="257" type="line" smooth="yes"/>
      <point x="653" y="257"/>
      <point x="664" y="267"/>
      <point x="664" y="293" type="curve" smooth="yes"/>
      <point x="664" y="427" type="line" smooth="yes"/>
      <point x="664" y="453"/>
      <point x="653" y="463"/>
      <point x="628" y="463" type="curve" smooth="yes"/>
      <point x="106" y="463" type="line" smooth="yes"/>
      <point x="81" y="463"/>
      <point x="70" y="452"/>
      <point x="70" y="427" type="curve" smooth="yes"/>
      <point x="70" y="293" type="line" smooth="yes"/>
      <point x="70" y="267"/>
      <point x="81" y="257"/>
    </contour>
  </outline>
</glyph>
<glyph name="emdash" format="1">
  <advance width="1134"/>
  <unicode hex="2014"/>
  <outline>
    <contour>
      <point x="106" y="257" type="curve"/>
      <point x="1028" y="257" type="line" smooth="yes"/>
      <point x="1053" y="257"/>
      <point x="1064" y="267"/>
      <point x="1064" y="293" type="curve" smooth="yes"/>
      <point x="1064" y="427" type="line" smooth="yes"/>
      <point x="1064" y="453"/>
      <point x="1053" y="463"/>
      <point x="1028" y="463" type="curve" smooth="yes"/>
      <point x="106" y="463" type="line" smooth="yes"/>
      <point x="81" y="463"/>
      <point x="70" y="452"/>
      <point x="70" y="427" type="curve" smooth="yes"/>
      <point x="70" y="293" type="line" smooth="yes"/>
      <point x="70" y="267"/>
      <point x="81" y="257"/>
    </contour>
  </outline>
</glyph>
<glyph name="arrowdownright" format="1">
  <advance width="1000"/>
  <unicode hex="2198"/>
  <outline>
    <contour>
      <point x="248" y="471" type="curve" smooth="yes"/>
      <point x="382" y="353" type="line"/>
      <point x="261" y="231" type="line" smooth="yes"/>
      <point x="245" y="215"/>
      <point x="259" y="184"/>
      <point x="285" y="178" type="curve" smooth="yes"/>
      <point x="695" y="99" type="line" smooth="yes"/>
      <point x="717" y="94"/>
      <point x="735" y="94"/>
      <point x="750" y="109" type="curve"/>
      <point x="766" y="125"/>
      <point x="766" y="143"/>
      <point x="761" y="165" type="curve" smooth="yes"/>
      <point x="682" y="575" type="line" smooth="yes"/>
      <point x="676" y="602"/>
      <point x="645" y="615"/>
      <point x="629" y="599" type="curve" smooth="yes"/>
      <point x="507" y="478" type="line"/>
      <point x="389" y="612" type="line" smooth="yes"/>
      <point x="374" y="629"/>
      <point x="358" y="627"/>
      <point x="344" y="611" type="curve" smooth="yes"/>
      <point x="249" y="518" type="line" smooth="yes"/>
      <point x="233" y="502"/>
      <point x="231" y="487"/>
    </contour>
  </outline>
</glyph>
<glyph name="uni25D7" format="1">
  <advance width="546"/>
  <unicode hex="25D7"/>
  <outline>
    <contour>
      <point x="6" y="-180" type="curve" smooth="yes"/>
      <point x="-40" y="-180" type="line"/>
      <point x="-40" y="900" type="line"/>
      <point x="6" y="900" type="line" smooth="yes"/>
      <point x="323" y="900"/>
      <point x="546" y="677"/>
      <point x="546" y="360" type="curve" smooth="yes"/>
      <point x="546" y="43"/>
      <point x="323" y="-180"/>
    </contour>
  </outline>
</glyph>
<glyph name="uni27A1" format="1">
  <advance width="650"/>
  <unicode hex="27A1"/>
  <outline>
    <contour>
      <point x="7" y="900" type="line"/>
      <point x="7" y="1041" type="line" smooth="yes"/>
      <point x="7" y="1080"/>
      <point x="37" y="1104"/>
      <point x="74" y="1104" type="curve" smooth="yes"/>
      <point x="104" y="1104"/>
      <point x="139" y="1088"/>
      <point x="167" y="1051" type="curve" smooth="yes"/>
      <point x="603" y="471" type="line" smooth="yes"/>
      <point x="629" y="437"/>
      <point x="641" y="399"/>
      <point x="641" y="361" type="curve" smooth="yes"/>
      <point x="641" y="323"/>
      <point x="629" y="285"/>
      <point x="603" y="251" type="curve" smooth="yes"/>
      <point x="167" y="-329" type="line" smooth="yes"/>
      <point x="140" y="-366"/>
      <point x="104" y="-382"/>
      <point x="74" y="-382" type="curve" smooth="yes"/>
      <point x="37" y="-382"/>
      <point x="7" y="-358"/>
      <point x="7" y="-319" type="curve" smooth="yes"/>
      <point x="7" y="-180" type="line"/>
      <point x="-40" y="-180" type="line" smooth="yes"/>
      <point x="-40" y="900" type="line"/>
    </contour>
  </outline>
</glyph>
<glyph name="uni2B1B" format="1">
  <advance width="1280.0"/>
  <unicode hex="2B1B"/>
  <outline>
    <contour>
      <point x="1144" y="-180" type="curve" smooth="yes"/>
      <point x="136" y="-180" type="line" smooth="yes"/>
      <point x="111" y="-180"/>
      <point x="100" y="-169"/>
      <point x="100" y="-144" type="curve" smooth="yes"/>
      <point x="100" y="864" type="line" smooth="yes"/>
      <point x="100" y="889"/>
      <point x="111" y="900"/>
      <point x="136" y="900" type="curve" smooth="yes"/>
      <point x="1144" y="900" type="line" smooth="yes"/>
      <point x="1169" y="900"/>
      <point x="1180" y="889"/>
      <point x="1180" y="864" type="curve" smooth="yes"/>
      <point x="1180" y="-144" type="line" smooth="yes"/>
      <point x="1180" y="-169"/>
      <point x="1169" y="-180"/>
    </contour>
  </outline>
</glyph>
<glyph name="percent.v" format="1">
  <advance width="1000"/>
  <unicode hex="FF05"/>
  <outline>
    <contour>
      <point x="206" y="36" type="line" smooth="yes"/>
      <point x="192" y="15"/>
      <point x="202" y="0"/>
      <point x="227" y="0" type="curve" smooth="yes"/>
      <point x="312" y="0" type="line" smooth="yes"/>
      <point x="337" y="0"/>
      <point x="349" y="15"/>
      <point x="363" y="36" type="curve" smooth="yes"/>
      <point x="795" y="684" type="line" smooth="yes"/>
      <point x="809" y="705"/>
      <point x="799" y="720"/>
      <point x="774" y="720" type="curve" smooth="yes"/>
      <point x="689" y="720" type="line" smooth="yes"/>
      <point x="664" y="720"/>
      <point x="652" y="705"/>
      <point x="638" y="684" type="curve" smooth="yes"/>
    </contour>
    <contour>
      <point x="514" y="466" type="curve"/>
      <point x="514" y="606" type="line" smooth="yes"/>
      <point x="514" y="677"/>
      <point x="482" y="725"/>
      <point x="347" y="725" type="curve" smooth="yes"/>
      <point x="212" y="725"/>
      <point x="178" y="677"/>
      <point x="178" y="606" type="curve" smooth="yes"/>
      <point x="178" y="466" type="line" smooth="yes"/>
      <point x="178" y="395"/>
      <point x="212" y="347"/>
      <point x="347" y="347" type="curve" smooth="yes"/>
      <point x="482" y="347"/>
      <point x="514" y="395"/>
    </contour>
    <contour>
      <point x="323" y="497" type="curve"/>
      <point x="323" y="575" type="line" smooth="yes"/>
      <point x="323" y="583"/>
      <point x="326" y="592"/>
      <point x="347" y="592" type="curve" smooth="yes"/>
      <point x="367" y="592"/>
      <point x="370" y="583"/>
      <point x="370" y="575" type="curve" smooth="yes"/>
      <point x="370" y="497" type="line" smooth="yes"/>
      <point x="370" y="487"/>
      <point x="367" y="479"/>
      <point x="347" y="479" type="curve" smooth="yes"/>
      <point x="327" y="479"/>
      <point x="323" y="487"/>
    </contour>
    <contour>
      <point x="821" y="114" type="curve"/>
      <point x="821" y="254" type="line" smooth="yes"/>
      <point x="821" y="325"/>
      <point x="789" y="373"/>
      <point x="654" y="373" type="curve" smooth="yes"/>
      <point x="519" y="373"/>
      <point x="485" y="325"/>
      <point x="485" y="254" type="curve" smooth="yes"/>
      <point x="485" y="114" type="line" smooth="yes"/>
      <point x="485" y="43"/>
      <point x="519" y="-5"/>
      <point x="654" y="-5" type="curve" smooth="yes"/>
      <point x="803" y="-5"/>
      <point x="821" y="43"/>
    </contour>
    <contour>
      <point x="630" y="145" type="curve"/>
      <point x="630" y="223" type="line" smooth="yes"/>
      <point x="630" y="231"/>
      <point x="633" y="240"/>
      <point x="654" y="240" type="curve" smooth="yes"/>
      <point x="674" y="240"/>
      <point x="677" y="231"/>
      <point x="677" y="223" type="curve" smooth="yes"/>
      <point x="677" y="145" type="line" smooth="yes"/>
      <point x="677" y="135"/>
      <point x="674" y="127"/>
      <point x="654" y="127" type="curve" smooth="yes"/>
      <point x="634" y="127"/>
      <point x="630" y="135"/>
    </contour>
  </outline>
</glyph>
<glyph name="W.v" format="1">
  <advance width="1000"/>
  <unicode hex="FF37"/>
  <outline>
    <contour>
      <point x="653" y="720" type="line" smooth="yes"/>
      <point x="628" y="720"/>
      <point x="622" y="709"/>
      <point x="622" y="684" type="curve" smooth="yes"/>
      <point x="619" y="372" type="line"/>
      <point x="619" y="341" type="line"/>
      <point x="579" y="459" type="line"/>
      <point x="566" y="481"/>
      <point x="552" y="490"/>
      <point x="526" y="490" type="curve" smooth="yes"/>
      <point x="495" y="490" type="line" smooth="yes"/>
      <point x="469" y="490"/>
      <point x="455" y="481"/>
      <point x="442" y="459" type="curve"/>
      <point x="402" y="341" type="line"/>
      <point x="402" y="372" type="line"/>
      <point x="398" y="684" type="line" smooth="yes"/>
      <point x="398" y="709"/>
      <point x="387" y="720"/>
      <point x="362" y="720" type="curve" smooth="yes"/>
      <point x="214" y="720" type="line" smooth="yes"/>
      <point x="189" y="720"/>
      <point x="178" y="709"/>
      <point x="178" y="684" type="curve" smooth="yes"/>
      <point x="182" y="318" type="line"/>
      <point x="182" y="256"/>
      <point x="182" y="242"/>
      <point x="200" y="174" type="curve" smooth="yes"/>
      <point x="236" y="36" type="line" smooth="yes"/>
      <point x="242.244572865" y="12.0624706844"/>
      <point x="257.0" y="0"/>
      <point x="282" y="0" type="curve" smooth="yes"/>
      <point x="390" y="0" type="line" smooth="yes"/>
      <point x="421" y="0"/>
      <point x="434" y="10"/>
      <point x="440" y="30" type="curve" smooth="yes"/>
      <point x="493" y="206" type="line"/>
      <point x="517" y="206" type="line"/>
      <point x="570" y="30" type="line" smooth="yes"/>
      <point x="576" y="9"/>
      <point x="589" y="0"/>
      <point x="620" y="0" type="curve" smooth="yes"/>
      <point x="720" y="0" type="line" smooth="yes"/>
      <point x="745" y="0"/>
      <point x="758" y="12"/>
      <point x="764" y="36" type="curve" smooth="yes"/>
      <point x="800" y="172" type="line" smooth="yes"/>
      <point x="818" y="240"/>
      <point x="818" y="255"/>
      <point x="818" y="316" type="curve"/>
      <point x="822" y="684" type="line" smooth="yes"/>
      <point x="822" y="709"/>
      <point x="812" y="720"/>
      <point x="786" y="720" type="curve" smooth="yes"/>
    </contour>
    <contour>
      <point x="505.0" y="747.0" type="move" name="top"/>
    </contour>
    <contour>
      <point x="505.0" y="0.0" type="move" name="bottom"/>
    </contour>
  </outline>
</glyph>
<glyph name="AE.salt_v.alt000" format="1">
  <advance width="1000"/>
  <outline>
    <contour>
      <point x="341" y="-32" type="line"/>
      <point x="341" y="-73" type="line" smooth="yes"/>
      <point x="341" y="-105"/>
      <point x="355" y="-119"/>
      <point x="387" y="-119" type="curve" smooth="yes"/>
      <point x="656" y="-119" type="line" smooth="yes"/>
      <point x="670" y="-119"/>
      <point x="681" y="-115"/>
      <point x="687" y="-109" type="curve"/>
      <point x="817" y="-1" type="line" smooth="yes"/>
      <point x="826" y="7"/>
      <point x="831" y="18"/>
      <point x="831" y="36" type="curve" smooth="yes"/>
      <point x="831" y="153" type="line" smooth="yes"/>
      <point x="831" y="185"/>
      <point x="817" y="199"/>
      <point x="785" y="199" type="curve" smooth="yes"/>
      <point x="727" y="199" type="line"/>
      <point x="816" y="274" type="line" smooth="yes"/>
      <point x="825" y="282"/>
      <point x="830" y="293"/>
      <point x="830" y="311" type="curve" smooth="yes"/>
      <point x="830" y="418" type="line" smooth="yes"/>
      <point x="830" y="451"/>
      <point x="816" y="464"/>
      <point x="784" y="464" type="curve" smooth="yes"/>
      <point x="738" y="464" type="line"/>
      <point x="817" y="530" type="line" smooth="yes"/>
      <point x="826" y="538"/>
      <point x="831" y="549"/>
      <point x="831" y="567" type="curve" smooth="yes"/>
      <point x="831" y="684" type="line" smooth="yes"/>
      <point x="831" y="716"/>
      <point x="817" y="730"/>
      <point x="785" y="730" type="curve" smooth="yes"/>
      <point x="429" y="730" type="line" smooth="yes"/>
      <point x="334" y="730"/>
      <point x="271" y="710"/>
      <point x="231" y="677" type="curve" smooth="yes"/>
      <point x="102" y="568" type="line" smooth="yes"/>
      <point x="56" y="530"/>
      <point x="40" y="474"/>
      <point x="40" y="407" type="curve" smooth="yes"/>
      <point x="40" y="-73" type="line" smooth="yes"/>
      <point x="40" y="-105"/>
      <point x="54" y="-119"/>
      <point x="86" y="-119" type="curve" smooth="yes"/>
      <point x="217" y="-119" type="line" smooth="yes"/>
      <point x="231" y="-119"/>
      <point x="242" y="-115"/>
      <point x="248" y="-109" type="curve"/>
    </contour>
  </outline>
</glyph>
<glyph name="AE.salt_v.alt001" format="1">
  <advance width="1000"/>
  <outline>
    <contour>
      <point x="346" y="0" type="line" smooth="yes"/>
      <point x="371" y="0"/>
      <point x="382" y="11"/>
      <point x="382" y="36" type="curve" smooth="yes"/>
      <point x="382" y="489" type="line" smooth="yes"/>
      <point x="382" y="516"/>
      <point x="391" y="536"/>
      <point x="431" y="536" type="curve" smooth="yes"/>
      <point x="480" y="536" type="line"/>
      <point x="480" y="36" type="line" smooth="yes"/>
      <point x="480" y="11"/>
      <point x="491" y="0"/>
      <point x="516" y="0" type="curve" smooth="yes"/>
      <point x="785" y="0" type="line" smooth="yes"/>
      <point x="810" y="0"/>
      <point x="821" y="11"/>
      <point x="821" y="36" type="curve" smooth="yes"/>
      <point x="821" y="153" type="line" smooth="yes"/>
      <point x="821" y="178"/>
      <point x="810" y="189"/>
      <point x="785" y="189" type="curve" smooth="yes"/>
      <point x="682" y="189" type="line"/>
      <point x="682" y="275" type="line"/>
      <point x="784" y="275" type="line" smooth="yes"/>
      <point x="809" y="275"/>
      <point x="820" y="286"/>
      <point x="820" y="311" type="curve" smooth="yes"/>
      <point x="820" y="418" type="line" smooth="yes"/>
      <point x="820" y="444"/>
      <point x="809" y="454"/>
      <point x="784" y="454" type="curve" smooth="yes"/>
      <point x="682" y="454" type="line"/>
      <point x="682" y="531" type="line"/>
      <point x="785" y="531" type="line" smooth="yes"/>
      <point x="810" y="531"/>
      <point x="821" y="542"/>
      <point x="821" y="567" type="curve" smooth="yes"/>
      <point x="821" y="684" type="line" smooth="yes"/>
      <point x="821" y="709"/>
      <point x="810" y="720"/>
      <point x="785" y="720" type="curve" smooth="yes"/>
      <point x="429" y="720" type="line" smooth="yes"/>
      <point x="234" y="720"/>
      <point x="179" y="637"/>
      <point x="179" y="516" type="curve" smooth="yes"/>
      <point x="179" y="36" type="line" smooth="yes"/>
      <point x="179" y="11"/>
      <point x="190" y="0"/>
      <point x="215" y="0" type="curve" smooth="yes"/>
    </contour>
    <contour>
      <point x="498" y="185" type="line"/>
      <point x="498" y="368" type="line"/>
      <point x="344" y="368" type="line"/>
      <point x="344" y="185" type="line"/>
    </contour>
  </outline>
</glyph>
<glyph name="AE.v.alt001" format="1">
  <advance width="1000"/>
  <outline>
    <contour>
      <point x="524" y="720" type="line"/>
      <point x="355" y="720" type="line" smooth="yes"/>
      <point x="321" y="720"/>
      <point x="304" y="710"/>
      <point x="293" y="679" type="curve" smooth="yes"/>
      <point x="198" y="440" type="line" smooth="yes"/>
      <point x="179" y="390"/>
      <point x="169" y="349"/>
      <point x="169" y="290" type="curve" smooth="yes"/>
      <point x="169" y="36" type="line" smooth="yes"/>
      <point x="169" y="11"/>
      <point x="180" y="0"/>
      <point x="205" y="0" type="curve" smooth="yes"/>
      <point x="336" y="0" type="line" smooth="yes"/>
      <point x="361" y="0"/>
      <point x="372" y="11"/>
      <point x="372" y="36" type="curve" smooth="yes"/>
      <point x="372" y="328" type="line"/>
      <point x="442" y="514" type="line" smooth="yes"/>
      <point x="447" y="527"/>
      <point x="450" y="531"/>
      <point x="461" y="531" type="curve" smooth="yes"/>
      <point x="524" y="531" type="line"/>
    </contour>
    <contour>
      <point x="481" y="358" type="line"/>
      <point x="337" y="358" type="line"/>
      <point x="337" y="176" type="line"/>
      <point x="481" y="176" type="line"/>
    </contour>
    <contour>
      <point x="775" y="0" type="line" smooth="yes"/>
      <point x="800" y="0"/>
      <point x="811" y="11"/>
      <point x="811" y="36" type="curve" smooth="yes"/>
      <point x="811" y="153" type="line" smooth="yes"/>
      <point x="811" y="178"/>
      <point x="800" y="189"/>
      <point x="775" y="189" type="curve" smooth="yes"/>
      <point x="672" y="189" type="line"/>
      <point x="672" y="275" type="line"/>
      <point x="774" y="275" type="line" smooth="yes"/>
      <point x="799" y="275"/>
      <point x="810" y="286"/>
      <point x="810" y="311" type="curve" smooth="yes"/>
      <point x="810" y="418" type="line" smooth="yes"/>
      <point x="810" y="444"/>
      <point x="799" y="454"/>
      <point x="774" y="454" type="curve" smooth="yes"/>
      <point x="672" y="454" type="line"/>
      <point x="672" y="531" type="line"/>
      <point x="775" y="531" type="line" smooth="yes"/>
      <point x="800" y="531"/>
      <point x="811" y="542"/>
      <point x="811" y="567" type="curve" smooth="yes"/>
      <point x="811" y="684" type="line" smooth="yes"/>
      <point x="811" y="709"/>
      <point x="800" y="720"/>
      <point x="775" y="720" type="curve" smooth="yes"/>
      <point x="514" y="720" type="line" smooth="yes"/>
      <point x="489" y="720"/>
      <point x="470" y="709"/>
      <point x="470" y="684" type="curve"/>
      <point x="470" y="36" type="line"/>
      <point x="470" y="11"/>
      <point x="481" y="0"/>
      <point x="506" y="0" type="curve" smooth="yes"/>
    </contour>
  </outline>
</glyph>
<glyph name="A.salt_v.alt000" format="1">
  <advance width="1000"/>
  <outline>
    <contour>
      <point x="439" y="389" type="curve" smooth="yes"/>
      <point x="439" y="379" type="line"/>
      <point x="429" y="379" type="line"/>
      <point x="429" y="414" type="line"/>
      <point x="437" y="408"/>
      <point x="439" y="399"/>
    </contour>
    <contour>
      <point x="107" y="-119" type="curve" smooth="yes"/>
      <point x="254" y="-119" type="line" smooth="yes"/>
      <point x="268" y="-119"/>
      <point x="278" y="-115"/>
      <point x="285" y="-109" type="curve" smooth="yes"/>
      <point x="414" y="-1" type="line"/>
      <point x="424" y="7"/>
      <point x="429" y="19"/>
      <point x="429" y="37" type="curve" smooth="yes"/>
      <point x="429" y="67" type="line"/>
      <point x="439" y="67" type="line"/>
      <point x="439" y="-72" type="line" smooth="yes"/>
      <point x="439" y="-104"/>
      <point x="453" y="-119"/>
      <point x="485" y="-119" type="curve" smooth="yes"/>
      <point x="635" y="-119" type="line" smooth="yes"/>
      <point x="649" y="-119"/>
      <point x="659" y="-115"/>
      <point x="666" y="-109" type="curve" smooth="yes"/>
      <point x="795" y="-1" type="line"/>
      <point x="805" y="7"/>
      <point x="810" y="19"/>
      <point x="810" y="37" type="curve" smooth="yes"/>
      <point x="810" y="532" type="line" smooth="yes"/>
      <point x="810" y="657"/>
      <point x="760" y="746"/>
      <point x="499" y="746" type="curve" smooth="yes"/>
      <point x="370" y="746"/>
      <point x="294" y="724"/>
      <point x="249" y="686" type="curve" smooth="yes"/>
      <point x="120" y="578" type="line" smooth="yes"/>
      <point x="74" y="540"/>
      <point x="61" y="486"/>
      <point x="61" y="423" type="curve" smooth="yes"/>
      <point x="61" y="-72" type="line" smooth="yes"/>
      <point x="61" y="-104"/>
      <point x="75" y="-119"/>
    </contour>
  </outline>
</glyph>
<glyph name="A.v.alt000" format="1">
  <advance width="1000"/>
  <outline>
    <contour>
      <point x="414" y="-1" type="line" smooth="yes"/>
      <point x="423" y="7"/>
      <point x="428" y="18"/>
      <point x="428" y="36" type="curve" smooth="yes"/>
      <point x="428" y="57" type="line"/>
      <point x="436" y="57" type="line"/>
      <point x="436" y="-73" type="line" smooth="yes"/>
      <point x="436" y="-104"/>
      <point x="453" y="-119"/>
      <point x="485" y="-119" type="curve" smooth="yes"/>
      <point x="636" y="-119" type="line" smooth="yes"/>
      <point x="650" y="-119"/>
      <point x="661" y="-115"/>
      <point x="667" y="-109" type="curve"/>
      <point x="797" y="-1" type="line" smooth="yes"/>
      <point x="806" y="7"/>
      <point x="811" y="18"/>
      <point x="811" y="36" type="curve" smooth="yes"/>
      <point x="811" y="300" type="line" smooth="yes"/>
      <point x="811" y="371"/>
      <point x="801" y="386"/>
      <point x="771" y="464" type="curve" smooth="yes"/>
      <point x="684" y="691" type="line" smooth="yes"/>
      <point x="674" y="720"/>
      <point x="656" y="730"/>
      <point x="625" y="730" type="curve" smooth="yes"/>
      <point x="366" y="730" type="line" smooth="yes"/>
      <point x="348" y="730"/>
      <point x="334" y="726"/>
      <point x="324" y="718" type="curve" smooth="yes"/>
      <point x="194" y="609" type="line" smooth="yes"/>
      <point x="186" y="603"/>
      <point x="180" y="593"/>
      <point x="176" y="581" type="curve" smooth="yes"/>
      <point x="100" y="354" type="line" smooth="yes"/>
      <point x="70" y="277"/>
      <point x="60" y="262"/>
      <point x="60" y="191" type="curve" smooth="yes"/>
      <point x="60" y="-73" type="line" smooth="yes"/>
      <point x="60" y="-105"/>
      <point x="73" y="-119"/>
      <point x="106" y="-119" type="curve" smooth="yes"/>
      <point x="253" y="-119" type="line" smooth="yes"/>
      <point x="267" y="-119"/>
      <point x="278" y="-115"/>
      <point x="284" y="-109" type="curve"/>
    </contour>
  </outline>
</glyph>
<glyph name="Aring.salt.alt002" format="1">
  <advance width="736"/>
  <outline>
    <contour>
      <point x="225" y="805" type="line" smooth="yes"/>
      <point x="225" y="865"/>
      <point x="247" y="906"/>
      <point x="366" y="906" type="curve" smooth="yes"/>
      <point x="485" y="906"/>
      <point x="509" y="864"/>
      <point x="509" y="805" type="curve" smooth="yes"/>
      <point x="509" y="760" type="line" smooth="yes"/>
      <point x="509" y="700"/>
      <point x="485" y="660"/>
      <point x="366" y="660" type="curve" smooth="yes"/>
      <point x="247" y="660"/>
      <point x="225" y="700"/>
      <point x="225" y="760" type="curve" smooth="yes"/>
    </contour>
    <contour>
      <point x="235" y="805" type="curve" smooth="yes"/>
      <point x="235" y="760" type="line" smooth="yes"/>
      <point x="235" y="704"/>
      <point x="259" y="670"/>
      <point x="366" y="670" type="curve" smooth="yes"/>
      <point x="473" y="670"/>
      <point x="499" y="704"/>
      <point x="499" y="760" type="curve" smooth="yes"/>
      <point x="499" y="805" type="line" smooth="yes"/>
      <point x="499" y="860"/>
      <point x="473" y="896"/>
      <point x="366" y="896" type="curve" smooth="yes"/>
      <point x="259" y="896"/>
      <point x="235" y="861"/>
    </contour>
    <contour>
      <point x="174" y="90" type="line"/>
      <point x="184" y="90" type="line"/>
      <point x="184" y="507" type="line" smooth="yes"/>
      <point x="184" y="582"/>
      <point x="219" y="632"/>
      <point x="368" y="632" type="curve" smooth="yes"/>
      <point x="517" y="632"/>
      <point x="555" y="582"/>
      <point x="555" y="507" type="curve" smooth="yes"/>
      <point x="555" y="90" type="line"/>
      <point x="565" y="90" type="line"/>
      <point x="565" y="507" type="line" smooth="yes"/>
      <point x="565" y="588"/>
      <point x="525" y="642"/>
      <point x="368" y="642" type="curve" smooth="yes"/>
      <point x="211" y="642"/>
      <point x="174" y="588"/>
      <point x="174" y="507" type="curve" smooth="yes"/>
    </contour>
    <contour>
      <point x="178" y="281" type="line"/>
      <point x="178" y="271" type="line"/>
      <point x="561" y="271" type="line"/>
      <point x="561" y="281" type="line"/>
    </contour>
    <contour>
      <point x="368.0" y="747.0" type="move" name="top"/>
    </contour>
    <contour>
      <point x="368.0" y="747.0" type="move" name="top"/>
    </contour>
    <contour>
      <point x="368.0" y="0.0" type="move" name="bottom"/>
    </contour>
    <contour>
      <point x="368.0" y="0.0" type="move" name="bottom"/>
    </contour>
    <contour>
      <point x="368.0" y="747.0" type="move" name="top"/>
    </contour>
    <contour>
      <point x="368.0" y="747.0" type="move" name="top"/>
    </contour>
    <contour>
      <point x="368.0" y="0.0" type="move" name="bottom"/>
    </contour>
    <contour>
      <point x="368.0" y="0.0" type="move" name="bottom"/>
    </contour>
  </outline>
</glyph>
<glyph name="B.v.alt000" format="1">
  <advance width="1000"/>
  <outline>
    <contour>
      <point x="108" y="-118" type="curve" smooth="yes"/>
      <point x="483" y="-118" type="line" smooth="yes"/>
      <point x="548" y="-118"/>
      <point x="598" y="-102"/>
      <point x="632" y="-73" type="curve" smooth="yes"/>
      <point x="761" y="35" type="line" smooth="yes"/>
      <point x="798" y="66"/>
      <point x="816" y="110"/>
      <point x="816" y="165" type="curve" smooth="yes"/>
      <point x="816" y="257" type="line" smooth="yes"/>
      <point x="816" y="345"/>
      <point x="771" y="400"/>
      <point x="708" y="417" type="curve"/>
      <point x="711" y="419" type="line" smooth="yes"/>
      <point x="738" y="442"/>
      <point x="749" y="476"/>
      <point x="749" y="520" type="curve" smooth="yes"/>
      <point x="749" y="568" type="line" smooth="yes"/>
      <point x="749" y="661"/>
      <point x="692" y="731"/>
      <point x="547" y="731" type="curve" smooth="yes"/>
      <point x="237" y="731" type="line" smooth="yes"/>
      <point x="223" y="731"/>
      <point x="212" y="728"/>
      <point x="205" y="722" type="curve" smooth="yes"/>
      <point x="76" y="613" type="line" smooth="yes"/>
      <point x="67" y="605"/>
      <point x="62" y="594"/>
      <point x="62" y="576" type="curve" smooth="yes"/>
      <point x="62" y="-72" type="line" smooth="yes"/>
      <point x="62" y="-104"/>
      <point x="76" y="-118"/>
    </contour>
  </outline>
</glyph>
<glyph name="Becyrillic.scrap_beta.alt001" format="1">
  <advance width="682"/>
  <outline>
    <contour>
      <point x="411" y="0" type="line" smooth="yes"/>
      <point x="593" y="0"/>
      <point x="647" y="75"/>
      <point x="647" y="185" type="curve" smooth="yes"/>
      <point x="647" y="288" type="line" smooth="yes"/>
      <point x="647" y="398"/>
      <point x="593" y="473"/>
      <point x="411" y="473" type="curve" smooth="yes"/>
      <point x="296" y="473" type="line"/>
      <point x="296" y="531" type="line"/>
      <point x="569" y="531" type="line" smooth="yes"/>
      <point x="594" y="531"/>
      <point x="605" y="542"/>
      <point x="605" y="567" type="curve" smooth="yes"/>
      <point x="605" y="684" type="line" smooth="yes"/>
      <point x="605" y="709"/>
      <point x="594" y="720"/>
      <point x="569" y="720" type="curve" smooth="yes"/>
      <point x="105" y="720" type="line" smooth="yes"/>
      <point x="80" y="720"/>
      <point x="69" y="709"/>
      <point x="69" y="684" type="curve"/>
      <point x="69" y="36" type="line"/>
      <point x="69" y="11"/>
      <point x="80" y="0"/>
      <point x="105" y="0" type="curve"/>
    </contour>
    <contour>
      <point x="294" y="187" type="line"/>
      <point x="294" y="293" type="line"/>
      <point x="384" y="293" type="line" smooth="yes"/>
      <point x="423" y="293"/>
      <point x="431" y="275"/>
      <point x="431" y="254" type="curve" smooth="yes"/>
      <point x="431" y="226" type="line" smooth="yes"/>
      <point x="431" y="205"/>
      <point x="423" y="187"/>
      <point x="384" y="187" type="curve" smooth="yes"/>
    </contour>
    <contour>
      <point x="341.0" y="-27.0" type="move" name="top"/>
    </contour>
    <contour>
      <point x="341.0" y="720.0" type="move" name="bottom"/>
    </contour>
  </outline>
</glyph>
<glyph name="C.s_v.alt000" format="1">
  <advance width="1000"/>
  <outline>
    <contour>
      <point x="626" y="-119" type="line" smooth="yes"/>
      <point x="640" y="-119"/>
      <point x="651" y="-115"/>
      <point x="657" y="-109" type="curve"/>
      <point x="787" y="-1" type="line" smooth="yes"/>
      <point x="796" y="7"/>
      <point x="801" y="18"/>
      <point x="801" y="36" type="curve" smooth="yes"/>
      <point x="801" y="155" type="line" smooth="yes"/>
      <point x="801" y="187"/>
      <point x="787" y="201"/>
      <point x="755" y="201" type="curve" smooth="yes"/>
      <point x="485" y="201" type="line" smooth="yes"/>
      <point x="444" y="201"/>
      <point x="434" y="216"/>
      <point x="434" y="239" type="curve" smooth="yes"/>
      <point x="434" y="368" type="line"/>
      <point x="626" y="368" type="line" smooth="yes"/>
      <point x="640" y="368"/>
      <point x="651" y="372"/>
      <point x="657" y="378" type="curve"/>
      <point x="787" y="486" type="line" smooth="yes"/>
      <point x="796" y="494"/>
      <point x="801" y="505"/>
      <point x="801" y="523" type="curve" smooth="yes"/>
      <point x="801" y="644" type="line" smooth="yes"/>
      <point x="801" y="676"/>
      <point x="787" y="690"/>
      <point x="755" y="690" type="curve" smooth="yes"/>
      <point x="442" y="690" type="line" smooth="yes"/>
      <point x="350" y="690"/>
      <point x="288" y="671"/>
      <point x="249" y="638" type="curve" smooth="yes"/>
      <point x="120" y="529" type="line" smooth="yes"/>
      <point x="74" y="491"/>
      <point x="57" y="434"/>
      <point x="57" y="366" type="curve" smooth="yes"/>
      <point x="57" y="95" type="line" smooth="yes"/>
      <point x="57" y="-31"/>
      <point x="115" y="-119"/>
      <point x="313" y="-119" type="curve" smooth="yes"/>
    </contour>
  </outline>
</glyph>
<glyph name="C.s_v.alt001" format="1">
  <advance width="1000"/>
  <outline>
    <contour>
      <point x="755" y="0" type="line" smooth="yes"/>
      <point x="780" y="0"/>
      <point x="791" y="11"/>
      <point x="791" y="36" type="curve" smooth="yes"/>
      <point x="791" y="155" type="line" smooth="yes"/>
      <point x="791" y="180"/>
      <point x="780" y="191"/>
      <point x="755" y="191" type="curve" smooth="yes"/>
      <point x="485" y="191" type="line" smooth="yes"/>
      <point x="433" y="191"/>
      <point x="424" y="211"/>
      <point x="424" y="239" type="curve" smooth="yes"/>
      <point x="424" y="437" type="line" smooth="yes"/>
      <point x="424" y="463"/>
      <point x="433" y="487"/>
      <point x="485" y="487" type="curve" smooth="yes"/>
      <point x="755" y="487" type="line" smooth="yes"/>
      <point x="780" y="487"/>
      <point x="791" y="498"/>
      <point x="791" y="523" type="curve" smooth="yes"/>
      <point x="791" y="644" type="line" smooth="yes"/>
      <point x="791" y="669"/>
      <point x="780" y="680"/>
      <point x="755" y="680" type="curve" smooth="yes"/>
      <point x="442" y="680" type="line" smooth="yes"/>
      <point x="253" y="680"/>
      <point x="196" y="597"/>
      <point x="196" y="475" type="curve" smooth="yes"/>
      <point x="196" y="204" type="line" smooth="yes"/>
      <point x="196" y="83"/>
      <point x="253" y="0"/>
      <point x="442" y="0" type="curve" smooth="yes"/>
    </contour>
  </outline>
</glyph>
<glyph name="C.v.alt000" format="1">
  <advance width="1000"/>
  <outline>
    <contour>
      <point x="626" y="-119" type="line" smooth="yes"/>
      <point x="640" y="-119"/>
      <point x="651" y="-115"/>
      <point x="657" y="-109" type="curve"/>
      <point x="787" y="-1" type="line" smooth="yes"/>
      <point x="796" y="7"/>
      <point x="801" y="18"/>
      <point x="801" y="36" type="curve" smooth="yes"/>
      <point x="801" y="155" type="line" smooth="yes"/>
      <point x="801" y="187"/>
      <point x="787" y="201"/>
      <point x="755" y="201" type="curve" smooth="yes"/>
      <point x="485" y="201" type="line" smooth="yes"/>
      <point x="444" y="201"/>
      <point x="434" y="216"/>
      <point x="434" y="239" type="curve" smooth="yes"/>
      <point x="434" y="408" type="line"/>
      <point x="626" y="408" type="line" smooth="yes"/>
      <point x="640" y="408"/>
      <point x="651" y="412"/>
      <point x="657" y="418" type="curve"/>
      <point x="787" y="526" type="line" smooth="yes"/>
      <point x="796" y="534"/>
      <point x="801" y="545"/>
      <point x="801" y="563" type="curve" smooth="yes"/>
      <point x="801" y="684" type="line" smooth="yes"/>
      <point x="801" y="716"/>
      <point x="787" y="730"/>
      <point x="755" y="730" type="curve" smooth="yes"/>
      <point x="442" y="730" type="line" smooth="yes"/>
      <point x="350" y="730"/>
      <point x="288" y="711"/>
      <point x="249" y="678" type="curve" smooth="yes"/>
      <point x="120" y="569" type="line" smooth="yes"/>
      <point x="74" y="531"/>
      <point x="57" y="474"/>
      <point x="57" y="406" type="curve" smooth="yes"/>
      <point x="57" y="95" type="line" smooth="yes"/>
      <point x="57" y="-31"/>
      <point x="115" y="-119"/>
      <point x="313" y="-119" type="curve" smooth="yes"/>
    </contour>
  </outline>
</glyph>
<glyph name="Checyrillic.scrap_beta" format="1">
  <advance width="709"/>
  <outline>
    <contour>
      <point x="414" y="167" type="line"/>
      <point x="414" y="36" type="line" smooth="yes"/>
      <point x="414" y="11"/>
      <point x="425" y="0"/>
      <point x="450" y="0" type="curve" smooth="yes"/>
      <point x="604" y="0" type="line" smooth="yes"/>
      <point x="629" y="0"/>
      <point x="640" y="11"/>
      <point x="640" y="36" type="curve" smooth="yes"/>
      <point x="640" y="684" type="line" smooth="yes"/>
      <point x="640" y="709"/>
      <point x="629" y="720"/>
      <point x="604" y="720" type="curve" smooth="yes"/>
      <point x="450" y="720" type="line" smooth="yes"/>
      <point x="425" y="720"/>
      <point x="414" y="709"/>
      <point x="414" y="684" type="curve" smooth="yes"/>
      <point x="414" y="376" type="line"/>
      <point x="321" y="376" type="line" smooth="yes"/>
      <point x="302" y="376"/>
      <point x="290" y="389"/>
      <point x="290" y="410" type="curve" smooth="yes"/>
      <point x="290" y="684" type="line" smooth="yes"/>
      <point x="290" y="709"/>
      <point x="279" y="720"/>
      <point x="254" y="720" type="curve" smooth="yes"/>
      <point x="99" y="720" type="line" smooth="yes"/>
      <point x="74" y="720"/>
      <point x="63" y="709"/>
      <point x="63" y="684" type="curve" smooth="yes"/>
      <point x="63" y="333" type="line" smooth="yes"/>
      <point x="63" y="219"/>
      <point x="115" y="167"/>
      <point x="245" y="167" type="curve" smooth="yes"/>
    </contour>
  </outline>
</glyph>
<glyph name="D.alt000" format="1">
  <advance width="746"/>
  <outline>
    <contour>
      <point x="505" y="-66" type="curve" smooth="yes"/>
      <point x="635" y="42" type="line" smooth="yes"/>
      <point x="677" y="78"/>
      <point x="698" y="131"/>
      <point x="698" y="204" type="curve" smooth="yes"/>
      <point x="698" y="516" type="line" smooth="yes"/>
      <point x="698" y="661"/>
      <point x="618" y="730"/>
      <point x="442" y="730" type="curve" smooth="yes"/>
      <point x="105" y="730" type="line" smooth="yes"/>
      <point x="91" y="730"/>
      <point x="80" y="727"/>
      <point x="73" y="721" type="curve" smooth="yes"/>
      <point x="-56" y="612" type="line" smooth="yes"/>
      <point x="-65" y="604"/>
      <point x="-70" y="593"/>
      <point x="-70" y="575" type="curve" smooth="yes"/>
      <point x="-70" y="-73" type="line" smooth="yes"/>
      <point x="-70" y="-105"/>
      <point x="-56" y="-119"/>
      <point x="-24" y="-119" type="curve" smooth="yes"/>
      <point x="313" y="-119" type="line" smooth="yes"/>
      <point x="400" y="-119"/>
      <point x="464" y="-101"/>
    </contour>
    <contour>
      <point x="323" y="372" type="curve" smooth="yes"/>
      <point x="323" y="199" type="line"/>
      <point x="306" y="199" type="line"/>
      <point x="306" y="407" type="line"/>
      <point x="318" y="402"/>
      <point x="323" y="390"/>
    </contour>
  </outline>
</glyph>
<glyph name="D.s_v.alt000" format="1">
  <advance width="1000"/>
  <outline>
    <contour>
      <point x="623" y="-66" type="curve" smooth="yes"/>
      <point x="752" y="43" type="line" smooth="yes"/>
      <point x="798" y="81"/>
      <point x="815" y="137"/>
      <point x="815" y="204" type="curve" smooth="yes"/>
      <point x="815" y="476" type="line" smooth="yes"/>
      <point x="815" y="602"/>
      <point x="757" y="690"/>
      <point x="559" y="690" type="curve" smooth="yes"/>
      <point x="236" y="690" type="line" smooth="yes"/>
      <point x="222" y="690"/>
      <point x="211" y="687"/>
      <point x="204" y="681" type="curve" smooth="yes"/>
      <point x="75" y="572" type="line" smooth="yes"/>
      <point x="66" y="564"/>
      <point x="61" y="553"/>
      <point x="61" y="535" type="curve" smooth="yes"/>
      <point x="61" y="-73" type="line" smooth="yes"/>
      <point x="61" y="-105"/>
      <point x="75" y="-119"/>
      <point x="107" y="-119" type="curve" smooth="yes"/>
      <point x="430" y="-119" type="line" smooth="yes"/>
      <point x="522" y="-119"/>
      <point x="583" y="-99"/>
    </contour>
    <contour>
      <point x="454" y="332" type="curve" smooth="yes"/>
      <point x="454" y="199" type="line"/>
      <point x="437" y="199" type="line"/>
      <point x="437" y="367" type="line"/>
      <point x="449" y="362"/>
      <point x="454" y="350"/>
    </contour>
  </outline>
</glyph>
<glyph name="Delta.alt000" format="1">
  <advance width="730"/>
  <outline>
    <contour>
      <point x="511" y="-119" type="line" smooth="yes"/>
      <point x="524" y="-119"/>
      <point x="535" y="-115"/>
      <point x="543" y="-110" type="curve" smooth="yes"/>
      <point x="543" y="-110" type="line"/>
      <point x="672" y="-1" type="line" smooth="yes"/>
      <point x="681" y="7"/>
      <point x="686" y="18"/>
      <point x="686" y="36" type="curve" smooth="yes"/>
      <point x="686" y="170" type="line" smooth="yes"/>
      <point x="686" y="230"/>
      <point x="670" y="290"/>
      <point x="657" y="342" type="curve" smooth="yes"/>
      <point x="570" y="681" type="line"/>
      <point x="570" y="682" type="line"/>
      <point x="569" y="683" type="line" smooth="yes"/>
      <point x="555" y="717"/>
      <point x="537" y="730"/>
      <point x="499" y="730" type="curve" smooth="yes"/>
      <point x="232" y="730" type="line" smooth="yes"/>
      <point x="210" y="730"/>
      <point x="196" y="725"/>
      <point x="183" y="716" type="curve"/>
      <point x="54" y="607" type="line"/>
      <point x="45" y="600"/>
      <point x="37" y="589"/>
      <point x="32" y="574" type="curve" smooth="yes"/>
      <point x="31" y="573" type="line"/>
      <point x="-56" y="233" type="line" smooth="yes"/>
      <point x="-69" y="181"/>
      <point x="-85" y="121"/>
      <point x="-85" y="61" type="curve" smooth="yes"/>
      <point x="-85" y="-73" type="line" smooth="yes"/>
      <point x="-85" y="-105"/>
      <point x="-71" y="-119"/>
      <point x="-39" y="-119" type="curve" smooth="yes"/>
    </contour>
  </outline>
</glyph>
<glyph name="E.alt000" format="1">
  <advance width="654"/>
  <outline>
    <contour>
      <point x="440" y="-119" type="line" smooth="yes"/>
      <point x="454" y="-119"/>
      <point x="465" y="-115"/>
      <point x="471" y="-109" type="curve"/>
      <point x="601" y="-1" type="line" smooth="yes"/>
      <point x="610" y="7"/>
      <point x="615" y="18"/>
      <point x="615" y="36" type="curve" smooth="yes"/>
      <point x="615" y="153" type="line" smooth="yes"/>
      <point x="615" y="185"/>
      <point x="601" y="199"/>
      <point x="569" y="199" type="curve" smooth="yes"/>
      <point x="431" y="199" type="line"/>
      <point x="520" y="274" type="line" smooth="yes"/>
      <point x="529" y="282"/>
      <point x="534" y="293"/>
      <point x="534" y="311" type="curve" smooth="yes"/>
      <point x="534" y="418" type="line" smooth="yes"/>
      <point x="534" y="439"/>
      <point x="528" y="452"/>
      <point x="515" y="459" type="curve"/>
      <point x="601" y="530" type="line" smooth="yes"/>
      <point x="610" y="538"/>
      <point x="615" y="549"/>
      <point x="615" y="567" type="curve" smooth="yes"/>
      <point x="615" y="684" type="line" smooth="yes"/>
      <point x="615" y="716"/>
      <point x="601" y="730"/>
      <point x="569" y="730" type="curve" smooth="yes"/>
      <point x="105" y="730" type="line" smooth="yes"/>
      <point x="91" y="730"/>
      <point x="80" y="727"/>
      <point x="73" y="721" type="curve" smooth="yes"/>
      <point x="-56" y="612" type="line" smooth="yes"/>
      <point x="-65" y="604"/>
      <point x="-70" y="593"/>
      <point x="-70" y="575" type="curve" smooth="yes"/>
      <point x="-70" y="-73" type="line" smooth="yes"/>
      <point x="-70" y="-105"/>
      <point x="-56" y="-119"/>
      <point x="-24" y="-119" type="curve" smooth="yes"/>
    </contour>
  </outline>
</glyph>
<glyph name="E.alt001" format="1">
  <advance width="654"/>
  <outline>
    <contour>
      <point x="569" y="0" type="line" smooth="yes"/>
      <point x="594" y="0"/>
      <point x="605" y="11"/>
      <point x="605" y="36" type="curve" smooth="yes"/>
      <point x="605" y="153" type="line" smooth="yes"/>
      <point x="605" y="178"/>
      <point x="594" y="189"/>
      <point x="569" y="189" type="curve" smooth="yes"/>
      <point x="293" y="189" type="line"/>
      <point x="293" y="275" type="line"/>
      <point x="488" y="275" type="line" smooth="yes"/>
      <point x="513" y="275"/>
      <point x="524" y="286"/>
      <point x="524" y="311" type="curve" smooth="yes"/>
      <point x="524" y="418" type="line" smooth="yes"/>
      <point x="524" y="443"/>
      <point x="513" y="454"/>
      <point x="488" y="454" type="curve" smooth="yes"/>
      <point x="293" y="454" type="line"/>
      <point x="293" y="531" type="line"/>
      <point x="569" y="531" type="line" smooth="yes"/>
      <point x="594" y="531"/>
      <point x="605" y="542"/>
      <point x="605" y="567" type="curve" smooth="yes"/>
      <point x="605" y="684" type="line" smooth="yes"/>
      <point x="605" y="709"/>
      <point x="594" y="720"/>
      <point x="569" y="720" type="curve" smooth="yes"/>
      <point x="105" y="720" type="line" smooth="yes"/>
      <point x="80" y="720"/>
      <point x="69" y="709"/>
      <point x="69" y="684" type="curve" smooth="yes"/>
      <point x="69" y="36" type="line" smooth="yes"/>
      <point x="69" y="11"/>
      <point x="80" y="0"/>
      <point x="105" y="0" type="curve" smooth="yes"/>
    </contour>
  </outline>
</glyph>
<glyph name="E.salt.alt000" format="1">
  <advance width="643"/>
  <outline>
    <contour>
      <point x="429" y="-119" type="line" smooth="yes"/>
      <point x="443" y="-119"/>
      <point x="454" y="-115"/>
      <point x="460" y="-109" type="curve"/>
      <point x="590" y="-1" type="line" smooth="yes"/>
      <point x="599" y="7"/>
      <point x="604" y="18"/>
      <point x="604" y="36" type="curve" smooth="yes"/>
      <point x="604" y="153" type="line" smooth="yes"/>
      <point x="604" y="185"/>
      <point x="590" y="199"/>
      <point x="558" y="199" type="curve" smooth="yes"/>
      <point x="421" y="199" type="line"/>
      <point x="510" y="274" type="line" smooth="yes"/>
      <point x="519" y="282"/>
      <point x="524" y="293"/>
      <point x="524" y="311" type="curve" smooth="yes"/>
      <point x="524" y="418" type="line" smooth="yes"/>
      <point x="524" y="440"/>
      <point x="518" y="453"/>
      <point x="505" y="459" type="curve"/>
      <point x="590" y="530" type="line" smooth="yes"/>
      <point x="599" y="538"/>
      <point x="604" y="549"/>
      <point x="604" y="567" type="curve" smooth="yes"/>
      <point x="604" y="684" type="line" smooth="yes"/>
      <point x="604" y="716"/>
      <point x="590" y="730"/>
      <point x="558" y="730" type="curve" smooth="yes"/>
      <point x="304" y="730" type="line" smooth="yes"/>
      <point x="212" y="730"/>
      <point x="150" y="711"/>
      <point x="111" y="678" type="curve" smooth="yes"/>
      <point x="-18" y="569" type="line" smooth="yes"/>
      <point x="-64" y="531"/>
      <point x="-81" y="474"/>
      <point x="-81" y="406" type="curve" smooth="yes"/>
      <point x="-81" y="95" type="line" smooth="yes"/>
      <point x="-81" y="-31"/>
      <point x="-23" y="-119"/>
      <point x="175" y="-119" type="curve" smooth="yes"/>
    </contour>
  </outline>
</glyph>
<glyph name="E.salt_s_v.alt000" format="1">
  <advance width="1000"/>
  <outline>
    <contour>
      <point x="625" y="-119" type="line" smooth="yes"/>
      <point x="639" y="-119"/>
      <point x="650" y="-115"/>
      <point x="656" y="-109" type="curve"/>
      <point x="786" y="-1" type="line" smooth="yes"/>
      <point x="795" y="7"/>
      <point x="800" y="18"/>
      <point x="800" y="36" type="curve" smooth="yes"/>
      <point x="800" y="149" type="line" smooth="yes"/>
      <point x="800" y="181"/>
      <point x="786" y="195"/>
      <point x="754" y="195" type="curve" smooth="yes"/>
      <point x="627" y="195" type="line"/>
      <point x="705" y="260" type="line" smooth="yes"/>
      <point x="714" y="268"/>
      <point x="719" y="279"/>
      <point x="719" y="297" type="curve" smooth="yes"/>
      <point x="719" y="392" type="line" smooth="yes"/>
      <point x="719" y="410"/>
      <point x="715" y="421"/>
      <point x="707" y="428" type="curve"/>
      <point x="786" y="494" type="line" smooth="yes"/>
      <point x="795" y="502"/>
      <point x="800" y="513"/>
      <point x="800" y="531" type="curve" smooth="yes"/>
      <point x="800" y="644" type="line" smooth="yes"/>
      <point x="800" y="676"/>
      <point x="786" y="690"/>
      <point x="754" y="690" type="curve" smooth="yes"/>
      <point x="442" y="690" type="line" smooth="yes"/>
      <point x="350" y="690"/>
      <point x="288" y="671"/>
      <point x="249" y="638" type="curve" smooth="yes"/>
      <point x="120" y="529" type="line" smooth="yes"/>
      <point x="74" y="491"/>
      <point x="57" y="434"/>
      <point x="57" y="366" type="curve" smooth="yes"/>
      <point x="57" y="95" type="line" smooth="yes"/>
      <point x="57" y="-31"/>
      <point x="115" y="-119"/>
      <point x="313" y="-119" type="curve" smooth="yes"/>
    </contour>
  </outline>
</glyph>
<glyph name="Eng.alt002" format="1">
  <advance width="746"/>
  <outline>
    <contour>
      <point x="445" y="11" type="line"/>
      <point x="527" y="11"/>
      <point x="562" y="36"/>
      <point x="562" y="100" type="curve" smooth="yes"/>
      <point x="562" y="507" type="line" smooth="yes"/>
      <point x="562" y="582"/>
      <point x="521" y="632"/>
      <point x="372" y="632" type="curve"/>
      <point x="223" y="632"/>
      <point x="181" y="582"/>
      <point x="181" y="507" type="curve" smooth="yes"/>
      <point x="181" y="90" type="line"/>
      <point x="171" y="90" type="line"/>
      <point x="171" y="507" type="line" smooth="yes"/>
      <point x="171" y="588"/>
      <point x="215" y="642"/>
      <point x="372" y="642" type="curve"/>
      <point x="529" y="642"/>
      <point x="572" y="588"/>
      <point x="572" y="507" type="curve" smooth="yes"/>
      <point x="572" y="100" type="line" smooth="yes"/>
      <point x="572" y="30"/>
      <point x="537" y="1"/>
      <point x="445" y="1" type="curve"/>
    </contour>
  </outline>
</glyph>
<glyph name="Eng.v.alt000" format="1">
  <advance width="1000"/>
  <outline>
    <contour>
      <point x="380" y="-209" type="curve" smooth="yes"/>
      <point x="425" y="-209" type="line" smooth="yes"/>
      <point x="516" y="-209"/>
      <point x="578" y="-189"/>
      <point x="617" y="-156" type="curve" smooth="yes"/>
      <point x="747" y="-48" type="line" smooth="yes"/>
      <point x="793" y="-9"/>
      <point x="810" y="47"/>
      <point x="810" y="115" type="curve" smooth="yes"/>
      <point x="810" y="512" type="line" smooth="yes"/>
      <point x="810" y="638"/>
      <point x="751" y="726"/>
      <point x="500" y="726" type="curve" smooth="yes"/>
      <point x="374" y="726"/>
      <point x="297" y="703"/>
      <point x="251" y="665" type="curve" smooth="yes"/>
      <point x="121" y="556" type="line" smooth="yes"/>
      <point x="76" y="519"/>
      <point x="61" y="466"/>
      <point x="61" y="403" type="curve" smooth="yes"/>
      <point x="61" y="-73" type="line" smooth="yes"/>
      <point x="61" y="-105"/>
      <point x="75" y="-119"/>
      <point x="107" y="-119" type="curve" smooth="yes"/>
      <point x="259" y="-119" type="line" smooth="yes"/>
      <point x="272" y="-119"/>
      <point x="283" y="-115"/>
      <point x="291" y="-110" type="curve" smooth="yes"/>
      <point x="291" y="-110" type="line"/>
      <point x="334" y="-74" type="line"/>
      <point x="334" y="-163" type="line" smooth="yes"/>
      <point x="334" y="-195"/>
      <point x="348" y="-209"/>
    </contour>
  </outline>
</glyph>
<glyph name="Eng.v.alt002" format="1">
  <advance width="1000"/>
  <outline>
    <contour>
      <point x="307" y="90" type="line"/>
      <point x="307" y="507" type="line" smooth="yes"/>
      <point x="307" y="588"/>
      <point x="349" y="642"/>
      <point x="498" y="642" type="curve"/>
      <point x="649" y="642"/>
      <point x="690" y="588"/>
      <point x="690" y="507" type="curve" smooth="yes"/>
      <point x="690" y="100" type="line" smooth="yes"/>
      <point x="690" y="30"/>
      <point x="655" y="1"/>
      <point x="563" y="1" type="curve"/>
      <point x="563" y="11" type="line"/>
      <point x="645" y="11"/>
      <point x="680" y="36"/>
      <point x="680" y="100" type="curve" smooth="yes"/>
      <point x="680" y="507" type="line" smooth="yes"/>
      <point x="680" y="582"/>
      <point x="641" y="632"/>
      <point x="498" y="632" type="curve"/>
      <point x="357" y="632"/>
      <point x="317" y="582"/>
      <point x="317" y="507" type="curve" smooth="yes"/>
      <point x="317" y="90" type="line"/>
    </contour>
  </outline>
</glyph>
<glyph name="Ereversedcyrillic.scrap_beta.alt001" format="1">
  <advance width="638.0"/>
  <outline>
    <contour>
      <point x="80" y="0" type="curve" smooth="yes"/>
      <point x="334" y="0" type="line" smooth="yes"/>
      <point x="523" y="0"/>
      <point x="580" y="83"/>
      <point x="580" y="204" type="curve" smooth="yes"/>
      <point x="580" y="515" type="line" smooth="yes"/>
      <point x="580" y="637"/>
      <point x="523" y="720"/>
      <point x="334" y="720" type="curve" smooth="yes"/>
      <point x="80" y="720" type="line" smooth="yes"/>
      <point x="55" y="720"/>
      <point x="44" y="709"/>
      <point x="44" y="684" type="curve" smooth="yes"/>
      <point x="44" y="567" type="line" smooth="yes"/>
      <point x="44" y="542"/>
      <point x="55" y="531"/>
      <point x="80" y="531" type="curve" smooth="yes"/>
      <point x="301" y="531" type="line" smooth="yes"/>
      <point x="353" y="531"/>
      <point x="362" y="507"/>
      <point x="362" y="481" type="curve" smooth="yes"/>
      <point x="362" y="237" type="line" smooth="yes"/>
      <point x="362" y="209"/>
      <point x="353" y="189"/>
      <point x="301" y="189" type="curve" smooth="yes"/>
      <point x="80" y="189" type="line" smooth="yes"/>
      <point x="55" y="189"/>
      <point x="44" y="178"/>
      <point x="44" y="153" type="curve" smooth="yes"/>
      <point x="44" y="36" type="line" smooth="yes"/>
      <point x="44" y="11"/>
      <point x="55" y="0"/>
    </contour>
    <contour>
      <point x="422" y="454" type="move"/>
      <point x="160" y="454" type="line" smooth="yes"/>
      <point x="135" y="454"/>
      <point x="124" y="444"/>
      <point x="124" y="418" type="curve" smooth="yes"/>
      <point x="124" y="311" type="line" smooth="yes"/>
      <point x="124" y="286"/>
      <point x="135" y="275"/>
      <point x="160" y="275" type="curve" smooth="yes"/>
      <point x="422" y="275" type="line"/>
    </contour>
    <contour>
      <point x="314.0" y="747.0" type="move" name="top"/>
    </contour>
    <contour>
      <point x="314.0" y="0.0" type="move" name="bottom"/>
    </contour>
  </outline>
</glyph>
<glyph name="Eth.alt000" format="1">
  <advance width="756"/>
  <outline>
    <contour>
      <point x="-14" y="-119" type="curve" smooth="yes"/>
      <point x="323" y="-119" type="line" smooth="yes"/>
      <point x="415" y="-119"/>
      <point x="476" y="-99"/>
      <point x="516" y="-66" type="curve" smooth="yes"/>
      <point x="645" y="43" type="line" smooth="yes"/>
      <point x="691" y="81"/>
      <point x="708" y="137"/>
      <point x="708" y="204" type="curve" smooth="yes"/>
      <point x="708" y="516" type="line" smooth="yes"/>
      <point x="708" y="642"/>
      <point x="650" y="730"/>
      <point x="452" y="730" type="curve" smooth="yes"/>
      <point x="115" y="730" type="line" smooth="yes"/>
      <point x="101" y="730"/>
      <point x="90" y="727"/>
      <point x="83" y="721" type="curve" smooth="yes"/>
      <point x="-46" y="612" type="line" smooth="yes"/>
      <point x="-55" y="604"/>
      <point x="-60" y="593"/>
      <point x="-60" y="575" type="curve" smooth="yes"/>
      <point x="-60" y="374" type="line"/>
      <point x="-105" y="336" type="line" smooth="yes"/>
      <point x="-114" y="328"/>
      <point x="-119" y="317"/>
      <point x="-119" y="299" type="curve" smooth="yes"/>
      <point x="-119" y="192" type="line" smooth="yes"/>
      <point x="-119" y="159"/>
      <point x="-105" y="146"/>
      <point x="-73" y="146" type="curve" smooth="yes"/>
      <point x="-60" y="146" type="line"/>
      <point x="-60" y="-73" type="line" smooth="yes"/>
      <point x="-60" y="-105"/>
      <point x="-46" y="-119"/>
    </contour>
    <contour>
      <point x="333" y="199" type="line"/>
      <point x="313" y="199" type="line"/>
      <point x="313" y="211" type="line"/>
      <point x="333" y="228" type="line"/>
    </contour>
  </outline>
</glyph>
<glyph name="Eth.alt002" format="1">
  <advance width="756"/>
  <outline>
    <contour>
      <point x="191" y="100" type="line"/>
      <point x="430" y="100" type="line" smooth="yes"/>
      <point x="558" y="100"/>
      <point x="580" y="153"/>
      <point x="580" y="226" type="curve" smooth="yes"/>
      <point x="580" y="491" type="line" smooth="yes"/>
      <point x="580" y="564"/>
      <point x="556" y="620"/>
      <point x="430" y="620" type="curve" smooth="yes"/>
      <point x="191" y="620" type="line"/>
      <point x="196" y="625" type="line"/>
      <point x="196" y="95" type="line"/>
    </contour>
    <contour>
      <point x="110" y="359" type="line"/>
      <point x="290" y="359" type="line"/>
      <point x="290" y="349" type="line"/>
      <point x="110" y="349" type="line"/>
    </contour>
    <contour>
      <point x="430" y="90" type="curve" smooth="yes"/>
      <point x="186" y="90" type="line"/>
      <point x="186" y="630" type="line"/>
      <point x="191" y="630" type="line"/>
      <point x="430" y="630" type="line" smooth="yes"/>
      <point x="566" y="630"/>
      <point x="590" y="568"/>
      <point x="590" y="491" type="curve" smooth="yes"/>
      <point x="590" y="226" type="line" smooth="yes"/>
      <point x="590" y="149"/>
      <point x="568" y="90"/>
    </contour>
  </outline>
</glyph>
<glyph name="Eth.v.alt001" format="1">
  <advance width="1000"/>
  <outline>
    <contour>
      <point x="177" y="265" type="curve"/>
      <point x="466" y="265" type="line" smooth="yes"/>
      <point x="491" y="265"/>
      <point x="502" y="275"/>
      <point x="502" y="301" type="curve" smooth="yes"/>
      <point x="502" y="408" type="line" smooth="yes"/>
      <point x="502" y="434"/>
      <point x="491" y="444"/>
      <point x="466" y="444" type="curve" smooth="yes"/>
      <point x="177" y="444" type="line" smooth="yes"/>
      <point x="152" y="444"/>
      <point x="141" y="433"/>
      <point x="141" y="408" type="curve" smooth="yes"/>
      <point x="141" y="301" type="line" smooth="yes"/>
      <point x="141" y="275"/>
      <point x="152" y="265"/>
    </contour>
    <contour>
      <point x="554" y="0" type="line" smooth="yes"/>
      <point x="743" y="0"/>
      <point x="800" y="83"/>
      <point x="800" y="204" type="curve" smooth="yes"/>
      <point x="800" y="516" type="line" smooth="yes"/>
      <point x="800" y="637"/>
      <point x="743" y="720"/>
      <point x="554" y="720" type="curve" smooth="yes"/>
      <point x="236" y="720" type="line" smooth="yes"/>
      <point x="211" y="720"/>
      <point x="200" y="709"/>
      <point x="200" y="684" type="curve"/>
      <point x="200" y="36" type="line"/>
      <point x="200" y="11"/>
      <point x="211" y="0"/>
      <point x="236" y="0" type="curve" smooth="yes"/>
    </contour>
    <contour>
      <point x="424" y="529" type="line"/>
      <point x="527" y="529" type="line" smooth="yes"/>
      <point x="567" y="529"/>
      <point x="574" y="507"/>
      <point x="574" y="481" type="curve" smooth="yes"/>
      <point x="574" y="238" type="line" smooth="yes"/>
      <point x="574" y="211"/>
      <point x="567" y="189"/>
      <point x="527" y="189" type="curve" smooth="yes"/>
      <point x="424" y="189" type="line"/>
    </contour>
  </outline>
</glyph>
<glyph name="Euro.alt000" format="1">
  <advance width="648"/>
  <outline>
    <contour>
      <point x="439" y="-119" type="line" smooth="yes"/>
      <point x="453" y="-119"/>
      <point x="464" y="-115"/>
      <point x="470" y="-109" type="curve"/>
      <point x="600" y="-1" type="line" smooth="yes"/>
      <point x="609" y="7"/>
      <point x="614" y="18"/>
      <point x="614" y="36" type="curve" smooth="yes"/>
      <point x="614" y="145" type="line" smooth="yes"/>
      <point x="614" y="177"/>
      <point x="600" y="191"/>
      <point x="568" y="191" type="curve" smooth="yes"/>
      <point x="471" y="191" type="line"/>
      <point x="501" y="216" type="line"/>
      <point x="501" y="216" type="line" smooth="yes"/>
      <point x="507" y="221"/>
      <point x="510" y="228"/>
      <point x="510" y="242" type="curve" smooth="yes"/>
      <point x="510" y="314" type="line" smooth="yes"/>
      <point x="510" y="341"/>
      <point x="500" y="348"/>
      <point x="476" y="348" type="curve" smooth="yes"/>
      <point x="468" y="348" type="line"/>
      <point x="501" y="376" type="line"/>
      <point x="501" y="376" type="line" smooth="yes"/>
      <point x="507" y="381"/>
      <point x="510" y="388"/>
      <point x="510" y="402" type="curve" smooth="yes"/>
      <point x="510" y="460" type="line"/>
      <point x="600" y="536" type="line" smooth="yes"/>
      <point x="609" y="544"/>
      <point x="614" y="555"/>
      <point x="614" y="573" type="curve" smooth="yes"/>
      <point x="614" y="684" type="line" smooth="yes"/>
      <point x="614" y="716"/>
      <point x="600" y="730"/>
      <point x="568" y="730" type="curve" smooth="yes"/>
      <point x="324" y="730" type="line" smooth="yes"/>
      <point x="232" y="730"/>
      <point x="170" y="711"/>
      <point x="131" y="678" type="curve" smooth="yes"/>
      <point x="2" y="569" type="line" smooth="yes"/>
      <point x="-41" y="533"/>
      <point x="-59" y="480"/>
      <point x="-61" y="417" type="curve"/>
      <point x="-89" y="393" type="line" smooth="yes"/>
      <point x="-96" y="387"/>
      <point x="-99" y="380"/>
      <point x="-99" y="365" type="curve" smooth="yes"/>
      <point x="-99" y="293" type="line" smooth="yes"/>
      <point x="-99" y="266"/>
      <point x="-89" y="260"/>
      <point x="-65" y="260" type="curve" smooth="yes"/>
      <point x="-61" y="260" type="line"/>
      <point x="-61" y="257" type="line"/>
      <point x="-89" y="233" type="line" smooth="yes"/>
      <point x="-96" y="227"/>
      <point x="-99" y="220"/>
      <point x="-99" y="205" type="curve" smooth="yes"/>
      <point x="-99" y="133" type="line" smooth="yes"/>
      <point x="-99" y="106"/>
      <point x="-89" y="100"/>
      <point x="-65" y="100" type="curve" smooth="yes"/>
      <point x="-61" y="100" type="line"/>
      <point x="-61" y="95" type="line" smooth="yes"/>
      <point x="-61" y="-31"/>
      <point x="-3" y="-119"/>
      <point x="195" y="-119" type="curve" smooth="yes"/>
    </contour>
  </outline>
</glyph>
<glyph name="Euro.alt002" format="1">
  <advance width="648"/>
  <outline>
    <contour>
      <point x="110" y="443" type="line"/>
      <point x="430" y="443" type="line"/>
      <point x="430" y="433" type="line"/>
      <point x="110" y="433" type="line"/>
    </contour>
    <contour>
      <point x="110" y="283" type="line"/>
      <point x="430" y="283" type="line"/>
      <point x="430" y="273" type="line"/>
      <point x="110" y="273" type="line"/>
    </contour>
    <contour>
      <point x="514" y="90" type="line"/>
      <point x="342" y="90" type="line" smooth="yes"/>
      <point x="212" y="90"/>
      <point x="182" y="126"/>
      <point x="182" y="219" type="curve" smooth="yes"/>
      <point x="182" y="499" type="line" smooth="yes"/>
      <point x="182" y="594"/>
      <point x="214" y="630"/>
      <point x="342" y="630" type="curve" smooth="yes"/>
      <point x="514" y="630" type="line"/>
      <point x="514" y="620" type="line"/>
      <point x="342" y="620" type="line" smooth="yes"/>
      <point x="224" y="620"/>
      <point x="192" y="588"/>
      <point x="192" y="499" type="curve" smooth="yes"/>
      <point x="192" y="219" type="line" smooth="yes"/>
      <point x="192" y="132"/>
      <point x="222" y="100"/>
      <point x="342" y="100" type="curve" smooth="yes"/>
      <point x="514" y="100" type="line"/>
    </contour>
  </outline>
</glyph>
<glyph name="F.alt000" format="1">
  <advance width="618"/>
  <outline>
    <contour>
      <point x="131" y="-119" type="line" smooth="yes"/>
      <point x="145" y="-119"/>
      <point x="156" y="-115"/>
      <point x="162" y="-109" type="curve"/>
      <point x="292" y="-1" type="line" smooth="yes"/>
      <point x="301" y="7"/>
      <point x="306" y="18"/>
      <point x="306" y="36" type="curve" smooth="yes"/>
      <point x="306" y="114" type="line"/>
      <point x="341" y="114" type="line" smooth="yes"/>
      <point x="355" y="114"/>
      <point x="366" y="118"/>
      <point x="372" y="124" type="curve"/>
      <point x="502" y="232" type="line" smooth="yes"/>
      <point x="511" y="240"/>
      <point x="516" y="251"/>
      <point x="516" y="269" type="curve" smooth="yes"/>
      <point x="516" y="389" type="line" smooth="yes"/>
      <point x="516" y="421"/>
      <point x="502" y="435"/>
      <point x="471" y="435" type="curve"/>
      <point x="583" y="528" type="line" smooth="yes"/>
      <point x="592" y="536"/>
      <point x="597" y="547"/>
      <point x="597" y="565" type="curve" smooth="yes"/>
      <point x="597" y="684" type="line" smooth="yes"/>
      <point x="597" y="716"/>
      <point x="583" y="730"/>
      <point x="551" y="730" type="curve" smooth="yes"/>
      <point x="105" y="730" type="line" smooth="yes"/>
      <point x="91" y="730"/>
      <point x="80" y="727"/>
      <point x="73" y="721" type="curve" smooth="yes"/>
      <point x="-56" y="612" type="line" smooth="yes"/>
      <point x="-65" y="604"/>
      <point x="-70" y="593"/>
      <point x="-70" y="575" type="curve" smooth="yes"/>
      <point x="-70" y="-73" type="line" smooth="yes"/>
      <point x="-70" y="-105"/>
      <point x="-56" y="-119"/>
      <point x="-24" y="-119" type="curve" smooth="yes"/>
    </contour>
  </outline>
</glyph>
<glyph name="F.v.alt000" format="1">
  <advance width="1000"/>
  <outline>
    <contour>
      <point x="263" y="-119" type="line" smooth="yes"/>
      <point x="277" y="-119"/>
      <point x="287" y="-115"/>
      <point x="294" y="-109" type="curve" smooth="yes"/>
      <point x="423" y="-1" type="line"/>
      <point x="433" y="7"/>
      <point x="438" y="19"/>
      <point x="438" y="37" type="curve" smooth="yes"/>
      <point x="438" y="115" type="line"/>
      <point x="545" y="115" type="line" smooth="yes"/>
      <point x="559" y="115"/>
      <point x="570" y="119"/>
      <point x="576" y="125" type="curve"/>
      <point x="706" y="233" type="line" smooth="yes"/>
      <point x="715" y="241"/>
      <point x="720" y="252"/>
      <point x="720" y="270" type="curve" smooth="yes"/>
      <point x="720" y="390" type="line" smooth="yes"/>
      <point x="720" y="422"/>
      <point x="706" y="436"/>
      <point x="675" y="436" type="curve"/>
      <point x="787" y="529" type="line" smooth="yes"/>
      <point x="796" y="537"/>
      <point x="801" y="548"/>
      <point x="801" y="566" type="curve" smooth="yes"/>
      <point x="801" y="685" type="line" smooth="yes"/>
      <point x="801" y="717"/>
      <point x="787" y="731"/>
      <point x="755" y="731" type="curve" smooth="yes"/>
      <point x="237" y="731" type="line" smooth="yes"/>
      <point x="223" y="731"/>
      <point x="212" y="728"/>
      <point x="205" y="722" type="curve" smooth="yes"/>
      <point x="76" y="613" type="line" smooth="yes"/>
      <point x="67" y="605"/>
      <point x="62" y="594"/>
      <point x="62" y="576" type="curve" smooth="yes"/>
      <point x="62" y="-72" type="line" smooth="yes"/>
      <point x="62" y="-104"/>
      <point x="76" y="-119"/>
      <point x="108" y="-119" type="curve" smooth="yes"/>
    </contour>
  </outline>
</glyph>
<glyph name="F.v.alt001" format="1">
  <advance width="1000"/>
  <outline>
    <contour>
      <point x="392" y="0" type="line" smooth="yes"/>
      <point x="417" y="0"/>
      <point x="428" y="12"/>
      <point x="428" y="37" type="curve" smooth="yes"/>
      <point x="428" y="234" type="line"/>
      <point x="674" y="234" type="line" smooth="yes"/>
      <point x="699" y="234"/>
      <point x="710" y="245"/>
      <point x="710" y="270" type="curve" smooth="yes"/>
      <point x="710" y="390" type="line" smooth="yes"/>
      <point x="710" y="415"/>
      <point x="699" y="426"/>
      <point x="674" y="426" type="curve" smooth="yes"/>
      <point x="428" y="426" type="line"/>
      <point x="428" y="530" type="line"/>
      <point x="755" y="530" type="line" smooth="yes"/>
      <point x="780" y="530"/>
      <point x="791" y="541"/>
      <point x="791" y="566" type="curve" smooth="yes"/>
      <point x="791" y="685" type="line" smooth="yes"/>
      <point x="791" y="710"/>
      <point x="780" y="721"/>
      <point x="755" y="721" type="curve" smooth="yes"/>
      <point x="237" y="721" type="line" smooth="yes"/>
      <point x="212" y="721"/>
      <point x="201" y="710"/>
      <point x="201" y="685" type="curve"/>
      <point x="201" y="37" type="line"/>
      <point x="201" y="12"/>
      <point x="212" y="0"/>
      <point x="237" y="0" type="curve" smooth="yes"/>
    </contour>
  </outline>
</glyph>
<glyph name="F.v.alt002" format="1">
  <advance width="1000"/>
  <outline>
    <contour>
      <point x="315" y="334" type="line"/>
      <point x="620" y="334" type="line"/>
      <point x="620" y="324" type="line"/>
      <point x="315" y="324" type="line"/>
    </contour>
    <contour>
      <point x="310" y="90" type="line"/>
      <point x="310" y="630" type="line"/>
      <point x="701" y="630" type="line"/>
      <point x="701" y="620" type="line"/>
      <point x="315" y="620" type="line"/>
      <point x="320" y="625" type="line"/>
      <point x="320" y="90" type="line"/>
    </contour>
  </outline>
</glyph>
<glyph name="G.v.alt000" format="1">
  <advance width="1000"/>
  <outline>
    <contour>
      <point x="635" y="-119" type="line" smooth="yes"/>
      <point x="649" y="-119"/>
      <point x="660" y="-115"/>
      <point x="666" y="-109" type="curve"/>
      <point x="796" y="-1" type="line" smooth="yes"/>
      <point x="805" y="7"/>
      <point x="810" y="18"/>
      <point x="810" y="36" type="curve" smooth="yes"/>
      <point x="810" y="345" type="line" smooth="yes"/>
      <point x="810" y="377"/>
      <point x="796" y="391"/>
      <point x="764" y="391" type="curve" smooth="yes"/>
      <point x="609" y="391" type="line" smooth="yes"/>
      <point x="595" y="391"/>
      <point x="584" y="388"/>
      <point x="577" y="382" type="curve" smooth="yes"/>
      <point x="448" y="273" type="line" smooth="yes"/>
      <point x="439" y="265"/>
      <point x="434" y="254"/>
      <point x="434" y="236" type="curve" smooth="yes"/>
      <point x="434" y="218" type="line"/>
      <point x="432" y="224"/>
      <point x="432" y="231"/>
      <point x="432" y="238" type="curve" smooth="yes"/>
      <point x="432" y="408" type="line"/>
      <point x="570" y="408" type="line" smooth="yes"/>
      <point x="584" y="408"/>
      <point x="595" y="412"/>
      <point x="601" y="418" type="curve"/>
      <point x="731" y="526" type="line" smooth="yes"/>
      <point x="740" y="534"/>
      <point x="745" y="545"/>
      <point x="745" y="563" type="curve" smooth="yes"/>
      <point x="745" y="684" type="line" smooth="yes"/>
      <point x="745" y="716"/>
      <point x="731" y="730"/>
      <point x="699" y="730" type="curve" smooth="yes"/>
      <point x="441" y="730" type="line" smooth="yes"/>
      <point x="349" y="730"/>
      <point x="287" y="711"/>
      <point x="247" y="677" type="curve" smooth="yes"/>
      <point x="118" y="569" type="line" smooth="yes"/>
      <point x="72" y="531"/>
      <point x="56" y="474"/>
      <point x="56" y="407" type="curve" smooth="yes"/>
      <point x="56" y="95" type="line" smooth="yes"/>
      <point x="56" y="-31"/>
      <point x="114" y="-119"/>
      <point x="312" y="-119" type="curve" smooth="yes"/>
    </contour>
  </outline>
</glyph>
<glyph name="Gecyrillic.scrap_beta.alt001" format="1">
  <advance width="595.0"/>
  <outline>
    <contour>
      <point x="260" y="0" type="line" smooth="yes"/>
      <point x="285" y="0"/>
      <point x="296" y="11"/>
      <point x="296" y="36" type="curve"/>
      <point x="296" y="529" type="line"/>
      <point x="531" y="529" type="line" smooth="yes"/>
      <point x="556" y="529"/>
      <point x="567" y="540"/>
      <point x="567" y="565" type="curve" smooth="yes"/>
      <point x="567" y="684" type="line" smooth="yes"/>
      <point x="567" y="709"/>
      <point x="556" y="720"/>
      <point x="531" y="720" type="curve" smooth="yes"/>
      <point x="105" y="720" type="line" smooth="yes"/>
      <point x="80" y="720"/>
      <point x="69" y="709"/>
      <point x="69" y="684" type="curve"/>
      <point x="69" y="36" type="line"/>
      <point x="69" y="11"/>
      <point x="80" y="0"/>
      <point x="105" y="0" type="curve" smooth="yes"/>
    </contour>
    <contour>
      <point x="328.0" y="747.0" type="move" name="top"/>
    </contour>
    <contour>
      <point x="328.0" y="0.0" type="move" name="bottom"/>
    </contour>
  </outline>
</glyph>
<glyph name="Germandbls.alt000" format="1">
  <advance width="759.0"/>
  <outline>
    <contour>
      <point x="217" y="-64" type="line"/>
      <point x="217" y="-73" type="line" smooth="yes"/>
      <point x="217" y="-105"/>
      <point x="231" y="-119"/>
      <point x="263" y="-119" type="curve" smooth="yes"/>
      <point x="401" y="-119" type="line" smooth="yes"/>
      <point x="463" y="-119"/>
      <point x="513" y="-102"/>
      <point x="548" y="-73" type="curve" smooth="yes"/>
      <point x="678" y="36" type="line" smooth="yes"/>
      <point x="715" y="67"/>
      <point x="735" y="112"/>
      <point x="735" y="166" type="curve" smooth="yes"/>
      <point x="735" y="289" type="line" smooth="yes"/>
      <point x="735" y="383"/>
      <point x="680" y="437"/>
      <point x="609" y="454" type="curve"/>
      <point x="630" y="526" type="line" smooth="yes"/>
      <point x="663" y="645"/>
      <point x="602" y="730"/>
      <point x="476" y="730" type="curve" smooth="yes"/>
      <point x="105" y="730" type="line" smooth="yes"/>
      <point x="91" y="730"/>
      <point x="81" y="727"/>
      <point x="74" y="721" type="curve" smooth="yes"/>
      <point x="-56" y="612" type="line" smooth="yes"/>
      <point x="-65" y="604"/>
      <point x="-70" y="592"/>
      <point x="-70" y="575" type="curve" smooth="yes"/>
      <point x="-70" y="-73" type="line" smooth="yes"/>
      <point x="-70" y="-105"/>
      <point x="-56" y="-119"/>
      <point x="-24" y="-119" type="curve" smooth="yes"/>
      <point x="131" y="-119" type="line" smooth="yes"/>
      <point x="145" y="-119"/>
      <point x="156" y="-115"/>
      <point x="162" y="-109" type="curve"/>
    </contour>
  </outline>
</glyph>
<glyph name="Germandbls.v.alt000" format="1">
  <advance width="1000"/>
  <outline>
    <contour>
      <point x="328" y="-80" type="line"/>
      <point x="330" y="-107"/>
      <point x="345" y="-119"/>
      <point x="374" y="-119" type="curve" smooth="yes"/>
      <point x="492" y="-119" type="line" smooth="yes"/>
      <point x="546" y="-119"/>
      <point x="591" y="-103"/>
      <point x="623" y="-77" type="curve" smooth="yes"/>
      <point x="752" y="32" type="line" smooth="yes"/>
      <point x="790" y="63"/>
      <point x="810" y="109"/>
      <point x="810" y="166" type="curve" smooth="yes"/>
      <point x="810" y="289" type="line" smooth="yes"/>
      <point x="810" y="379"/>
      <point x="770" y="431"/>
      <point x="720" y="445" type="curve"/>
      <point x="736" y="527" type="line" smooth="yes"/>
      <point x="759" y="650"/>
      <point x="707" y="730"/>
      <point x="582" y="730" type="curve" smooth="yes"/>
      <point x="236" y="730" type="line" smooth="yes"/>
      <point x="222" y="730"/>
      <point x="212" y="727"/>
      <point x="205" y="721" type="curve" smooth="yes"/>
      <point x="75" y="612" type="line" smooth="yes"/>
      <point x="66" y="604"/>
      <point x="61" y="592"/>
      <point x="61" y="575" type="curve" smooth="yes"/>
      <point x="61" y="-73" type="line" smooth="yes"/>
      <point x="61" y="-105"/>
      <point x="75" y="-119"/>
      <point x="107" y="-119" type="curve" smooth="yes"/>
      <point x="262" y="-119" type="line" smooth="yes"/>
      <point x="276" y="-119"/>
      <point x="287" y="-115"/>
      <point x="293" y="-109" type="curve"/>
    </contour>
  </outline>
</glyph>
<glyph name="Germandbls.v.alt001" format="1">
  <advance width="1000"/>
  <outline>
    <contour>
      <point x="427" y="36" type="curve" smooth="yes"/>
      <point x="427" y="531" type="line"/>
      <point x="486" y="531" type="line" smooth="yes"/>
      <point x="503" y="531"/>
      <point x="507" y="518"/>
      <point x="505" y="503" type="curve" smooth="yes"/>
      <point x="482" y="340" type="line" smooth="yes"/>
      <point x="477" y="303"/>
      <point x="487" y="284"/>
      <point x="519" y="284" type="curve" smooth="yes"/>
      <point x="555" y="284" type="line" smooth="yes"/>
      <point x="571" y="284"/>
      <point x="582" y="277"/>
      <point x="582" y="261" type="curve" smooth="yes"/>
      <point x="582" y="212" type="line" smooth="yes"/>
      <point x="582" y="196"/>
      <point x="571" y="189"/>
      <point x="555" y="189" type="curve" smooth="yes"/>
      <point x="503" y="189" type="line" smooth="yes"/>
      <point x="478" y="189"/>
      <point x="467" y="178"/>
      <point x="467" y="153" type="curve" smooth="yes"/>
      <point x="467" y="36" type="line" smooth="yes"/>
      <point x="467" y="11"/>
      <point x="478" y="0"/>
      <point x="503" y="0" type="curve" smooth="yes"/>
      <point x="621" y="0" type="line" smooth="yes"/>
      <point x="731" y="0"/>
      <point x="800" y="64.0"/>
      <point x="800" y="166" type="curve" smooth="yes"/>
      <point x="800" y="289" type="line" smooth="yes"/>
      <point x="800" y="376.668789809"/>
      <point x="759.915719267" y="428.01458705"/>
      <point x="708" y="437" type="curve"/>
      <point x="726" y="529" type="line" smooth="yes"/>
      <point x="748" y="644"/>
      <point x="700" y="720"/>
      <point x="582" y="720" type="curve" smooth="yes"/>
      <point x="236" y="720" type="line" smooth="yes"/>
      <point x="212" y="720"/>
      <point x="200" y="708"/>
      <point x="200" y="684" type="curve" smooth="yes"/>
      <point x="200" y="36" type="line" smooth="yes"/>
      <point x="200" y="11"/>
      <point x="211" y="0"/>
      <point x="236" y="0" type="curve" smooth="yes"/>
      <point x="391" y="0" type="line" smooth="yes"/>
      <point x="416" y="0"/>
      <point x="427" y="11"/>
    </contour>
  </outline>
</glyph>
<glyph name="Germandbls.v.alt002" format="1">
  <advance width="1000"/>
  <outline>
    <contour>
      <point x="319" y="90" type="line"/>
      <point x="309" y="90" type="line"/>
      <point x="309" y="630" type="line"/>
      <point x="548" y="630" type="line" smooth="yes"/>
      <point x="617" y="630"/>
      <point x="637" y="591"/>
      <point x="622" y="518" type="curve" smooth="yes"/>
      <point x="592" y="374" type="line"/>
      <point x="598" y="374" type="line" smooth="yes"/>
      <point x="663" y="374"/>
      <point x="696" y="345"/>
      <point x="696" y="276" type="curve" smooth="yes"/>
      <point x="696" y="188" type="line" smooth="yes"/>
      <point x="696" y="120"/>
      <point x="667" y="90"/>
      <point x="590" y="90" type="curve" smooth="yes"/>
      <point x="557" y="90" type="line"/>
      <point x="557" y="100" type="line"/>
      <point x="590" y="100" type="line" smooth="yes"/>
      <point x="659" y="100"/>
      <point x="686" y="126"/>
      <point x="686" y="188" type="curve" smooth="yes"/>
      <point x="686" y="276" type="line" smooth="yes"/>
      <point x="686" y="339"/>
      <point x="655" y="364"/>
      <point x="598" y="364" type="curve" smooth="yes"/>
      <point x="578" y="364" type="line"/>
      <point x="612" y="520" type="line"/>
      <point x="630" y="585"/>
      <point x="609" y="620"/>
      <point x="548" y="620" type="curve" smooth="yes"/>
      <point x="319" y="620" type="line"/>
    </contour>
  </outline>
</glyph>
<glyph name="Germandbls.v" format="1">
  <advance width="1000"/>
  <outline>
    <contour>
      <point x="427" y="36" type="curve" smooth="yes"/>
      <point x="427" y="531" type="line"/>
      <point x="486" y="531" type="line" smooth="yes"/>
      <point x="503" y="531"/>
      <point x="507" y="518"/>
      <point x="505" y="503" type="curve" smooth="yes"/>
      <point x="482" y="340" type="line" smooth="yes"/>
      <point x="477" y="303"/>
      <point x="487" y="284"/>
      <point x="519" y="284" type="curve" smooth="yes"/>
      <point x="555" y="284" type="line" smooth="yes"/>
      <point x="571" y="284"/>
      <point x="582" y="277"/>
      <point x="582" y="261" type="curve" smooth="yes"/>
      <point x="582" y="212" type="line" smooth="yes"/>
      <point x="582" y="196"/>
      <point x="571" y="189"/>
      <point x="555" y="189" type="curve" smooth="yes"/>
      <point x="503" y="189" type="line" smooth="yes"/>
      <point x="478" y="189"/>
      <point x="467" y="178"/>
      <point x="467" y="153" type="curve" smooth="yes"/>
      <point x="467" y="36" type="line" smooth="yes"/>
      <point x="467" y="11"/>
      <point x="478" y="0"/>
      <point x="503" y="0" type="curve" smooth="yes"/>
      <point x="621" y="0" type="line" smooth="yes"/>
      <point x="731" y="0"/>
      <point x="800" y="64.0"/>
      <point x="800" y="166" type="curve" smooth="yes"/>
      <point x="800" y="289" type="line" smooth="yes"/>
      <point x="800" y="376.668789809"/>
      <point x="759.915719267" y="428.01458705"/>
      <point x="708" y="437" type="curve"/>
      <point x="726" y="529" type="line" smooth="yes"/>
      <point x="748" y="644"/>
      <point x="700" y="720"/>
      <point x="582" y="720" type="curve" smooth="yes"/>
      <point x="236" y="720" type="line" smooth="yes"/>
      <point x="212" y="720"/>
      <point x="200" y="708"/>
      <point x="200" y="684" type="curve" smooth="yes"/>
      <point x="200" y="36" type="line" smooth="yes"/>
      <point x="200" y="11"/>
      <point x="211" y="0"/>
      <point x="236" y="0" type="curve" smooth="yes"/>
      <point x="391" y="0" type="line" smooth="yes"/>
      <point x="416" y="0"/>
      <point x="427" y="11"/>
    </contour>
  </outline>
</glyph>
<glyph name="H.alt000" format="1">
  <advance width="759"/>
  <outline>
    <contour>
      <point x="292" y="-1" type="line" smooth="yes"/>
      <point x="301" y="7"/>
      <point x="306" y="18"/>
      <point x="306" y="36" type="curve" smooth="yes"/>
      <point x="306" y="139" type="line"/>
      <point x="324" y="139" type="line"/>
      <point x="324" y="-73" type="line" smooth="yes"/>
      <point x="324" y="-105"/>
      <point x="338" y="-119"/>
      <point x="370" y="-119" type="curve" smooth="yes"/>
      <point x="525" y="-119" type="line" smooth="yes"/>
      <point x="539" y="-119"/>
      <point x="550" y="-115"/>
      <point x="556" y="-109" type="curve"/>
      <point x="686" y="-1" type="line" smooth="yes"/>
      <point x="695" y="7"/>
      <point x="700" y="18"/>
      <point x="700" y="36" type="curve" smooth="yes"/>
      <point x="700" y="684" type="line" smooth="yes"/>
      <point x="700" y="716"/>
      <point x="686" y="730"/>
      <point x="654" y="730" type="curve" smooth="yes"/>
      <point x="499" y="730" type="line" smooth="yes"/>
      <point x="485" y="730"/>
      <point x="474" y="727"/>
      <point x="467" y="721" type="curve" smooth="yes"/>
      <point x="338" y="612" type="line" smooth="yes"/>
      <point x="329" y="604"/>
      <point x="324" y="593"/>
      <point x="324" y="575" type="curve" smooth="yes"/>
      <point x="324" y="477" type="line"/>
      <point x="306" y="477" type="line"/>
      <point x="306" y="684" type="line" smooth="yes"/>
      <point x="306" y="716"/>
      <point x="292" y="730"/>
      <point x="260" y="730" type="curve" smooth="yes"/>
      <point x="105" y="730" type="line" smooth="yes"/>
      <point x="91" y="730"/>
      <point x="80" y="727"/>
      <point x="73" y="721" type="curve" smooth="yes"/>
      <point x="-56" y="612" type="line" smooth="yes"/>
      <point x="-65" y="604"/>
      <point x="-70" y="593"/>
      <point x="-70" y="575" type="curve" smooth="yes"/>
      <point x="-70" y="-73" type="line" smooth="yes"/>
      <point x="-70" y="-105"/>
      <point x="-56" y="-119"/>
      <point x="-24" y="-119" type="curve" smooth="yes"/>
      <point x="131" y="-119" type="line" smooth="yes"/>
      <point x="145" y="-119"/>
      <point x="156" y="-115"/>
      <point x="162" y="-109" type="curve"/>
    </contour>
  </outline>
</glyph>
<glyph name="H.s_v.alt000" format="1">
  <advance width="1000"/>
  <outline>
    <contour>
      <point x="423" y="-1" type="line" smooth="yes"/>
      <point x="428" y="3"/>
      <point x="432" y="8"/>
      <point x="434" y="15" type="curve"/>
      <point x="434" y="-73" type="line" smooth="yes"/>
      <point x="434" y="-105"/>
      <point x="448" y="-119"/>
      <point x="480" y="-119" type="curve" smooth="yes"/>
      <point x="635" y="-119" type="line" smooth="yes"/>
      <point x="649" y="-119"/>
      <point x="660" y="-115"/>
      <point x="666" y="-109" type="curve"/>
      <point x="796" y="-1" type="line" smooth="yes"/>
      <point x="805" y="7"/>
      <point x="810" y="18"/>
      <point x="810" y="36" type="curve" smooth="yes"/>
      <point x="810" y="644" type="line" smooth="yes"/>
      <point x="810" y="676"/>
      <point x="796" y="690"/>
      <point x="764" y="690" type="curve" smooth="yes"/>
      <point x="609" y="690" type="line" smooth="yes"/>
      <point x="595" y="690"/>
      <point x="584" y="687"/>
      <point x="577" y="681" type="curve" smooth="yes"/>
      <point x="448" y="572" type="line" smooth="yes"/>
      <point x="443" y="568"/>
      <point x="439" y="563"/>
      <point x="437" y="556" type="curve"/>
      <point x="437" y="644" type="line" smooth="yes"/>
      <point x="437" y="676"/>
      <point x="423" y="690"/>
      <point x="391" y="690" type="curve" smooth="yes"/>
      <point x="236" y="690" type="line" smooth="yes"/>
      <point x="222" y="690"/>
      <point x="211" y="687"/>
      <point x="204" y="681" type="curve" smooth="yes"/>
      <point x="75" y="572" type="line" smooth="yes"/>
      <point x="66" y="564"/>
      <point x="61" y="553"/>
      <point x="61" y="535" type="curve" smooth="yes"/>
      <point x="61" y="-73" type="line" smooth="yes"/>
      <point x="61" y="-105"/>
      <point x="75" y="-119"/>
      <point x="107" y="-119" type="curve" smooth="yes"/>
      <point x="262" y="-119" type="line" smooth="yes"/>
      <point x="276" y="-119"/>
      <point x="287" y="-115"/>
      <point x="293" y="-109" type="curve"/>
    </contour>
  </outline>
</glyph>
<glyph name="Hbar.alt002" format="1">
  <advance width="779"/>
  <outline>
    <contour>
      <point x="120" y="514" type="line"/>
      <point x="659" y="514" type="line"/>
      <point x="659" y="504" type="line"/>
      <point x="120" y="504" type="line"/>
    </contour>
    <contour>
      <point x="191" y="252" type="line"/>
      <point x="588" y="252" type="line"/>
      <point x="588" y="242" type="line"/>
      <point x="191" y="242" type="line"/>
    </contour>
    <contour>
      <point x="593" y="630" type="line"/>
      <point x="593" y="90" type="line"/>
      <point x="583" y="90" type="line"/>
      <point x="583" y="630" type="line"/>
    </contour>
    <contour>
      <point x="196" y="630" type="line"/>
      <point x="196" y="90" type="line"/>
      <point x="186" y="90" type="line"/>
      <point x="186" y="630" type="line"/>
    </contour>
  </outline>
</glyph>
<glyph name="Hbar.v.alt000" format="1">
  <advance width="1000"/>
  <outline>
    <contour>
      <point x="419" y="-1" type="line" smooth="yes"/>
      <point x="427" y="6"/>
      <point x="432" y="15"/>
      <point x="433" y="29" type="curve"/>
      <point x="437" y="29" type="line"/>
      <point x="437" y="-73" type="line" smooth="yes"/>
      <point x="437" y="-105"/>
      <point x="451" y="-119"/>
      <point x="483" y="-119" type="curve" smooth="yes"/>
      <point x="635" y="-119" type="line" smooth="yes"/>
      <point x="649" y="-119"/>
      <point x="660" y="-115"/>
      <point x="666" y="-109" type="curve"/>
      <point x="796" y="-1" type="line" smooth="yes"/>
      <point x="805" y="7"/>
      <point x="810" y="18"/>
      <point x="810" y="36" type="curve" smooth="yes"/>
      <point x="810" y="394" type="line"/>
      <point x="845" y="424" type="line" smooth="yes"/>
      <point x="854" y="432"/>
      <point x="859" y="443"/>
      <point x="859" y="461" type="curve" smooth="yes"/>
      <point x="859" y="558" type="line" smooth="yes"/>
      <point x="859" y="591"/>
      <point x="845" y="604"/>
      <point x="813" y="604" type="curve" smooth="yes"/>
      <point x="810" y="604" type="line"/>
      <point x="810" y="684" type="line" smooth="yes"/>
      <point x="810" y="716"/>
      <point x="796" y="730"/>
      <point x="764" y="730" type="curve" smooth="yes"/>
      <point x="612" y="730" type="line" smooth="yes"/>
      <point x="598" y="730"/>
      <point x="587" y="727"/>
      <point x="580" y="721" type="curve" smooth="yes"/>
      <point x="451" y="612" type="line"/>
      <point x="449" y="610"/>
      <point x="446" y="608"/>
      <point x="444" y="604" type="curve"/>
      <point x="433" y="604" type="line"/>
      <point x="433" y="684" type="line" smooth="yes"/>
      <point x="433" y="716"/>
      <point x="419" y="730"/>
      <point x="387" y="730" type="curve" smooth="yes"/>
      <point x="235" y="730" type="line" smooth="yes"/>
      <point x="221" y="730"/>
      <point x="210" y="727"/>
      <point x="203" y="721" type="curve" smooth="yes"/>
      <point x="74" y="612" type="line" smooth="yes"/>
      <point x="65" y="604"/>
      <point x="60" y="593"/>
      <point x="60" y="575" type="curve" smooth="yes"/>
      <point x="60" y="516" type="line"/>
      <point x="25" y="486" type="line" smooth="yes"/>
      <point x="16" y="478"/>
      <point x="11" y="467"/>
      <point x="11" y="449" type="curve" smooth="yes"/>
      <point x="11" y="352" type="line"/>
      <point x="11" y="319"/>
      <point x="25" y="306"/>
      <point x="57" y="306" type="curve" smooth="yes"/>
      <point x="60" y="306" type="line"/>
      <point x="60" y="-73" type="line" smooth="yes"/>
      <point x="60" y="-105"/>
      <point x="74" y="-119"/>
      <point x="106" y="-119" type="curve" smooth="yes"/>
      <point x="258" y="-119" type="line" smooth="yes"/>
      <point x="272" y="-119"/>
      <point x="283" y="-115"/>
      <point x="289" y="-109" type="curve"/>
    </contour>
  </outline>
</glyph>
<glyph name="IJ.alt000" format="1">
  <advance width="744.0"/>
  <outline>
    <contour>
      <point x="-24" y="-119" type="curve" smooth="yes"/>
      <point x="338" y="-119" type="line" smooth="yes"/>
      <point x="401" y="-119"/>
      <point x="453" y="-101"/>
      <point x="490" y="-70" type="curve" smooth="yes"/>
      <point x="619" y="39" type="line" smooth="yes"/>
      <point x="664" y="77"/>
      <point x="690" y="134"/>
      <point x="690" y="210" type="curve" smooth="yes"/>
      <point x="690" y="684" type="line" smooth="yes"/>
      <point x="690" y="716"/>
      <point x="676" y="730"/>
      <point x="644" y="730" type="curve" smooth="yes"/>
      <point x="489" y="730" type="line" smooth="yes"/>
      <point x="475" y="730"/>
      <point x="464" y="727"/>
      <point x="457" y="721" type="curve" smooth="yes"/>
      <point x="306" y="593" type="line" smooth="yes"/>
      <point x="297" y="585"/>
      <point x="292" y="574"/>
      <point x="292" y="556" type="curve" smooth="yes"/>
      <point x="292" y="203" type="line"/>
      <point x="164" y="203" type="line"/>
      <point x="292" y="309" type="line" smooth="yes"/>
      <point x="301" y="317"/>
      <point x="306" y="328"/>
      <point x="306" y="346" type="curve" smooth="yes"/>
      <point x="306" y="684" type="line" smooth="yes"/>
      <point x="306" y="716"/>
      <point x="292" y="730"/>
      <point x="260" y="730" type="curve" smooth="yes"/>
      <point x="105" y="730" type="line" smooth="yes"/>
      <point x="91" y="730"/>
      <point x="80" y="727"/>
      <point x="73" y="721" type="curve" smooth="yes"/>
      <point x="-56" y="612" type="line" smooth="yes"/>
      <point x="-65" y="604"/>
      <point x="-70" y="593"/>
      <point x="-70" y="575" type="curve" smooth="yes"/>
      <point x="-70" y="237" type="line" smooth="yes"/>
      <point x="-70" y="205"/>
      <point x="-56" y="191"/>
      <point x="-24" y="191" type="curve" smooth="yes"/>
      <point x="69" y="191" type="line"/>
      <point x="-56" y="85" type="line" smooth="yes"/>
      <point x="-65" y="77"/>
      <point x="-70" y="66"/>
      <point x="-70" y="48" type="curve" smooth="yes"/>
      <point x="-70" y="-73" type="line" smooth="yes"/>
      <point x="-70" y="-105"/>
      <point x="-56" y="-119"/>
    </contour>
  </outline>
</glyph>
<glyph name="IJ.v.alt000" format="1">
  <advance width="1000"/>
  <outline>
    <contour>
      <point x="458" y="-119" type="line" smooth="yes"/>
      <point x="521" y="-119"/>
      <point x="573" y="-101"/>
      <point x="610" y="-70" type="curve" smooth="yes"/>
      <point x="739" y="39" type="line" smooth="yes"/>
      <point x="784" y="77"/>
      <point x="810" y="134"/>
      <point x="810" y="210" type="curve" smooth="yes"/>
      <point x="810" y="684" type="line" smooth="yes"/>
      <point x="810" y="716"/>
      <point x="796" y="730"/>
      <point x="764" y="730" type="curve" smooth="yes"/>
      <point x="609" y="730" type="line" smooth="yes"/>
      <point x="595" y="730"/>
      <point x="584" y="727"/>
      <point x="577" y="721" type="curve"/>
      <point x="448" y="612" type="line" smooth="yes"/>
      <point x="437" y="602" type="line"/>
      <point x="437" y="684" type="line" smooth="yes"/>
      <point x="437" y="716"/>
      <point x="423" y="730"/>
      <point x="391" y="730" type="curve" smooth="yes"/>
      <point x="236" y="730" type="line" smooth="yes"/>
      <point x="222" y="730"/>
      <point x="211" y="727"/>
      <point x="204" y="721" type="curve" smooth="yes"/>
      <point x="75" y="612" type="line" smooth="yes"/>
      <point x="66" y="604"/>
      <point x="61" y="593"/>
      <point x="61" y="575" type="curve" smooth="yes"/>
      <point x="61" y="257" type="line" smooth="yes"/>
      <point x="61" y="225"/>
      <point x="75" y="211"/>
      <point x="107" y="211" type="curve" smooth="yes"/>
      <point x="262" y="211" type="line" smooth="yes"/>
      <point x="276" y="211"/>
      <point x="287" y="215"/>
      <point x="293" y="221" type="curve"/>
      <point x="423" y="329" type="line" smooth="yes"/>
      <point x="428" y="333"/>
      <point x="432" y="338"/>
      <point x="434" y="345" type="curve"/>
      <point x="434" y="203" type="line"/>
      <point x="236" y="203" type="line" smooth="yes"/>
      <point x="222" y="203"/>
      <point x="211" y="200"/>
      <point x="204" y="194" type="curve" smooth="yes"/>
      <point x="75" y="85" type="line" smooth="yes"/>
      <point x="66" y="77"/>
      <point x="61" y="66"/>
      <point x="61" y="48" type="curve" smooth="yes"/>
      <point x="61" y="-73" type="line" smooth="yes"/>
      <point x="61" y="-105"/>
      <point x="75" y="-119"/>
      <point x="107" y="-119" type="curve" smooth="yes"/>
    </contour>
    <contour>
      <point x="391" y="330" type="curve" smooth="yes"/>
      <point x="236" y="330" type="line" smooth="yes"/>
      <point x="211" y="330"/>
      <point x="200" y="341"/>
      <point x="200" y="366" type="curve" smooth="yes"/>
      <point x="200" y="684" type="line" smooth="yes"/>
      <point x="200" y="698"/>
      <point x="203" y="707"/>
      <point x="210" y="713" type="curve" smooth="yes"/>
      <point x="216" y="718"/>
      <point x="225" y="720"/>
      <point x="236" y="720" type="curve" smooth="yes"/>
      <point x="391" y="720" type="line" smooth="yes"/>
      <point x="416" y="720"/>
      <point x="427" y="709"/>
      <point x="427" y="684" type="curve" smooth="yes"/>
      <point x="427" y="366" type="line" smooth="yes"/>
      <point x="427" y="352"/>
      <point x="424" y="343"/>
      <point x="417" y="337" type="curve" smooth="yes"/>
      <point x="411" y="332"/>
      <point x="402" y="330"/>
    </contour>
    <contour>
      <point x="200" y="36" type="curve" smooth="yes"/>
      <point x="200" y="157" type="line" smooth="yes"/>
      <point x="200" y="171"/>
      <point x="203" y="180"/>
      <point x="210" y="186" type="curve" smooth="yes"/>
      <point x="216" y="191"/>
      <point x="225" y="193"/>
      <point x="236" y="193" type="curve" smooth="yes"/>
      <point x="500" y="193" type="line" smooth="yes"/>
      <point x="523" y="193"/>
      <point x="541" y="198"/>
      <point x="554" y="208" type="curve" smooth="yes"/>
      <point x="566" y="219"/>
      <point x="573" y="235"/>
      <point x="573" y="260" type="curve" smooth="yes"/>
      <point x="573" y="684" type="line" smooth="yes"/>
      <point x="573" y="698"/>
      <point x="576" y="707"/>
      <point x="583" y="713" type="curve" smooth="yes"/>
      <point x="589" y="718"/>
      <point x="598" y="720"/>
      <point x="609" y="720" type="curve" smooth="yes"/>
      <point x="764" y="720" type="line" smooth="yes"/>
      <point x="789" y="720"/>
      <point x="800" y="709"/>
      <point x="800" y="684" type="curve" smooth="yes"/>
      <point x="800" y="210" type="line" smooth="yes"/>
      <point x="800" y="138"/>
      <point x="776" y="83"/>
      <point x="733" y="47" type="curve" smooth="yes"/>
      <point x="697" y="16"/>
      <point x="647" y="0"/>
      <point x="587" y="0" type="curve" smooth="yes"/>
      <point x="236" y="0" type="line" smooth="yes"/>
      <point x="211" y="0"/>
      <point x="200" y="11"/>
    </contour>
  </outline>
</glyph>
<glyph name="I.salt.alt002" format="1">
  <advance width="371.0"/>
  <outline>
    <contour>
      <point x="181" y="630" type="line"/>
      <point x="181" y="90" type="line"/>
      <point x="191" y="90" type="line"/>
      <point x="191" y="630" type="line"/>
    </contour>
  </outline>
</glyph>
<glyph name="I.salt_s_v.alt000" format="1">
  <advance width="1000"/>
  <outline>
    <contour>
      <point x="450" y="-119" type="line" smooth="yes"/>
      <point x="464" y="-119"/>
      <point x="475" y="-115"/>
      <point x="481" y="-109" type="curve"/>
      <point x="611" y="-1" type="line" smooth="yes"/>
      <point x="620" y="7"/>
      <point x="625" y="18"/>
      <point x="625" y="36" type="curve" smooth="yes"/>
      <point x="625" y="644" type="line" smooth="yes"/>
      <point x="625" y="676"/>
      <point x="611" y="690"/>
      <point x="579" y="690" type="curve" smooth="yes"/>
      <point x="420" y="690" type="line" smooth="yes"/>
      <point x="406" y="690"/>
      <point x="395" y="687"/>
      <point x="388" y="681" type="curve" smooth="yes"/>
      <point x="259" y="572" type="line" smooth="yes"/>
      <point x="250" y="564"/>
      <point x="245" y="553"/>
      <point x="245" y="535" type="curve" smooth="yes"/>
      <point x="245" y="-73" type="line" smooth="yes"/>
      <point x="245" y="-105"/>
      <point x="259" y="-119"/>
      <point x="291" y="-119" type="curve" smooth="yes"/>
    </contour>
  </outline>
</glyph>
<glyph name="I.v.alt001" format="1">
  <advance width="1000"/>
  <outline>
    <contour>
      <point x="245" y="0" type="curve" smooth="yes"/>
      <point x="755" y="0" type="line" smooth="yes"/>
      <point x="780" y="0"/>
      <point x="791" y="11"/>
      <point x="791" y="36" type="curve" smooth="yes"/>
      <point x="791" y="155" type="line" smooth="yes"/>
      <point x="791" y="180"/>
      <point x="780" y="191"/>
      <point x="755" y="191" type="curve" smooth="yes"/>
      <point x="621" y="191" type="line"/>
      <point x="621" y="527" type="line"/>
      <point x="755" y="527" type="line" smooth="yes"/>
      <point x="780" y="527"/>
      <point x="791" y="538"/>
      <point x="791" y="563" type="curve" smooth="yes"/>
      <point x="791" y="684" type="line" smooth="yes"/>
      <point x="791" y="709"/>
      <point x="780" y="720"/>
      <point x="755" y="720" type="curve" smooth="yes"/>
      <point x="245" y="720" type="line" smooth="yes"/>
      <point x="220" y="720"/>
      <point x="209" y="709"/>
      <point x="209" y="684" type="curve"/>
      <point x="209" y="563" type="line"/>
      <point x="209" y="538"/>
      <point x="220" y="527"/>
      <point x="245" y="527" type="curve" smooth="yes"/>
      <point x="379" y="527" type="line"/>
      <point x="379" y="191" type="line"/>
      <point x="245" y="191" type="line" smooth="yes"/>
      <point x="220" y="191"/>
      <point x="209" y="180"/>
      <point x="209" y="155" type="curve"/>
      <point x="209" y="36" type="line"/>
      <point x="209" y="11"/>
      <point x="220" y="0"/>
    </contour>
  </outline>
</glyph>
<glyph name="I_I.salt_v.alt000" format="1">
  <advance width="1000"/>
  <outline>
    <contour>
      <point x="423" y="-1" type="line" smooth="yes"/>
      <point x="428" y="3"/>
      <point x="432" y="8"/>
      <point x="434" y="15" type="curve"/>
      <point x="434" y="-73" type="line" smooth="yes"/>
      <point x="434" y="-105"/>
      <point x="448" y="-119"/>
      <point x="480" y="-119" type="curve" smooth="yes"/>
      <point x="635" y="-119" type="line" smooth="yes"/>
      <point x="649" y="-119"/>
      <point x="660" y="-115"/>
      <point x="666" y="-109" type="curve"/>
      <point x="796" y="-1" type="line" smooth="yes"/>
      <point x="805" y="7"/>
      <point x="810" y="18"/>
      <point x="810" y="36" type="curve" smooth="yes"/>
      <point x="810" y="684" type="line" smooth="yes"/>
      <point x="810" y="716"/>
      <point x="796" y="730"/>
      <point x="764" y="730" type="curve" smooth="yes"/>
      <point x="609" y="730" type="line" smooth="yes"/>
      <point x="595" y="730"/>
      <point x="584" y="727"/>
      <point x="577" y="721" type="curve" smooth="yes"/>
      <point x="448" y="612" type="line" smooth="yes"/>
      <point x="443" y="608"/>
      <point x="439" y="603"/>
      <point x="437" y="596" type="curve"/>
      <point x="437" y="684" type="line" smooth="yes"/>
      <point x="437" y="716"/>
      <point x="423" y="730"/>
      <point x="391" y="730" type="curve" smooth="yes"/>
      <point x="236" y="730" type="line" smooth="yes"/>
      <point x="222" y="730"/>
      <point x="211" y="727"/>
      <point x="204" y="721" type="curve" smooth="yes"/>
      <point x="75" y="612" type="line" smooth="yes"/>
      <point x="66" y="604"/>
      <point x="61" y="593"/>
      <point x="61" y="575" type="curve" smooth="yes"/>
      <point x="61" y="-73" type="line" smooth="yes"/>
      <point x="61" y="-105"/>
      <point x="75" y="-119"/>
      <point x="107" y="-119" type="curve" smooth="yes"/>
      <point x="262" y="-119" type="line" smooth="yes"/>
      <point x="276" y="-119"/>
      <point x="287" y="-115"/>
      <point x="293" y="-109" type="curve"/>
    </contour>
  </outline>
</glyph>
<glyph name="Igrave.salt.alt000" format="1">
  <advance width="371.0"/>
  <outline>
    <contour>
      <point x="215" y="634" type="line" smooth="yes"/>
      <point x="228" y="632"/>
      <point x="239" y="636"/>
      <point x="246" y="642" type="curve" smooth="yes"/>
      <point x="375" y="750" type="line" smooth="yes"/>
      <point x="384" y="758"/>
      <point x="389" y="769"/>
      <point x="389" y="786" type="curve" smooth="yes"/>
      <point x="389" y="882" type="line" smooth="yes"/>
      <point x="389" y="913"/>
      <point x="376" y="924"/>
      <point x="344" y="928" type="curve" smooth="yes"/>
      <point x="23" y="969" type="line" smooth="yes"/>
      <point x="10" y="971"/>
      <point x="-1" y="968"/>
      <point x="-8" y="962" type="curve" smooth="yes"/>
      <point x="-137" y="853" type="line" smooth="yes"/>
      <point x="-146" y="845"/>
      <point x="-151" y="834"/>
      <point x="-151" y="817" type="curve" smooth="yes"/>
      <point x="-151" y="721" type="line" smooth="yes"/>
      <point x="-151" y="690"/>
      <point x="-138" y="679"/>
      <point x="-106" y="675" type="curve"/>
      <point x="-106" y="675" type="line"/>
    </contour>
    <component base="I.salt.alt000"/>
  </outline>
</glyph>
<glyph name="Igrave.salt.alt002" format="1">
  <advance width="371.0"/>
  <outline>
    <contour>
      <point x="80" y="875" type="line"/>
      <point x="289" y="849" type="line"/>
      <point x="289" y="839" type="line"/>
      <point x="80" y="865" type="line"/>
    </contour>
    <component base="I.salt.alt002"/>
    <contour>
      <point x="185.0" y="747.0" type="move" name="top"/>
    </contour>
    <contour>
      <point x="185.0" y="0.0" type="move" name="bottom"/>
    </contour>
  </outline>
</glyph>
<glyph name="Iicyrillic.scrap_beta.alt001" format="1">
  <advance width="753"/>
  <outline>
    <contour>
      <point x="291" y="36" type="curve" smooth="yes"/>
      <point x="291" y="99" type="line"/>
      <point x="462" y="306" type="line"/>
      <point x="462" y="36" type="line" smooth="yes"/>
      <point x="462" y="11"/>
      <point x="473" y="0"/>
      <point x="498" y="0" type="curve" smooth="yes"/>
      <point x="648" y="0" type="line" smooth="yes"/>
      <point x="673" y="0"/>
      <point x="684" y="11"/>
      <point x="684" y="36" type="curve" smooth="yes"/>
      <point x="684" y="684" type="line" smooth="yes"/>
      <point x="684" y="709"/>
      <point x="673" y="720"/>
      <point x="648" y="720" type="curve" smooth="yes"/>
      <point x="498" y="720" type="line" smooth="yes"/>
      <point x="473" y="720"/>
      <point x="462" y="709"/>
      <point x="462" y="684" type="curve" smooth="yes"/>
      <point x="462" y="607" type="line"/>
      <point x="291" y="411" type="line"/>
      <point x="291" y="684" type="line" smooth="yes"/>
      <point x="291" y="709"/>
      <point x="280" y="720"/>
      <point x="255" y="720" type="curve" smooth="yes"/>
      <point x="105" y="720" type="line" smooth="yes"/>
      <point x="80" y="720"/>
      <point x="69" y="709"/>
      <point x="69" y="684" type="curve" smooth="yes"/>
      <point x="69" y="36" type="line" smooth="yes"/>
      <point x="69" y="11"/>
      <point x="80" y="0"/>
      <point x="105" y="0" type="curve" smooth="yes"/>
      <point x="255" y="0" type="line" smooth="yes"/>
      <point x="280" y="0"/>
      <point x="291" y="11"/>
    </contour>
    <contour>
      <point x="377.0" y="747.0" type="move" name="top"/>
    </contour>
    <contour>
      <point x="377.0" y="0.0" type="move" name="bottom"/>
    </contour>
  </outline>
</glyph>
<glyph name="Iicyrillic.scrap_beta" format="1">
  <advance width="753"/>
  <outline>
    <contour>
      <point x="291" y="36" type="curve" smooth="yes"/>
      <point x="291" y="99" type="line"/>
      <point x="462" y="306" type="line"/>
      <point x="462" y="36" type="line" smooth="yes"/>
      <point x="462" y="11"/>
      <point x="473" y="0"/>
      <point x="498" y="0" type="curve" smooth="yes"/>
      <point x="648" y="0" type="line" smooth="yes"/>
      <point x="673" y="0"/>
      <point x="684" y="11"/>
      <point x="684" y="36" type="curve" smooth="yes"/>
      <point x="684" y="684" type="line" smooth="yes"/>
      <point x="684" y="709"/>
      <point x="673" y="720"/>
      <point x="648" y="720" type="curve" smooth="yes"/>
      <point x="498" y="720" type="line" smooth="yes"/>
      <point x="473" y="720"/>
      <point x="462" y="709"/>
      <point x="462" y="684" type="curve" smooth="yes"/>
      <point x="462" y="607" type="line"/>
      <point x="291" y="411" type="line"/>
      <point x="291" y="684" type="line" smooth="yes"/>
      <point x="291" y="709"/>
      <point x="280" y="720"/>
      <point x="255" y="720" type="curve" smooth="yes"/>
      <point x="105" y="720" type="line" smooth="yes"/>
      <point x="80" y="720"/>
      <point x="69" y="709"/>
      <point x="69" y="684" type="curve" smooth="yes"/>
      <point x="69" y="36" type="line" smooth="yes"/>
      <point x="69" y="11"/>
      <point x="80" y="0"/>
      <point x="105" y="0" type="curve" smooth="yes"/>
      <point x="255" y="0" type="line" smooth="yes"/>
      <point x="280" y="0"/>
      <point x="291" y="11"/>
    </contour>
    <contour>
      <point x="377.0" y="747.0" type="move" name="top"/>
    </contour>
    <contour>
      <point x="377.0" y="0.0" type="move" name="bottom"/>
    </contour>
  </outline>
</glyph>
<glyph name="J.s_v.alt001" format="1">
  <advance width="1000"/>
  <outline>
    <contour>
      <point x="800" y="189" type="curve" smooth="yes"/>
      <point x="800" y="644" type="line" smooth="yes"/>
      <point x="800" y="669"/>
      <point x="789" y="680"/>
      <point x="764" y="680" type="curve" smooth="yes"/>
      <point x="607" y="680" type="line" smooth="yes"/>
      <point x="582" y="680"/>
      <point x="571" y="669"/>
      <point x="571" y="644" type="curve" smooth="yes"/>
      <point x="571" y="229" type="line" smooth="yes"/>
      <point x="571" y="202"/>
      <point x="562" y="182"/>
      <point x="495" y="182" type="curve" smooth="yes"/>
      <point x="424" y="182"/>
      <point x="417" y="202"/>
      <point x="417" y="229" type="curve" smooth="yes"/>
      <point x="417" y="351" type="line" smooth="yes"/>
      <point x="417" y="377"/>
      <point x="406" y="387"/>
      <point x="381" y="387" type="curve" smooth="yes"/>
      <point x="236" y="387" type="line" smooth="yes"/>
      <point x="211" y="387"/>
      <point x="200" y="377"/>
      <point x="200" y="351" type="curve" smooth="yes"/>
      <point x="200" y="189" type="line" smooth="yes"/>
      <point x="200" y="67"/>
      <point x="256" y="-15"/>
      <point x="497" y="-15" type="curve" smooth="yes"/>
      <point x="740" y="-15"/>
      <point x="800" y="67"/>
    </contour>
  </outline>
</glyph>
<glyph name="K.v.alt000" format="1">
  <advance width="1000"/>
  <outline>
    <contour>
      <point x="424" y="-1" type="line" smooth="yes"/>
      <point x="430" y="4"/>
      <point x="434" y="10"/>
      <point x="436" y="18" type="curve"/>
      <point x="436" y="-73" type="line" smooth="yes"/>
      <point x="436" y="-105"/>
      <point x="450" y="-119"/>
      <point x="482" y="-119" type="curve" smooth="yes"/>
      <point x="636" y="-119" type="line" smooth="yes"/>
      <point x="650" y="-119"/>
      <point x="661" y="-115"/>
      <point x="667" y="-109" type="curve"/>
      <point x="797" y="-1" type="line" smooth="yes"/>
      <point x="806" y="7"/>
      <point x="811" y="18"/>
      <point x="811" y="36" type="curve" smooth="yes"/>
      <point x="811" y="318" type="line" smooth="yes"/>
      <point x="811" y="399"/>
      <point x="765" y="453"/>
      <point x="693" y="463" type="curve"/>
      <point x="789" y="683" type="line" smooth="yes"/>
      <point x="802" y="713"/>
      <point x="791" y="730"/>
      <point x="758" y="730" type="curve" smooth="yes"/>
      <point x="604" y="730" type="line" smooth="yes"/>
      <point x="586" y="730"/>
      <point x="573" y="726"/>
      <point x="563" y="718" type="curve" smooth="yes"/>
      <point x="438" y="612" type="line"/>
      <point x="438" y="684" type="line" smooth="yes"/>
      <point x="438" y="716"/>
      <point x="424" y="730"/>
      <point x="392" y="730" type="curve" smooth="yes"/>
      <point x="237" y="730" type="line" smooth="yes"/>
      <point x="223" y="730"/>
      <point x="212" y="727"/>
      <point x="205" y="721" type="curve" smooth="yes"/>
      <point x="76" y="612" type="line" smooth="yes"/>
      <point x="67" y="604"/>
      <point x="62" y="593"/>
      <point x="62" y="575" type="curve" smooth="yes"/>
      <point x="62" y="-73" type="line" smooth="yes"/>
      <point x="62" y="-105"/>
      <point x="76" y="-119"/>
      <point x="108" y="-119" type="curve" smooth="yes"/>
      <point x="263" y="-119" type="line" smooth="yes"/>
      <point x="277" y="-119"/>
      <point x="288" y="-115"/>
      <point x="294" y="-109" type="curve"/>
    </contour>
  </outline>
</glyph>
<glyph name="L.s_v.alt001" format="1">
  <advance width="1000"/>
  <outline>
    <contour>
      <point x="764" y="0" type="line" smooth="yes"/>
      <point x="789" y="0"/>
      <point x="800" y="11"/>
      <point x="800" y="36" type="curve" smooth="yes"/>
      <point x="800" y="341" type="line" smooth="yes"/>
      <point x="800" y="366"/>
      <point x="789" y="377"/>
      <point x="764" y="377" type="curve" smooth="yes"/>
      <point x="619" y="377" type="line" smooth="yes"/>
      <point x="594" y="377"/>
      <point x="583" y="366"/>
      <point x="583" y="341" type="curve" smooth="yes"/>
      <point x="583" y="189" type="line"/>
      <point x="427" y="189" type="line"/>
      <point x="427" y="644" type="line" smooth="yes"/>
      <point x="427" y="669"/>
      <point x="416" y="680"/>
      <point x="391" y="680" type="curve" smooth="yes"/>
      <point x="236" y="680" type="line" smooth="yes"/>
      <point x="211" y="680"/>
      <point x="200" y="669"/>
      <point x="200" y="644" type="curve" smooth="yes"/>
      <point x="200" y="36" type="line" smooth="yes"/>
      <point x="200" y="11"/>
      <point x="211" y="0"/>
      <point x="236" y="0" type="curve" smooth="yes"/>
    </contour>
  </outline>
</glyph>
<glyph name="Ldot.v.alt000" format="1">
  <advance width="1000"/>
  <outline>
    <contour>
      <point x="467" y="-339" type="line" smooth="yes"/>
      <point x="481" y="-339"/>
      <point x="492" y="-335"/>
      <point x="498" y="-329" type="curve"/>
      <point x="628" y="-221" type="line" smooth="yes"/>
      <point x="637" y="-213"/>
      <point x="642" y="-202"/>
      <point x="642" y="-184" type="curve" smooth="yes"/>
      <point x="642" y="-79" type="line"/>
      <point x="653" y="-77"/>
      <point x="661" y="-74"/>
      <point x="667" y="-68" type="curve"/>
      <point x="796" y="39" type="line" smooth="yes"/>
      <point x="805" y="47"/>
      <point x="810" y="58"/>
      <point x="810" y="76" type="curve" smooth="yes"/>
      <point x="810" y="381" type="line" smooth="yes"/>
      <point x="810" y="413"/>
      <point x="796" y="427"/>
      <point x="764" y="427" type="curve" smooth="yes"/>
      <point x="619" y="427" type="line" smooth="yes"/>
      <point x="605" y="427"/>
      <point x="594" y="424"/>
      <point x="587" y="418" type="curve" smooth="yes"/>
      <point x="461" y="310" type="line" smooth="yes"/>
      <point x="452" y="302"/>
      <point x="447" y="291"/>
      <point x="447" y="273" type="curve" smooth="yes"/>
      <point x="447" y="239" type="line"/>
      <point x="437" y="239" type="line"/>
      <point x="437" y="684" type="line" smooth="yes"/>
      <point x="437" y="716"/>
      <point x="423" y="730"/>
      <point x="391" y="730" type="curve" smooth="yes"/>
      <point x="236" y="730" type="line" smooth="yes"/>
      <point x="222" y="730"/>
      <point x="211" y="727"/>
      <point x="204" y="721" type="curve" smooth="yes"/>
      <point x="75" y="612" type="line" smooth="yes"/>
      <point x="66" y="604"/>
      <point x="61" y="593"/>
      <point x="61" y="575" type="curve" smooth="yes"/>
      <point x="61" y="-33" type="line" smooth="yes"/>
      <point x="61" y="-65"/>
      <point x="75" y="-79"/>
      <point x="107" y="-79" type="curve" smooth="yes"/>
      <point x="336" y="-79" type="line"/>
      <point x="277" y="-129" type="line" smooth="yes"/>
      <point x="268" y="-137"/>
      <point x="263" y="-148"/>
      <point x="263" y="-166" type="curve" smooth="yes"/>
      <point x="263" y="-293" type="line" smooth="yes"/>
      <point x="263" y="-325"/>
      <point x="277" y="-339"/>
      <point x="309" y="-339" type="curve" smooth="yes"/>
    </contour>
    <contour>
      <point x="764" y="40" type="curve" smooth="yes"/>
      <point x="236" y="40" type="line" smooth="yes"/>
      <point x="211" y="40"/>
      <point x="200" y="51"/>
      <point x="200" y="76" type="curve" smooth="yes"/>
      <point x="200" y="684" type="line" smooth="yes"/>
      <point x="200" y="698"/>
      <point x="203" y="707"/>
      <point x="210" y="713" type="curve" smooth="yes"/>
      <point x="216" y="718"/>
      <point x="225" y="720"/>
      <point x="236" y="720" type="curve" smooth="yes"/>
      <point x="391" y="720" type="line" smooth="yes"/>
      <point x="416" y="720"/>
      <point x="427" y="709"/>
      <point x="427" y="684" type="curve" smooth="yes"/>
      <point x="427" y="229" type="line"/>
      <point x="583" y="229" type="line"/>
      <point x="583" y="381" type="line" smooth="yes"/>
      <point x="583" y="395"/>
      <point x="586" y="404"/>
      <point x="593" y="410" type="curve" smooth="yes"/>
      <point x="599" y="415"/>
      <point x="608" y="417"/>
      <point x="619" y="417" type="curve" smooth="yes"/>
      <point x="764" y="417" type="line" smooth="yes"/>
      <point x="789" y="417"/>
      <point x="800" y="406"/>
      <point x="800" y="381" type="curve" smooth="yes"/>
      <point x="800" y="76" type="line" smooth="yes"/>
      <point x="800" y="62"/>
      <point x="797" y="53"/>
      <point x="790" y="47" type="curve" smooth="yes"/>
      <point x="784" y="42"/>
      <point x="775" y="40"/>
    </contour>
    <contour>
      <point x="596" y="-220" type="curve" smooth="yes"/>
      <point x="438" y="-220" type="line" smooth="yes"/>
      <point x="413" y="-220"/>
      <point x="402" y="-209"/>
      <point x="402" y="-184" type="curve" smooth="yes"/>
      <point x="402" y="-57" type="line" smooth="yes"/>
      <point x="402" y="-43"/>
      <point x="405" y="-34"/>
      <point x="412" y="-28" type="curve" smooth="yes"/>
      <point x="418" y="-23"/>
      <point x="427" y="-21"/>
      <point x="438" y="-21" type="curve" smooth="yes"/>
      <point x="596" y="-21" type="line" smooth="yes"/>
      <point x="621" y="-21"/>
      <point x="632" y="-32"/>
      <point x="632" y="-57" type="curve" smooth="yes"/>
      <point x="632" y="-184" type="line" smooth="yes"/>
      <point x="632" y="-198"/>
      <point x="629" y="-207"/>
      <point x="622" y="-213" type="curve" smooth="yes"/>
      <point x="616" y="-218"/>
      <point x="607" y="-220"/>
    </contour>
    <component base="L.s_v.alt000" yOffset="40"/>
  </outline>
</glyph>
<glyph name="Ldot.v" format="1">
  <advance width="1000"/>
  <outline>
    <contour>
      <point x="596" y="-220" type="line" smooth="yes"/>
      <point x="621" y="-220"/>
      <point x="632" y="-209"/>
      <point x="632" y="-184" type="curve" smooth="yes"/>
      <point x="632" y="-57" type="line" smooth="yes"/>
      <point x="632" y="-32"/>
      <point x="621" y="-21"/>
      <point x="596" y="-21" type="curve" smooth="yes"/>
      <point x="438" y="-21" type="line" smooth="yes"/>
      <point x="413" y="-21"/>
      <point x="402" y="-32"/>
      <point x="402" y="-57" type="curve" smooth="yes"/>
      <point x="402" y="-184" type="line" smooth="yes"/>
      <point x="402" y="-209"/>
      <point x="413" y="-220"/>
      <point x="438" y="-220" type="curve" smooth="yes"/>
    </contour>
    <component base="L.s_v" yOffset="40"/>
  </outline>
</glyph>
<glyph name="Lslash.alt001" format="1">
  <advance width="705"/>
  <outline>
    <contour>
      <point x="20" y="428" type="curve" smooth="yes"/>
      <point x="20" y="321" type="line" smooth="yes"/>
      <point x="20" y="295"/>
      <point x="31" y="281"/>
      <point x="56" y="285" type="curve" smooth="yes"/>
      <point x="364" y="335" type="line" smooth="yes"/>
      <point x="389" y="339"/>
      <point x="400" y="345"/>
      <point x="400" y="371" type="curve" smooth="yes"/>
      <point x="400" y="478" type="line" smooth="yes"/>
      <point x="400" y="504"/>
      <point x="389" y="518"/>
      <point x="364" y="514" type="curve" smooth="yes"/>
      <point x="56" y="464" type="line" smooth="yes"/>
      <point x="31" y="460"/>
      <point x="20" y="453"/>
    </contour>
  </outline>
</glyph>
<glyph name="Lslash.alt002" format="1">
  <advance width="705"/>
  <outline>
    <contour>
      <point x="110" y="388" type="line"/>
      <point x="310" y="421" type="line"/>
      <point x="310" y="411" type="line"/>
      <point x="110" y="378" type="line"/>
    </contour>
    <component base="L.alt002" xOffset="10"/>
  </outline>
</glyph>
<glyph name="Lslash.v.alt000" format="1">
  <advance width="1000"/>
  <outline>
    <contour>
      <point x="384" y="216" type="line" smooth="yes"/>
      <point x="402" y="219"/>
      <point x="409" y="221"/>
      <point x="418" y="229" type="curve" smooth="yes"/>
      <point x="545" y="335" type="line" smooth="yes"/>
      <point x="555" y="343"/>
      <point x="557" y="357"/>
      <point x="557" y="371" type="curve" smooth="yes"/>
      <point x="557" y="476" type="line" smooth="yes"/>
      <point x="557" y="511"/>
      <point x="541" y="527"/>
      <point x="509" y="522" type="curve" smooth="yes"/>
      <point x="201" y="472" type="line" smooth="yes"/>
      <point x="183" y="469"/>
      <point x="176" y="466"/>
      <point x="167" y="458" type="curve" smooth="yes"/>
      <point x="41" y="354" type="line" smooth="yes"/>
      <point x="31" y="346"/>
      <point x="28" y="333"/>
      <point x="28" y="319" type="curve" smooth="yes"/>
      <point x="28" y="212" type="line"/>
      <point x="28" y="177"/>
      <point x="44" y="161"/>
      <point x="76" y="166" type="curve" smooth="yes"/>
    </contour>
    <component base="L.v.alt000"/>
  </outline>
</glyph>
<glyph name="Lslash.v.alt001" format="1">
  <advance width="1000"/>
  <outline>
    <contour>
      <point x="167" y="426" type="curve" smooth="yes"/>
      <point x="167" y="319" type="line" smooth="yes"/>
      <point x="167" y="293"/>
      <point x="178" y="279"/>
      <point x="203" y="283" type="curve" smooth="yes"/>
      <point x="511" y="333" type="line" smooth="yes"/>
      <point x="536" y="337"/>
      <point x="547" y="343"/>
      <point x="547" y="369" type="curve" smooth="yes"/>
      <point x="547" y="476" type="line" smooth="yes"/>
      <point x="547" y="502"/>
      <point x="536" y="516"/>
      <point x="511" y="512" type="curve" smooth="yes"/>
      <point x="203" y="462" type="line" smooth="yes"/>
      <point x="178" y="458"/>
      <point x="167" y="451"/>
    </contour>
  </outline>
</glyph>
<glyph name="Lslash.v.alt002" format="1">
  <advance width="1000"/>
  <outline>
    <contour>
      <point x="250" y="385" type="line"/>
      <point x="450" y="418" type="line"/>
      <point x="450" y="408" type="line"/>
      <point x="250" y="375" type="line"/>
    </contour>
    <component base="L.v.alt002"/>
  </outline>
</glyph>
<glyph name="M.salt.alt002" format="1">
  <advance width="1070"/>
  <outline>
    <contour>
      <point x="539" y="90" type="line"/>
      <point x="539" y="507" type="line" smooth="yes"/>
      <point x="539" y="588"/>
      <point x="498" y="642"/>
      <point x="351" y="642" type="curve" smooth="yes"/>
      <point x="204" y="642"/>
      <point x="161" y="588"/>
      <point x="161" y="507" type="curve" smooth="yes"/>
      <point x="161" y="90" type="line"/>
      <point x="171" y="90" type="line"/>
      <point x="171" y="507" type="line" smooth="yes"/>
      <point x="171" y="582"/>
      <point x="212" y="632"/>
      <point x="351" y="632" type="curve" smooth="yes"/>
      <point x="490" y="632"/>
      <point x="530" y="582"/>
      <point x="530" y="507" type="curve" smooth="yes"/>
      <point x="530" y="90" type="line"/>
    </contour>
    <contour>
      <point x="909" y="90" type="line"/>
      <point x="909" y="507" type="line" smooth="yes"/>
      <point x="909" y="588"/>
      <point x="867" y="642"/>
      <point x="720" y="642" type="curve" smooth="yes"/>
      <point x="573" y="642"/>
      <point x="531" y="588"/>
      <point x="531" y="507" type="curve" smooth="yes"/>
      <point x="531" y="90" type="line"/>
      <point x="540" y="90" type="line"/>
      <point x="540" y="507" type="line" smooth="yes"/>
      <point x="540" y="582"/>
      <point x="581" y="632"/>
      <point x="720" y="632" type="curve" smooth="yes"/>
      <point x="859" y="632"/>
      <point x="899" y="582"/>
      <point x="899" y="507" type="curve" smooth="yes"/>
      <point x="899" y="90" type="line"/>
    </contour>
  </outline>
</glyph>
<glyph name="M.v.alt000" format="1">
  <advance width="1000"/>
  <outline>
    <contour>
      <point x="379" y="-1" type="line" smooth="yes"/>
      <point x="388" y="7"/>
      <point x="393" y="18"/>
      <point x="393" y="36" type="curve" smooth="yes"/>
      <point x="394" y="112" type="line"/>
      <point x="404" y="114"/>
      <point x="412" y="118"/>
      <point x="419" y="125" type="curve"/>
      <point x="457" y="157" type="line"/>
      <point x="461" y="-73" type="line"/>
      <point x="461" y="-105"/>
      <point x="475" y="-119"/>
      <point x="507" y="-119" type="curve" smooth="yes"/>
      <point x="658" y="-119" type="line" smooth="yes"/>
      <point x="671" y="-119"/>
      <point x="682" y="-115"/>
      <point x="690" y="-110" type="curve" smooth="yes"/>
      <point x="690" y="-110" type="line"/>
      <point x="819" y="-1" type="line" smooth="yes"/>
      <point x="828" y="7"/>
      <point x="833" y="18"/>
      <point x="833" y="36" type="curve" smooth="yes"/>
      <point x="829" y="684" type="line" smooth="yes"/>
      <point x="829" y="716"/>
      <point x="816" y="730"/>
      <point x="783" y="730" type="curve" smooth="yes"/>
      <point x="643" y="730" type="line" smooth="yes"/>
      <point x="622" y="730"/>
      <point x="607" y="725"/>
      <point x="595" y="714" type="curve" smooth="yes"/>
      <point x="466" y="607" type="line"/>
      <point x="465" y="606" type="line"/>
      <point x="465" y="606" type="line" smooth="yes"/>
      <point x="464" y="605"/>
      <point x="462" y="603"/>
      <point x="461" y="602" type="curve"/>
      <point x="424" y="694" type="line"/>
      <point x="424" y="695" type="line" smooth="yes"/>
      <point x="409" y="721"/>
      <point x="380" y="730"/>
      <point x="350" y="730" type="curve" smooth="yes"/>
      <point x="219" y="730" type="line" smooth="yes"/>
      <point x="205" y="730"/>
      <point x="194" y="727"/>
      <point x="187" y="721" type="curve" smooth="yes"/>
      <point x="58" y="612" type="line" smooth="yes"/>
      <point x="49" y="604"/>
      <point x="44" y="593"/>
      <point x="44" y="575" type="curve"/>
      <point x="40" y="-73" type="line" smooth="yes"/>
      <point x="40" y="-105"/>
      <point x="54" y="-119"/>
      <point x="86" y="-119" type="curve" smooth="yes"/>
      <point x="218" y="-119" type="line" smooth="yes"/>
      <point x="232" y="-119"/>
      <point x="243" y="-115"/>
      <point x="249" y="-109" type="curve"/>
    </contour>
  </outline>
</glyph>
<glyph name="N.salt.alt000" format="1">
  <advance width="746"/>
  <outline>
    <contour>
      <point x="155" y="-110" type="curve" smooth="yes"/>
      <point x="155" y="-110" type="line"/>
      <point x="284" y="-1" type="line" smooth="yes"/>
      <point x="293" y="7"/>
      <point x="298" y="18"/>
      <point x="298" y="36" type="curve" smooth="yes"/>
      <point x="298" y="412" type="line"/>
      <point x="310" y="405"/>
      <point x="314" y="395"/>
      <point x="314" y="383" type="curve" smooth="yes"/>
      <point x="314" y="-73" type="line" smooth="yes"/>
      <point x="314" y="-105"/>
      <point x="328" y="-119"/>
      <point x="360" y="-119" type="curve" smooth="yes"/>
      <point x="517" y="-119" type="line" smooth="yes"/>
      <point x="531" y="-119"/>
      <point x="542" y="-115"/>
      <point x="548" y="-109" type="curve"/>
      <point x="678" y="-1" type="line" smooth="yes"/>
      <point x="687" y="7"/>
      <point x="692" y="18"/>
      <point x="692" y="36" type="curve" smooth="yes"/>
      <point x="692" y="531" type="line" smooth="yes"/>
      <point x="692" y="657"/>
      <point x="633" y="745"/>
      <point x="373" y="745" type="curve" smooth="yes"/>
      <point x="240" y="745"/>
      <point x="161" y="722"/>
      <point x="114" y="683" type="curve" smooth="yes"/>
      <point x="-15" y="574" type="line" smooth="yes"/>
      <point x="-60" y="537"/>
      <point x="-75" y="484"/>
      <point x="-75" y="422" type="curve" smooth="yes"/>
      <point x="-75" y="-73" type="line" smooth="yes"/>
      <point x="-75" y="-105"/>
      <point x="-61" y="-119"/>
      <point x="-29" y="-119" type="curve" smooth="yes"/>
      <point x="123" y="-119" type="line" smooth="yes"/>
      <point x="136" y="-119"/>
      <point x="147" y="-115"/>
    </contour>
  </outline>
</glyph>
<glyph name="N.salt_s_v.alt000" format="1">
  <advance width="1000"/>
  <outline>
    <contour>
      <point x="291" y="-110" type="curve" smooth="yes"/>
      <point x="291" y="-110" type="line"/>
      <point x="420" y="-1" type="line" smooth="yes"/>
      <point x="426" y="4"/>
      <point x="430" y="10"/>
      <point x="432" y="18" type="curve"/>
      <point x="432" y="-73" type="line" smooth="yes"/>
      <point x="432" y="-105"/>
      <point x="446" y="-119"/>
      <point x="478" y="-119" type="curve" smooth="yes"/>
      <point x="635" y="-119" type="line" smooth="yes"/>
      <point x="649" y="-119"/>
      <point x="660" y="-115"/>
      <point x="666" y="-109" type="curve"/>
      <point x="796" y="-1" type="line" smooth="yes"/>
      <point x="805" y="7"/>
      <point x="810" y="18"/>
      <point x="810" y="36" type="curve" smooth="yes"/>
      <point x="810" y="491" type="line" smooth="yes"/>
      <point x="810" y="617"/>
      <point x="760" y="705"/>
      <point x="500" y="705" type="curve" smooth="yes"/>
      <point x="370" y="705"/>
      <point x="294" y="683"/>
      <point x="249" y="645" type="curve" smooth="yes"/>
      <point x="120" y="537" type="line" smooth="yes"/>
      <point x="74" y="499"/>
      <point x="61" y="446"/>
      <point x="61" y="382" type="curve" smooth="yes"/>
      <point x="61" y="-73" type="line" smooth="yes"/>
      <point x="61" y="-105"/>
      <point x="75" y="-119"/>
      <point x="107" y="-119" type="curve" smooth="yes"/>
      <point x="259" y="-119" type="line" smooth="yes"/>
      <point x="272" y="-119"/>
      <point x="283" y="-115"/>
    </contour>
  </outline>
</glyph>
<glyph name="N.salt_s_v.alt001" format="1">
  <advance width="1000"/>
  <outline>
    <contour>
      <point x="200" y="491" type="curve" smooth="yes"/>
      <point x="200" y="36" type="line" smooth="yes"/>
      <point x="200" y="11"/>
      <point x="211" y="0"/>
      <point x="236" y="0" type="curve" smooth="yes"/>
      <point x="388" y="0" type="line" smooth="yes"/>
      <point x="414" y="0"/>
      <point x="424" y="11"/>
      <point x="424" y="36" type="curve" smooth="yes"/>
      <point x="424" y="452" type="line" smooth="yes"/>
      <point x="424" y="479"/>
      <point x="436" y="499"/>
      <point x="498" y="499" type="curve" smooth="yes"/>
      <point x="559" y="499"/>
      <point x="571" y="479"/>
      <point x="571" y="452" type="curve" smooth="yes"/>
      <point x="571" y="36" type="line" smooth="yes"/>
      <point x="571" y="11"/>
      <point x="582" y="0"/>
      <point x="607" y="0" type="curve" smooth="yes"/>
      <point x="764" y="0" type="line" smooth="yes"/>
      <point x="789" y="0"/>
      <point x="800" y="11"/>
      <point x="800" y="36" type="curve"/>
      <point x="800" y="491" type="line" smooth="yes"/>
      <point x="800" y="613"/>
      <point x="748" y="695"/>
      <point x="500" y="695" type="curve" smooth="yes"/>
      <point x="252" y="695"/>
      <point x="200" y="613"/>
    </contour>
  </outline>
</glyph>
<glyph name="N.salt_v.alt000" format="1">
  <advance width="1000"/>
  <outline>
    <contour>
      <point x="259" y="-119" type="line" smooth="yes"/>
      <point x="273" y="-119"/>
      <point x="283" y="-115"/>
      <point x="290" y="-109" type="curve" smooth="yes"/>
      <point x="420" y="-1" type="line" smooth="yes"/>
      <point x="426" y="4"/>
      <point x="430" y="11"/>
      <point x="432" y="19" type="curve"/>
      <point x="432" y="-72" type="line" smooth="yes"/>
      <point x="432" y="-104"/>
      <point x="446" y="-119"/>
      <point x="478" y="-119" type="curve" smooth="yes"/>
      <point x="635" y="-119" type="line" smooth="yes"/>
      <point x="649" y="-119"/>
      <point x="659" y="-115"/>
      <point x="666" y="-109" type="curve" smooth="yes"/>
      <point x="795" y="-1" type="line"/>
      <point x="805" y="7"/>
      <point x="810" y="19"/>
      <point x="810" y="37" type="curve" smooth="yes"/>
      <point x="810" y="532" type="line" smooth="yes"/>
      <point x="810" y="658"/>
      <point x="760" y="746"/>
      <point x="500" y="746" type="curve" smooth="yes"/>
      <point x="370" y="746"/>
      <point x="294" y="724"/>
      <point x="249" y="686" type="curve" smooth="yes"/>
      <point x="120" y="578" type="line" smooth="yes"/>
      <point x="74" y="540"/>
      <point x="61" y="487"/>
      <point x="61" y="423" type="curve" smooth="yes"/>
      <point x="61" y="-72" type="line" smooth="yes"/>
      <point x="61" y="-104"/>
      <point x="75" y="-119"/>
      <point x="107" y="-119" type="curve" smooth="yes"/>
    </contour>
  </outline>
</glyph>
<glyph name="N.v.alt000" format="1">
  <advance width="1000"/>
  <outline>
    <contour>
      <point x="418" y="-1" type="line" smooth="yes"/>
      <point x="427" y="7"/>
      <point x="432" y="18"/>
      <point x="432" y="36" type="curve" smooth="yes"/>
      <point x="432" y="57" type="line"/>
      <point x="440" y="47" type="line"/>
      <point x="440" y="-73" type="line" smooth="yes"/>
      <point x="440" y="-105"/>
      <point x="454" y="-119"/>
      <point x="486" y="-119" type="curve" smooth="yes"/>
      <point x="636" y="-119" type="line" smooth="yes"/>
      <point x="650" y="-119"/>
      <point x="661" y="-115"/>
      <point x="667" y="-109" type="curve"/>
      <point x="797" y="-1" type="line" smooth="yes"/>
      <point x="806" y="7"/>
      <point x="811" y="18"/>
      <point x="811" y="36" type="curve" smooth="yes"/>
      <point x="811" y="684" type="line" smooth="yes"/>
      <point x="811" y="716"/>
      <point x="797" y="730"/>
      <point x="765" y="730" type="curve" smooth="yes"/>
      <point x="615" y="730" type="line" smooth="yes"/>
      <point x="601" y="730"/>
      <point x="590" y="727"/>
      <point x="583" y="721" type="curve" smooth="yes"/>
      <point x="467" y="624" type="line"/>
      <point x="407" y="699" type="line" smooth="yes"/>
      <point x="387" y="722"/>
      <point x="369" y="730"/>
      <point x="340" y="730" type="curve" smooth="yes"/>
      <point x="236" y="730" type="line" smooth="yes"/>
      <point x="222" y="730"/>
      <point x="211" y="727"/>
      <point x="204" y="721" type="curve" smooth="yes"/>
      <point x="75" y="612" type="line" smooth="yes"/>
      <point x="66" y="604"/>
      <point x="61" y="593"/>
      <point x="61" y="575" type="curve" smooth="yes"/>
      <point x="61" y="-73" type="line" smooth="yes"/>
      <point x="61" y="-105"/>
      <point x="75" y="-119"/>
      <point x="107" y="-119" type="curve" smooth="yes"/>
      <point x="257" y="-119" type="line" smooth="yes"/>
      <point x="271" y="-119"/>
      <point x="282" y="-115"/>
      <point x="288" y="-109" type="curve"/>
    </contour>
  </outline>
</glyph>
<glyph name="Ncommaaccent.salt_v.alt000" format="1">
  <advance width="1000"/>
  <outline>
    <contour>
      <point x="261" y="1" type="line" smooth="yes"/>
      <point x="275" y="1"/>
      <point x="286" y="5"/>
      <point x="292" y="11" type="curve"/>
      <point x="420" y="119" type="line" smooth="yes"/>
      <point x="426" y="124"/>
      <point x="430" y="130"/>
      <point x="432" y="138" type="curve"/>
      <point x="432" y="47" type="line" smooth="yes"/>
      <point x="432" y="15"/>
      <point x="446" y="1"/>
      <point x="478" y="1" type="curve" smooth="yes"/>
      <point x="635" y="1" type="line" smooth="yes"/>
      <point x="649" y="1"/>
      <point x="660" y="5"/>
      <point x="666" y="11" type="curve"/>
      <point x="796" y="119" type="line" smooth="yes"/>
      <point x="805" y="127"/>
      <point x="810" y="138"/>
      <point x="810" y="156" type="curve" smooth="yes"/>
      <point x="810" y="521" type="line" smooth="yes"/>
      <point x="810" y="647"/>
      <point x="760" y="735"/>
      <point x="500" y="735" type="curve" smooth="yes"/>
      <point x="370" y="735"/>
      <point x="294" y="713"/>
      <point x="249" y="675" type="curve" smooth="yes"/>
      <point x="120" y="567" type="line" smooth="yes"/>
      <point x="74" y="529"/>
      <point x="61" y="476"/>
      <point x="61" y="412" type="curve" smooth="yes"/>
      <point x="61" y="47" type="line" smooth="yes"/>
      <point x="61" y="15"/>
      <point x="75" y="1"/>
      <point x="107" y="1" type="curve" smooth="yes"/>
    </contour>
    <component base="commaaccent.v.alt000" yOffset="140"/>
  </outline>
</glyph>
<glyph name="Ncommaaccent.salt_v.alt001" format="1">
  <advance width="1000"/>
  <outline>
    <contour>
      <point x="200" y="521" type="curve" smooth="yes"/>
      <point x="200" y="156" type="line" smooth="yes"/>
      <point x="200" y="131"/>
      <point x="211" y="120"/>
      <point x="236" y="120" type="curve" smooth="yes"/>
      <point x="388" y="120" type="line" smooth="yes"/>
      <point x="414" y="120"/>
      <point x="424" y="131"/>
      <point x="424" y="156" type="curve" smooth="yes"/>
      <point x="424" y="482" type="line" smooth="yes"/>
      <point x="424" y="509"/>
      <point x="436" y="529"/>
      <point x="498" y="529" type="curve" smooth="yes"/>
      <point x="559" y="529"/>
      <point x="571" y="509"/>
      <point x="571" y="482" type="curve" smooth="yes"/>
      <point x="571" y="156" type="line" smooth="yes"/>
      <point x="571" y="131"/>
      <point x="582" y="120"/>
      <point x="607" y="120" type="curve" smooth="yes"/>
      <point x="764" y="120" type="line" smooth="yes"/>
      <point x="789" y="120"/>
      <point x="800" y="131"/>
      <point x="800" y="156" type="curve"/>
      <point x="800" y="521" type="line" smooth="yes"/>
      <point x="800" y="643"/>
      <point x="748" y="725"/>
      <point x="500" y="725" type="curve" smooth="yes"/>
      <point x="252" y="725"/>
      <point x="200" y="643"/>
    </contour>
  </outline>
</glyph>
<glyph name="OE.alt000" format="1">
  <advance width="1015"/>
  <outline>
    <contour>
      <point x="801" y="-119" type="line" smooth="yes"/>
      <point x="815" y="-119"/>
      <point x="826" y="-115"/>
      <point x="832" y="-109" type="curve"/>
      <point x="962" y="-1" type="line" smooth="yes"/>
      <point x="971" y="7"/>
      <point x="976" y="18"/>
      <point x="976" y="36" type="curve" smooth="yes"/>
      <point x="976" y="153" type="line" smooth="yes"/>
      <point x="976" y="185"/>
      <point x="962" y="199"/>
      <point x="930" y="199" type="curve" smooth="yes"/>
      <point x="792" y="199" type="line"/>
      <point x="881" y="274" type="line" smooth="yes"/>
      <point x="890" y="282"/>
      <point x="895" y="293"/>
      <point x="895" y="311" type="curve" smooth="yes"/>
      <point x="895" y="418" type="line" smooth="yes"/>
      <point x="895" y="440"/>
      <point x="889" y="452"/>
      <point x="876" y="459" type="curve"/>
      <point x="962" y="530" type="line" smooth="yes"/>
      <point x="971" y="538"/>
      <point x="976" y="549"/>
      <point x="976" y="567" type="curve" smooth="yes"/>
      <point x="976" y="684" type="line" smooth="yes"/>
      <point x="976" y="716"/>
      <point x="962" y="730"/>
      <point x="930" y="730" type="curve" smooth="yes"/>
      <point x="304" y="730" type="line" smooth="yes"/>
      <point x="212" y="730"/>
      <point x="150" y="711"/>
      <point x="110" y="677" type="curve" smooth="yes"/>
      <point x="-19" y="569" type="line" smooth="yes"/>
      <point x="-65" y="531"/>
      <point x="-81" y="474"/>
      <point x="-81" y="407" type="curve" smooth="yes"/>
      <point x="-81" y="95" type="line" smooth="yes"/>
      <point x="-81" y="-31"/>
      <point x="-23" y="-119"/>
      <point x="175" y="-119" type="curve" smooth="yes"/>
    </contour>
  </outline>
</glyph>
<glyph name="OE.alt002" format="1">
  <advance width="1015"/>
  <outline>
    <contour>
      <point x="549" y="90" type="line"/>
      <point x="866" y="90" type="line"/>
      <point x="866" y="100" type="line"/>
      <point x="559" y="100" type="line"/>
      <point x="559" y="360" type="line"/>
      <point x="785" y="360" type="line"/>
      <point x="785" y="370" type="line"/>
      <point x="559" y="370" type="line"/>
      <point x="559" y="620" type="line"/>
      <point x="866" y="620" type="line"/>
      <point x="866" y="630" type="line"/>
      <point x="493" y="630" type="line"/>
      <point x="493" y="620" type="line"/>
      <point x="549" y="620" type="line"/>
    </contour>
    <contour>
      <point x="166" y="149"/>
      <point x="188" y="90"/>
      <point x="326" y="90" type="curve" smooth="yes"/>
      <point x="559" y="90" type="line"/>
      <point x="559" y="630" type="line"/>
      <point x="326" y="630" type="line" smooth="yes"/>
      <point x="190" y="630"/>
      <point x="166" y="568"/>
      <point x="166" y="491" type="curve" smooth="yes"/>
      <point x="166" y="226" type="line" smooth="yes"/>
    </contour>
    <contour>
      <point x="176" y="226" type="line" smooth="yes"/>
      <point x="176" y="491" type="line"/>
      <point x="176" y="564"/>
      <point x="200" y="620"/>
      <point x="326" y="620" type="curve" smooth="yes"/>
      <point x="549" y="620" type="line"/>
      <point x="549" y="100" type="line"/>
      <point x="326" y="100" type="line"/>
      <point x="201" y="100"/>
      <point x="177" y="151"/>
      <point x="176" y="221" type="curve"/>
    </contour>
  </outline>
</glyph>
<glyph name="O.s_v.alt000" format="1">
  <advance width="1000"/>
  <outline>
    <contour>
      <point x="624" y="-72" type="curve" smooth="yes"/>
      <point x="754" y="36" type="line" smooth="yes"/>
      <point x="799" y="74"/>
      <point x="814" y="127"/>
      <point x="814" y="189" type="curve" smooth="yes"/>
      <point x="814" y="490" type="line" smooth="yes"/>
      <point x="814" y="616"/>
      <point x="757" y="705"/>
      <point x="500" y="705" type="curve" smooth="yes"/>
      <point x="370" y="705"/>
      <point x="293" y="682"/>
      <point x="247" y="643" type="curve" smooth="yes"/>
      <point x="117" y="535" type="line" smooth="yes"/>
      <point x="72" y="497"/>
      <point x="57" y="444"/>
      <point x="57" y="381" type="curve" smooth="yes"/>
      <point x="57" y="80" type="line" smooth="yes"/>
      <point x="57" y="-46"/>
      <point x="114" y="-134"/>
      <point x="371" y="-134" type="curve" smooth="yes"/>
      <point x="501" y="-134"/>
      <point x="578" y="-111"/>
    </contour>
    <contour>
      <point x="433" y="225" type="curve" smooth="yes"/>
      <point x="433" y="374" type="line"/>
      <point x="448" y="368"/>
      <point x="452" y="358"/>
      <point x="452" y="345" type="curve" smooth="yes"/>
      <point x="452" y="195" type="line"/>
      <point x="437" y="202"/>
      <point x="433" y="212"/>
    </contour>
  </outline>
</glyph>
<glyph name="O.v.alt001" format="1">
  <advance width="1000"/>
  <outline>
    <contour>
      <point x="804" y="189" type="curve" smooth="yes"/>
      <point x="804" y="530" type="line" smooth="yes"/>
      <point x="804" y="652"/>
      <point x="745" y="735"/>
      <point x="500" y="735" type="curve" smooth="yes"/>
      <point x="255" y="735"/>
      <point x="196" y="652"/>
      <point x="196" y="530" type="curve" smooth="yes"/>
      <point x="196" y="189" type="line" smooth="yes"/>
      <point x="196" y="67"/>
      <point x="255" y="-15"/>
      <point x="500" y="-15" type="curve" smooth="yes"/>
      <point x="745" y="-15"/>
      <point x="804" y="67"/>
    </contour>
    <contour>
      <point x="423" y="225" type="curve" smooth="yes"/>
      <point x="423" y="494" type="line" smooth="yes"/>
      <point x="423" y="520"/>
      <point x="434" y="540"/>
      <point x="500" y="540" type="curve" smooth="yes"/>
      <point x="567" y="540"/>
      <point x="578" y="520"/>
      <point x="578" y="494" type="curve" smooth="yes"/>
      <point x="578" y="225" type="line" smooth="yes"/>
      <point x="578" y="198"/>
      <point x="567" y="178"/>
      <point x="500" y="178" type="curve" smooth="yes"/>
      <point x="434" y="178"/>
      <point x="423" y="198"/>
    </contour>
  </outline>
</glyph>
<glyph name="Omega.alt000" format="1">
  <advance width="777"/>
  <outline>
    <contour>
      <point x="315" y="225" type="curve" smooth="yes"/>
      <point x="315" y="413" type="line"/>
      <point x="330" y="407"/>
      <point x="334" y="397"/>
      <point x="334" y="385" type="curve" smooth="yes"/>
      <point x="334" y="195" type="line"/>
      <point x="319" y="202"/>
      <point x="315" y="211"/>
    </contour>
    <contour>
      <point x="277" y="-69" type="line"/>
      <point x="277" y="-73" type="line" smooth="yes"/>
      <point x="277" y="-105"/>
      <point x="291" y="-119"/>
      <point x="323" y="-119" type="curve" smooth="yes"/>
      <point x="577" y="-119" type="line" smooth="yes"/>
      <point x="591" y="-119"/>
      <point x="602" y="-115"/>
      <point x="608" y="-109" type="curve"/>
      <point x="738" y="-1" type="line" smooth="yes"/>
      <point x="747" y="7"/>
      <point x="752" y="18"/>
      <point x="752" y="36" type="curve" smooth="yes"/>
      <point x="752" y="153" type="line" smooth="yes"/>
      <point x="752" y="185"/>
      <point x="738" y="199"/>
      <point x="706" y="199" type="curve" smooth="yes"/>
      <point x="685" y="199" type="line"/>
      <point x="703" y="230"/>
      <point x="710" y="267"/>
      <point x="710" y="309" type="curve" smooth="yes"/>
      <point x="710" y="530" type="line" smooth="yes"/>
      <point x="710" y="656"/>
      <point x="651" y="745"/>
      <point x="389" y="745" type="curve" smooth="yes"/>
      <point x="255" y="745"/>
      <point x="176" y="722"/>
      <point x="129" y="682" type="curve" smooth="yes"/>
      <point x="-1" y="574" type="line" smooth="yes"/>
      <point x="-46" y="536"/>
      <point x="-61" y="483"/>
      <point x="-61" y="421" type="curve" smooth="yes"/>
      <point x="-61" y="200" type="line" smooth="yes"/>
      <point x="-61" y="169"/>
      <point x="-57" y="141"/>
      <point x="-48" y="116" type="curve"/>
      <point x="-89" y="81" type="line" smooth="yes"/>
      <point x="-98" y="73"/>
      <point x="-103" y="62"/>
      <point x="-103" y="44" type="curve" smooth="yes"/>
      <point x="-103" y="-73" type="line" smooth="yes"/>
      <point x="-103" y="-105"/>
      <point x="-89" y="-119"/>
      <point x="-57" y="-119" type="curve" smooth="yes"/>
      <point x="197" y="-119" type="line" smooth="yes"/>
      <point x="211" y="-119"/>
      <point x="222" y="-115"/>
      <point x="228" y="-109" type="curve"/>
    </contour>
  </outline>
</glyph>
<glyph name="Omega.alt002" format="1">
  <advance width="777"/>
  <outline>
    <contour>
      <point x="581" y="263" type="line" smooth="yes"/>
      <point x="581" y="192"/>
      <point x="573" y="159"/>
      <point x="505" y="138" type="curve" smooth="yes"/>
      <point x="501" y="137" type="line"/>
      <point x="501" y="90" type="line"/>
      <point x="652" y="90" type="line"/>
      <point x="652" y="100" type="line"/>
      <point x="511" y="100" type="line"/>
      <point x="511" y="129" type="line"/>
      <point x="581" y="151"/>
      <point x="591" y="186"/>
      <point x="591" y="263" type="curve" smooth="yes"/>
      <point x="591" y="507" type="line" smooth="yes"/>
      <point x="591" y="588"/>
      <point x="546" y="642"/>
      <point x="389" y="642" type="curve" smooth="yes"/>
      <point x="232" y="642"/>
      <point x="187" y="588"/>
      <point x="187" y="507" type="curve" smooth="yes"/>
      <point x="187" y="263" type="line" smooth="yes"/>
      <point x="187" y="187"/>
      <point x="197" y="152"/>
      <point x="267" y="129" type="curve"/>
      <point x="267" y="100" type="line"/>
      <point x="126" y="100" type="line"/>
      <point x="126" y="90" type="line"/>
      <point x="277" y="90" type="line"/>
      <point x="277" y="137" type="line"/>
      <point x="273" y="138" type="line" smooth="yes"/>
      <point x="205" y="159"/>
      <point x="197" y="192"/>
      <point x="197" y="263" type="curve" smooth="yes"/>
      <point x="197" y="507" type="line" smooth="yes"/>
      <point x="197" y="582"/>
      <point x="240" y="632"/>
      <point x="389" y="632" type="curve" smooth="yes"/>
      <point x="538" y="632"/>
      <point x="581" y="582"/>
      <point x="581" y="507" type="curve" smooth="yes"/>
    </contour>
  </outline>
</glyph>
<glyph name="Oslash.v.alt000" format="1">
  <advance width="1000"/>
  <outline>
    <contour>
      <point x="251" y="-189" type="line" smooth="yes"/>
      <point x="265" y="-189"/>
      <point x="276" y="-185"/>
      <point x="284" y="-177" type="curve"/>
      <point x="283" y="-178" type="line"/>
      <point x="337" y="-133" type="line"/>
      <point x="348" y="-133"/>
      <point x="359" y="-134"/>
      <point x="371" y="-134" type="curve" smooth="yes"/>
      <point x="497" y="-134"/>
      <point x="574" y="-111"/>
      <point x="620" y="-73" type="curve" smooth="yes"/>
      <point x="749" y="36" type="line" smooth="yes"/>
      <point x="795" y="74"/>
      <point x="810" y="127"/>
      <point x="810" y="189" type="curve" smooth="yes"/>
      <point x="810" y="530" type="line" smooth="yes"/>
      <point x="810" y="596"/>
      <point x="793" y="651"/>
      <point x="743" y="688" type="curve"/>
      <point x="769" y="750" type="line"/>
      <point x="785" y="779"/>
      <point x="770" y="800"/>
      <point x="734" y="800" type="curve" smooth="yes"/>
      <point x="619" y="800" type="line" smooth="yes"/>
      <point x="604" y="800"/>
      <point x="594" y="796"/>
      <point x="585" y="789" type="curve" smooth="yes"/>
      <point x="533" y="744" type="line"/>
      <point x="526" y="745"/>
      <point x="513" y="745"/>
      <point x="500" y="745" type="curve" smooth="yes"/>
      <point x="374" y="745"/>
      <point x="296" y="722"/>
      <point x="250" y="684" type="curve" smooth="yes"/>
      <point x="121" y="575" type="line" smooth="yes"/>
      <point x="75" y="537"/>
      <point x="60" y="484"/>
      <point x="60" y="421" type="curve" smooth="yes"/>
      <point x="60" y="80" type="line" smooth="yes"/>
      <point x="60" y="14"/>
      <point x="77" y="-40"/>
      <point x="127" y="-77" type="curve"/>
      <point x="101" y="-139" type="line"/>
      <point x="85" y="-168"/>
      <point x="100" y="-189"/>
      <point x="136" y="-189" type="curve" smooth="yes"/>
    </contour>
  </outline>
</glyph>
<glyph name="Oslash.v.alt001" format="1">
  <advance width="1000"/>
  <outline>
    <contour>
      <point x="800" y="189" type="curve"/>
      <point x="800" y="530" type="line" smooth="yes"/>
      <point x="800" y="652"/>
      <point x="740" y="735"/>
      <point x="500" y="735" type="curve" smooth="yes"/>
      <point x="260" y="735"/>
      <point x="199" y="652"/>
      <point x="199" y="530" type="curve" smooth="yes"/>
      <point x="199" y="189" type="line" smooth="yes"/>
      <point x="199" y="67"/>
      <point x="260" y="-15"/>
      <point x="500" y="-15" type="curve" smooth="yes"/>
      <point x="740" y="-15"/>
      <point x="800" y="67"/>
    </contour>
    <contour>
      <point x="406" y="225" type="curve"/>
      <point x="406" y="494" type="line" smooth="yes"/>
      <point x="406" y="526"/>
      <point x="420" y="550"/>
      <point x="500" y="550" type="curve" smooth="yes"/>
      <point x="581" y="550"/>
      <point x="594" y="526"/>
      <point x="594" y="494" type="curve" smooth="yes"/>
      <point x="594" y="225" type="line" smooth="yes"/>
      <point x="594" y="192"/>
      <point x="581" y="168"/>
      <point x="500" y="168" type="curve" smooth="yes"/>
      <point x="420" y="168"/>
      <point x="406" y="192"/>
    </contour>
    <contour>
      <point x="380" y="-70" type="line" smooth="yes"/>
      <point x="405" y="-70"/>
      <point x="414" y="-56"/>
      <point x="426" y="-34" type="curve"/>
      <point x="472" y="74" type="line"/>
      <point x="465" y="119" type="line"/>
      <point x="654" y="564" type="line"/>
      <point x="683" y="573" type="line"/>
      <point x="760" y="754" type="line"/>
      <point x="772" y="776"/>
      <point x="759" y="790"/>
      <point x="734" y="790" type="curve" smooth="yes"/>
      <point x="619" y="790" type="line" smooth="yes"/>
      <point x="594" y="790"/>
      <point x="585" y="776"/>
      <point x="573" y="754" type="curve"/>
      <point x="528" y="649" type="line"/>
      <point x="533" y="599" type="line"/>
      <point x="343" y="152" type="line"/>
      <point x="314" y="144" type="line"/>
      <point x="239" y="-34" type="line"/>
      <point x="227" y="-56"/>
      <point x="240" y="-70"/>
      <point x="265" y="-70" type="curve" smooth="yes"/>
    </contour>
  </outline>
</glyph>
<glyph name="P.v.alt000" format="1">
  <advance width="1000"/>
  <outline>
    <contour>
      <point x="262" y="-119" type="line" smooth="yes"/>
      <point x="276" y="-119"/>
      <point x="287" y="-115"/>
      <point x="293" y="-109" type="curve"/>
      <point x="423" y="-1" type="line" smooth="yes"/>
      <point x="432" y="7"/>
      <point x="437" y="18"/>
      <point x="437" y="36" type="curve" smooth="yes"/>
      <point x="437" y="83" type="line"/>
      <point x="439" y="83" type="line" smooth="yes"/>
      <point x="527" y="83"/>
      <point x="587" y="102"/>
      <point x="625" y="134" type="curve" smooth="yes"/>
      <point x="754" y="242" type="line" smooth="yes"/>
      <point x="798" y="279"/>
      <point x="814" y="333"/>
      <point x="814" y="397" type="curve" smooth="yes"/>
      <point x="814" y="525" type="line" smooth="yes"/>
      <point x="814" y="646"/>
      <point x="759" y="730"/>
      <point x="568" y="730" type="curve" smooth="yes"/>
      <point x="236" y="730" type="line" smooth="yes"/>
      <point x="222" y="730"/>
      <point x="211" y="727"/>
      <point x="204" y="721" type="curve" smooth="yes"/>
      <point x="75" y="612" type="line" smooth="yes"/>
      <point x="66" y="604"/>
      <point x="61" y="593"/>
      <point x="61" y="575" type="curve" smooth="yes"/>
      <point x="61" y="-73" type="line" smooth="yes"/>
      <point x="61" y="-105"/>
      <point x="75" y="-119"/>
      <point x="107" y="-119" type="curve" smooth="yes"/>
    </contour>
  </outline>
</glyph>
<glyph name="Pecyrillic.scrap_beta.alt001" format="1">
  <advance width="759"/>
  <outline>
    <contour>
      <point x="260" y="0" type="line" smooth="yes"/>
      <point x="285" y="0"/>
      <point x="296" y="11"/>
      <point x="296" y="36" type="curve" smooth="yes"/>
      <point x="296" y="511" type="line"/>
      <point x="463" y="511" type="line"/>
      <point x="463" y="36" type="line" smooth="yes"/>
      <point x="463" y="11"/>
      <point x="474" y="0"/>
      <point x="499" y="0" type="curve" smooth="yes"/>
      <point x="654" y="0" type="line" smooth="yes"/>
      <point x="679" y="0"/>
      <point x="690" y="11"/>
      <point x="690" y="36" type="curve" smooth="yes"/>
      <point x="690" y="684" type="line" smooth="yes"/>
      <point x="690" y="709"/>
      <point x="679" y="720"/>
      <point x="654" y="720" type="curve"/>
      <point x="105" y="720" type="line" smooth="yes"/>
      <point x="80" y="720"/>
      <point x="69" y="709"/>
      <point x="69" y="684" type="curve" smooth="yes"/>
      <point x="69" y="36" type="line" smooth="yes"/>
      <point x="69" y="11"/>
      <point x="80" y="0"/>
      <point x="105" y="0" type="curve" smooth="yes"/>
    </contour>
    <contour>
      <point x="379.0" y="747.0" type="move" name="top"/>
    </contour>
    <contour>
      <point x="379.0" y="0.0" type="move" name="bottom"/>
    </contour>
  </outline>
</glyph>
<glyph name="Pecyrillic.scrap_beta" format="1">
  <advance width="759"/>
  <outline>
    <contour>
      <point x="260" y="0" type="line" smooth="yes"/>
      <point x="285" y="0"/>
      <point x="296" y="11"/>
      <point x="296" y="36" type="curve" smooth="yes"/>
      <point x="296" y="511" type="line"/>
      <point x="463" y="511" type="line"/>
      <point x="463" y="36" type="line" smooth="yes"/>
      <point x="463" y="11"/>
      <point x="474" y="0"/>
      <point x="499" y="0" type="curve" smooth="yes"/>
      <point x="654" y="0" type="line" smooth="yes"/>
      <point x="679" y="0"/>
      <point x="690" y="11"/>
      <point x="690" y="36" type="curve" smooth="yes"/>
      <point x="690" y="684" type="line" smooth="yes"/>
      <point x="690" y="709"/>
      <point x="679" y="720"/>
      <point x="654" y="720" type="curve"/>
      <point x="105" y="720" type="line" smooth="yes"/>
      <point x="80" y="720"/>
      <point x="69" y="709"/>
      <point x="69" y="684" type="curve" smooth="yes"/>
      <point x="69" y="36" type="line" smooth="yes"/>
      <point x="69" y="11"/>
      <point x="80" y="0"/>
      <point x="105" y="0" type="curve" smooth="yes"/>
    </contour>
    <contour>
      <point x="379.0" y="747.0" type="move" name="top"/>
    </contour>
    <contour>
      <point x="379.0" y="0.0" type="move" name="bottom"/>
    </contour>
  </outline>
</glyph>
<glyph name="Q.alt000" format="1">
  <advance width="737"/>
  <outline>
    <contour>
      <point x="316" y="-209" type="line" smooth="yes"/>
      <point x="330" y="-209"/>
      <point x="341" y="-205"/>
      <point x="347" y="-199" type="curve"/>
      <point x="477" y="-91" type="line" smooth="yes"/>
      <point x="483" y="-86"/>
      <point x="487" y="-80"/>
      <point x="489" y="-70" type="curve"/>
      <point x="493" y="-68"/>
      <point x="496" y="-65"/>
      <point x="500" y="-62" type="curve"/>
      <point x="629" y="46" type="line" smooth="yes"/>
      <point x="674" y="84"/>
      <point x="689" y="136"/>
      <point x="689" y="198" type="curve" smooth="yes"/>
      <point x="689" y="530" type="line" smooth="yes"/>
      <point x="689" y="656"/>
      <point x="631" y="745"/>
      <point x="369" y="745" type="curve" smooth="yes"/>
      <point x="235" y="745"/>
      <point x="156" y="722"/>
      <point x="109" y="682" type="curve" smooth="yes"/>
      <point x="-21" y="574" type="line" smooth="yes"/>
      <point x="-66" y="536"/>
      <point x="-81" y="483"/>
      <point x="-81" y="421" type="curve" smooth="yes"/>
      <point x="-81" y="89" type="line" smooth="yes"/>
      <point x="-81" y="-15"/>
      <point x="-40" y="-91"/>
      <point x="116" y="-117" type="curve"/>
      <point x="116" y="-163" type="line" smooth="yes"/>
      <point x="116" y="-195"/>
      <point x="130" y="-209"/>
      <point x="162" y="-209" type="curve" smooth="yes"/>
    </contour>
    <contour>
      <point x="295" y="220" type="curve" smooth="yes"/>
      <point x="295" y="413" type="line"/>
      <point x="310" y="407"/>
      <point x="314" y="397"/>
      <point x="314" y="384" type="curve" smooth="yes"/>
      <point x="314" y="190" type="line"/>
      <point x="299" y="197"/>
      <point x="295" y="207"/>
    </contour>
  </outline>
</glyph>
<glyph name="R.alt000" format="1">
  <advance width="743"/>
  <outline>
    <contour>
      <point x="291" y="-1" type="line" smooth="yes"/>
      <point x="300" y="7"/>
      <point x="305" y="18"/>
      <point x="305" y="36" type="curve" smooth="yes"/>
      <point x="305" y="113" type="line"/>
      <point x="306" y="113" type="line" smooth="yes"/>
      <point x="327" y="113"/>
      <point x="334" y="102"/>
      <point x="334" y="80" type="curve" smooth="yes"/>
      <point x="334" y="-73" type="line" smooth="yes"/>
      <point x="334" y="-105"/>
      <point x="348" y="-119"/>
      <point x="380" y="-119" type="curve" smooth="yes"/>
      <point x="535" y="-119" type="line" smooth="yes"/>
      <point x="549" y="-119"/>
      <point x="560" y="-115"/>
      <point x="566" y="-109" type="curve"/>
      <point x="696" y="-1" type="line" smooth="yes"/>
      <point x="705" y="7"/>
      <point x="710" y="18"/>
      <point x="710" y="36" type="curve" smooth="yes"/>
      <point x="710" y="248" type="line" smooth="yes"/>
      <point x="710" y="327"/>
      <point x="669" y="380"/>
      <point x="606" y="398" type="curve"/>
      <point x="607" y="398" type="line" smooth="yes"/>
      <point x="634" y="421"/>
      <point x="645" y="458"/>
      <point x="645" y="507" type="curve" smooth="yes"/>
      <point x="645" y="553" type="line" smooth="yes"/>
      <point x="645" y="657"/>
      <point x="597" y="730"/>
      <point x="438" y="730" type="curve" smooth="yes"/>
      <point x="105" y="730" type="line" smooth="yes"/>
      <point x="91" y="730"/>
      <point x="80" y="727"/>
      <point x="73" y="721" type="curve" smooth="yes"/>
      <point x="-56" y="612" type="line" smooth="yes"/>
      <point x="-65" y="604"/>
      <point x="-70" y="593"/>
      <point x="-70" y="575" type="curve" smooth="yes"/>
      <point x="-70" y="-73" type="line" smooth="yes"/>
      <point x="-70" y="-105"/>
      <point x="-56" y="-119"/>
      <point x="-24" y="-119" type="curve" smooth="yes"/>
      <point x="130" y="-119" type="line" smooth="yes"/>
      <point x="144" y="-119"/>
      <point x="155" y="-115"/>
      <point x="161" y="-109" type="curve"/>
    </contour>
  </outline>
</glyph>
<glyph name="R.alt002" format="1">
  <advance width="743"/>
  <outline>
    <contour>
      <point x="581" y="90" type="line"/>
      <point x="581" y="224" type="line" smooth="yes"/>
      <point x="581" y="290"/>
      <point x="546" y="322"/>
      <point x="470" y="322" type="curve" smooth="yes"/>
      <point x="182" y="322" type="line"/>
      <point x="182" y="331" type="line"/>
      <point x="405" y="331" type="line" smooth="yes"/>
      <point x="488" y="331"/>
      <point x="509" y="372"/>
      <point x="509" y="446" type="curve" smooth="yes"/>
      <point x="509" y="516" type="line" smooth="yes"/>
      <point x="509" y="578"/>
      <point x="476" y="620"/>
      <point x="405" y="620" type="curve" smooth="yes"/>
      <point x="182" y="620" type="line"/>
      <point x="187" y="625" type="line"/>
      <point x="187" y="90" type="line"/>
      <point x="177" y="90" type="line"/>
      <point x="177" y="630" type="line"/>
      <point x="405" y="630" type="line" smooth="yes"/>
      <point x="483" y="630"/>
      <point x="519" y="582"/>
      <point x="519" y="516" type="curve" smooth="yes"/>
      <point x="519" y="447" type="line" smooth="yes"/>
      <point x="519" y="368"/>
      <point x="499" y="324"/>
      <point x="405" y="324" type="curve" smooth="yes"/>
      <point x="182" y="324" type="line"/>
      <point x="182" y="331" type="line"/>
      <point x="470" y="331" type="line" smooth="yes"/>
      <point x="552" y="331"/>
      <point x="591" y="294"/>
      <point x="591" y="224" type="curve" smooth="yes"/>
      <point x="591" y="90" type="line"/>
    </contour>
  </outline>
</glyph>
<glyph name="R.v.alt000" format="1">
  <advance width="1000"/>
  <outline>
    <contour>
      <point x="422" y="-1" type="line" smooth="yes"/>
      <point x="431" y="7"/>
      <point x="436" y="18"/>
      <point x="436" y="36" type="curve" smooth="yes"/>
      <point x="436" y="108" type="line"/>
      <point x="445" y="103"/>
      <point x="450" y="93.0"/>
      <point x="450" y="80" type="curve" smooth="yes"/>
      <point x="450" y="-73" type="line" smooth="yes"/>
      <point x="450" y="-105"/>
      <point x="464" y="-119"/>
      <point x="496" y="-119" type="curve" smooth="yes"/>
      <point x="645" y="-119" type="line" smooth="yes"/>
      <point x="659" y="-119"/>
      <point x="670" y="-115"/>
      <point x="676" y="-109" type="curve"/>
      <point x="806" y="-1" type="line" smooth="yes"/>
      <point x="815" y="7"/>
      <point x="820" y="18"/>
      <point x="820" y="36" type="curve" smooth="yes"/>
      <point x="820" y="248" type="line" smooth="yes"/>
      <point x="820" y="327"/>
      <point x="779" y="379"/>
      <point x="726" y="397" type="curve"/>
      <point x="727" y="398" type="line" smooth="yes"/>
      <point x="754" y="421"/>
      <point x="765" y="458"/>
      <point x="765" y="507" type="curve" smooth="yes"/>
      <point x="765" y="553" type="line" smooth="yes"/>
      <point x="765" y="657"/>
      <point x="717" y="730"/>
      <point x="558" y="730" type="curve" smooth="yes"/>
      <point x="236" y="730" type="line" smooth="yes"/>
      <point x="222" y="730"/>
      <point x="211" y="727"/>
      <point x="204" y="721" type="curve" smooth="yes"/>
      <point x="75" y="612" type="line" smooth="yes"/>
      <point x="66" y="604"/>
      <point x="61" y="593"/>
      <point x="61" y="575" type="curve" smooth="yes"/>
      <point x="61" y="-73" type="line" smooth="yes"/>
      <point x="61" y="-105"/>
      <point x="75" y="-119"/>
      <point x="107" y="-119" type="curve" smooth="yes"/>
      <point x="261" y="-119" type="line" smooth="yes"/>
      <point x="275" y="-119"/>
      <point x="286" y="-115"/>
      <point x="292" y="-109" type="curve"/>
    </contour>
  </outline>
</glyph>
<glyph name="S.s_v.alt002" format="1">
  <advance width="1000"/>
  <outline>
    <contour>
      <point x="685" y="580" type="line"/>
      <point x="411" y="580" type="line" smooth="yes"/>
      <point x="354" y="580"/>
      <point x="319" y="549"/>
      <point x="319" y="499" type="curve" smooth="yes"/>
      <point x="319" y="427" type="line" smooth="yes"/>
      <point x="319" y="387"/>
      <point x="346" y="360"/>
      <point x="390" y="356" type="curve" smooth="yes"/>
      <point x="603" y="335" type="line" smooth="yes"/>
      <point x="663" y="329"/>
      <point x="692" y="298"/>
      <point x="692" y="244" type="curve" smooth="yes"/>
      <point x="692" y="181" type="line" smooth="yes"/>
      <point x="692" y="125"/>
      <point x="649" y="90"/>
      <point x="581" y="90" type="curve" smooth="yes"/>
      <point x="290" y="90" type="line"/>
      <point x="290" y="100" type="line"/>
      <point x="581" y="100" type="line" smooth="yes"/>
      <point x="643" y="100"/>
      <point x="682" y="131"/>
      <point x="682" y="181" type="curve" smooth="yes"/>
      <point x="682" y="244" type="line" smooth="yes"/>
      <point x="682" y="292"/>
      <point x="656" y="320"/>
      <point x="601" y="325" type="curve" smooth="yes"/>
      <point x="388" y="346" type="line" smooth="yes"/>
      <point x="339" y="351"/>
      <point x="309" y="382"/>
      <point x="309" y="427" type="curve" smooth="yes"/>
      <point x="309" y="499" type="line" smooth="yes"/>
      <point x="309" y="555"/>
      <point x="348" y="590"/>
      <point x="411" y="590" type="curve" smooth="yes"/>
      <point x="685" y="590" type="line"/>
    </contour>
  </outline>
</glyph>
<glyph name="S.v.alt000" format="1">
  <advance width="1000"/>
  <outline>
    <contour>
      <point x="107" y="-119" type="curve" smooth="yes"/>
      <point x="465" y="-119" type="line" smooth="yes"/>
      <point x="532" y="-119"/>
      <point x="586" y="-102"/>
      <point x="623" y="-71" type="curve" smooth="yes"/>
      <point x="752" y="37" type="line" smooth="yes"/>
      <point x="791" y="69"/>
      <point x="811" y="116"/>
      <point x="811" y="176" type="curve" smooth="yes"/>
      <point x="811" y="281" type="line" smooth="yes"/>
      <point x="811" y="386"/>
      <point x="760" y="432"/>
      <point x="678" y="451" type="curve"/>
      <point x="771" y="528" type="line" smooth="yes"/>
      <point x="780" y="536"/>
      <point x="785" y="547"/>
      <point x="785" y="565" type="curve" smooth="yes"/>
      <point x="785" y="684" type="line" smooth="yes"/>
      <point x="785" y="716"/>
      <point x="771" y="730"/>
      <point x="739" y="730" type="curve" smooth="yes"/>
      <point x="407" y="730" type="line" smooth="yes"/>
      <point x="339" y="730"/>
      <point x="285" y="713"/>
      <point x="249" y="683" type="curve" smooth="yes"/>
      <point x="119" y="574" type="line" smooth="yes"/>
      <point x="81" y="542"/>
      <point x="61" y="495"/>
      <point x="61" y="435" type="curve" smooth="yes"/>
      <point x="61" y="330" type="line" smooth="yes"/>
      <point x="61" y="233"/>
      <point x="104" y="187"/>
      <point x="175" y="165" type="curve"/>
      <point x="75" y="81" type="line" smooth="yes"/>
      <point x="66" y="73"/>
      <point x="61" y="62"/>
      <point x="61" y="44" type="curve" smooth="yes"/>
      <point x="61" y="-73" type="line" smooth="yes"/>
      <point x="61" y="-105"/>
      <point x="75" y="-119"/>
    </contour>
  </outline>
</glyph>
<glyph name="S.v.alt002" format="1">
  <advance width="1000"/>
  <outline>
    <contour>
      <point x="685" y="620" type="line"/>
      <point x="411" y="620" type="line" smooth="yes"/>
      <point x="354" y="620"/>
      <point x="319" y="589"/>
      <point x="319" y="539" type="curve" smooth="yes"/>
      <point x="319" y="447" type="line" smooth="yes"/>
      <point x="319" y="407"/>
      <point x="346" y="380"/>
      <point x="390" y="376" type="curve" smooth="yes"/>
      <point x="603" y="355" type="line" smooth="yes"/>
      <point x="663" y="349"/>
      <point x="692" y="318"/>
      <point x="692" y="264" type="curve" smooth="yes"/>
      <point x="692" y="181" type="line" smooth="yes"/>
      <point x="692" y="125"/>
      <point x="649" y="90"/>
      <point x="581" y="90" type="curve" smooth="yes"/>
      <point x="290" y="90" type="line"/>
      <point x="290" y="100" type="line"/>
      <point x="581" y="100" type="line" smooth="yes"/>
      <point x="643" y="100"/>
      <point x="682" y="131"/>
      <point x="682" y="181" type="curve" smooth="yes"/>
      <point x="682" y="264" type="line" smooth="yes"/>
      <point x="682" y="312"/>
      <point x="656" y="340"/>
      <point x="601" y="345" type="curve" smooth="yes"/>
      <point x="388" y="366" type="line" smooth="yes"/>
      <point x="339" y="371"/>
      <point x="309" y="402"/>
      <point x="309" y="447" type="curve" smooth="yes"/>
      <point x="309" y="539" type="line" smooth="yes"/>
      <point x="309" y="595"/>
      <point x="348" y="630"/>
      <point x="411" y="630" type="curve" smooth="yes"/>
      <point x="685" y="630" type="line"/>
    </contour>
  </outline>
</glyph>
<glyph name="Shchacyrillic.scrap_beta.alt001" format="1">
  <advance width="1066"/>
  <outline>
    <contour>
      <point x="997" y="36" type="curve" smooth="yes"/>
      <point x="997" y="684" type="line" smooth="yes"/>
      <point x="997" y="709"/>
      <point x="986" y="720"/>
      <point x="961" y="720" type="curve" smooth="yes"/>
      <point x="809" y="720" type="line" smooth="yes"/>
      <point x="783" y="720"/>
      <point x="773" y="709"/>
      <point x="773" y="684" type="curve"/>
      <point x="773" y="189" type="line"/>
      <point x="648" y="189" type="line"/>
      <point x="648" y="684" type="line" smooth="yes"/>
      <point x="648" y="709"/>
      <point x="637" y="720"/>
      <point x="611" y="720" type="curve" smooth="yes"/>
      <point x="459" y="720" type="line" smooth="yes"/>
      <point x="433" y="720"/>
      <point x="423" y="709"/>
      <point x="423" y="684" type="curve"/>
      <point x="423" y="189" type="line"/>
      <point x="298" y="189" type="line"/>
      <point x="298" y="684" type="line" smooth="yes"/>
      <point x="298" y="709"/>
      <point x="287" y="720"/>
      <point x="262" y="720" type="curve" smooth="yes"/>
      <point x="105" y="720" type="line" smooth="yes"/>
      <point x="80" y="720"/>
      <point x="69" y="709"/>
      <point x="69" y="684" type="curve"/>
      <point x="69" y="36" type="line"/>
      <point x="69" y="11"/>
      <point x="80" y="0"/>
      <point x="105" y="0" type="curve" smooth="yes"/>
      <point x="961" y="0" type="line" smooth="yes"/>
      <point x="986" y="0"/>
      <point x="997" y="11"/>
    </contour>
    <contour>
      <point x="1051" y="-54" type="curve" smooth="yes"/>
      <point x="1051" y="153" type="line" smooth="yes"/>
      <point x="1051" y="178"/>
      <point x="1040" y="189"/>
      <point x="1015" y="189" type="curve" smooth="yes"/>
      <point x="863" y="189" type="line" smooth="yes"/>
      <point x="838" y="189"/>
      <point x="827" y="178"/>
      <point x="827" y="153" type="curve" smooth="yes"/>
      <point x="827" y="-54" type="line" smooth="yes"/>
      <point x="827" y="-79"/>
      <point x="838" y="-90"/>
      <point x="863" y="-90" type="curve" smooth="yes"/>
      <point x="1015" y="-90" type="line" smooth="yes"/>
      <point x="1040" y="-90"/>
      <point x="1051" y="-79"/>
    </contour>
    <contour>
      <point x="550.0" y="-12.0" type="move" name="top"/>
    </contour>
    <contour>
      <point x="550.0" y="735.0" type="move" name="bottom"/>
    </contour>
  </outline>
</glyph>
<glyph name="Shchacyrillic.scrap_beta" format="1">
  <advance width="1066"/>
  <outline>
    <contour>
      <point x="997" y="36" type="curve" smooth="yes"/>
      <point x="997" y="684" type="line" smooth="yes"/>
      <point x="997" y="709"/>
      <point x="986" y="720"/>
      <point x="961" y="720" type="curve" smooth="yes"/>
      <point x="809" y="720" type="line" smooth="yes"/>
      <point x="783" y="720"/>
      <point x="773" y="709"/>
      <point x="773" y="684" type="curve"/>
      <point x="773" y="189" type="line"/>
      <point x="648" y="189" type="line"/>
      <point x="648" y="684" type="line" smooth="yes"/>
      <point x="648" y="709"/>
      <point x="637" y="720"/>
      <point x="611" y="720" type="curve" smooth="yes"/>
      <point x="459" y="720" type="line" smooth="yes"/>
      <point x="433" y="720"/>
      <point x="423" y="709"/>
      <point x="423" y="684" type="curve"/>
      <point x="423" y="189" type="line"/>
      <point x="298" y="189" type="line"/>
      <point x="298" y="684" type="line" smooth="yes"/>
      <point x="298" y="709"/>
      <point x="287" y="720"/>
      <point x="262" y="720" type="curve" smooth="yes"/>
      <point x="105" y="720" type="line" smooth="yes"/>
      <point x="80" y="720"/>
      <point x="69" y="709"/>
      <point x="69" y="684" type="curve"/>
      <point x="69" y="36" type="line"/>
      <point x="69" y="11"/>
      <point x="80" y="0"/>
      <point x="105" y="0" type="curve" smooth="yes"/>
      <point x="961" y="0" type="line" smooth="yes"/>
      <point x="986" y="0"/>
      <point x="997" y="11"/>
    </contour>
    <contour>
      <point x="1051" y="-54" type="curve" smooth="yes"/>
      <point x="1051" y="153" type="line" smooth="yes"/>
      <point x="1051" y="178"/>
      <point x="1040" y="189"/>
      <point x="1015" y="189" type="curve" smooth="yes"/>
      <point x="863" y="189" type="line" smooth="yes"/>
      <point x="838" y="189"/>
      <point x="827" y="178"/>
      <point x="827" y="153" type="curve" smooth="yes"/>
      <point x="827" y="-54" type="line" smooth="yes"/>
      <point x="827" y="-79"/>
      <point x="838" y="-90"/>
      <point x="863" y="-90" type="curve" smooth="yes"/>
      <point x="1015" y="-90" type="line" smooth="yes"/>
      <point x="1040" y="-90"/>
      <point x="1051" y="-79"/>
    </contour>
    <contour>
      <point x="550.0" y="-12.0" type="move" name="top"/>
    </contour>
    <contour>
      <point x="550.0" y="735.0" type="move" name="bottom"/>
    </contour>
  </outline>
</glyph>
<glyph name="Softsigncyrillic.scrap_beta.alt001" format="1">
  <advance width="682"/>
  <outline>
    <contour>
      <point x="260" y="720" type="curve" smooth="yes"/>
      <point x="105" y="720" type="line" smooth="yes"/>
      <point x="80" y="720"/>
      <point x="69" y="709"/>
      <point x="69" y="684" type="curve"/>
      <point x="69" y="36" type="line"/>
      <point x="69" y="11"/>
      <point x="80" y="0"/>
      <point x="105" y="0" type="curve" smooth="yes"/>
      <point x="411" y="0" type="line" smooth="yes"/>
      <point x="593" y="0"/>
      <point x="647" y="79"/>
      <point x="647" y="195" type="curve" smooth="yes"/>
      <point x="647" y="323" type="line" smooth="yes"/>
      <point x="647" y="439"/>
      <point x="593" y="518"/>
      <point x="411" y="518" type="curve" smooth="yes"/>
      <point x="296" y="518" type="line"/>
      <point x="296" y="684" type="line" smooth="yes"/>
      <point x="296" y="709"/>
      <point x="285" y="720"/>
    </contour>
    <contour>
      <point x="294" y="187" type="line"/>
      <point x="294" y="338" type="line"/>
      <point x="384" y="338" type="line" smooth="yes"/>
      <point x="423" y="338"/>
      <point x="431" y="315"/>
      <point x="431" y="289" type="curve" smooth="yes"/>
      <point x="431" y="236" type="line" smooth="yes"/>
      <point x="431" y="210"/>
      <point x="423" y="187"/>
      <point x="384" y="187" type="curve" smooth="yes"/>
    </contour>
    <contour>
      <point x="341.0" y="-27.0" type="move" name="top"/>
    </contour>
    <contour>
      <point x="341.0" y="720.0" type="move" name="bottom"/>
    </contour>
  </outline>
</glyph>
<glyph name="T.alt000" format="1">
  <advance width="656"/>
  <outline>
    <contour>
      <point x="280" y="-119" type="line" smooth="yes"/>
      <point x="294" y="-119"/>
      <point x="305" y="-115"/>
      <point x="311" y="-109" type="curve"/>
      <point x="441" y="-1" type="line" smooth="yes"/>
      <point x="450" y="7"/>
      <point x="455" y="18"/>
      <point x="455" y="36" type="curve" smooth="yes"/>
      <point x="455" y="408" type="line"/>
      <point x="463" y="408" type="line" smooth="yes"/>
      <point x="477" y="408"/>
      <point x="488" y="412"/>
      <point x="494" y="418" type="curve"/>
      <point x="624" y="526" type="line" smooth="yes"/>
      <point x="633" y="534"/>
      <point x="638" y="545"/>
      <point x="638" y="563" type="curve" smooth="yes"/>
      <point x="638" y="684" type="line" smooth="yes"/>
      <point x="638" y="716"/>
      <point x="624" y="730"/>
      <point x="592" y="730" type="curve" smooth="yes"/>
      <point x="64" y="730" type="line" smooth="yes"/>
      <point x="50" y="730"/>
      <point x="39" y="727"/>
      <point x="32" y="721" type="curve" smooth="yes"/>
      <point x="-97" y="612" type="line" smooth="yes"/>
      <point x="-106" y="604"/>
      <point x="-111" y="593"/>
      <point x="-111" y="575" type="curve" smooth="yes"/>
      <point x="-111" y="454" type="line" smooth="yes"/>
      <point x="-111" y="422"/>
      <point x="-97" y="408"/>
      <point x="-65" y="408" type="curve" smooth="yes"/>
      <point x="72" y="408" type="line"/>
      <point x="72" y="-73" type="line" smooth="yes"/>
      <point x="72" y="-105"/>
      <point x="86" y="-119"/>
      <point x="118" y="-119" type="curve" smooth="yes"/>
    </contour>
  </outline>
</glyph>
<glyph name="T.v.alt001" format="1">
  <advance width="1000"/>
  <outline>
    <contour>
      <point x="584" y="0" type="line" smooth="yes"/>
      <point x="609" y="0"/>
      <point x="620" y="11"/>
      <point x="620" y="36" type="curve" smooth="yes"/>
      <point x="620" y="527" type="line"/>
      <point x="764" y="527" type="line" smooth="yes"/>
      <point x="789" y="527"/>
      <point x="800" y="538"/>
      <point x="800" y="563" type="curve" smooth="yes"/>
      <point x="800" y="684" type="line" smooth="yes"/>
      <point x="800" y="709"/>
      <point x="789" y="720"/>
      <point x="764" y="720" type="curve" smooth="yes"/>
      <point x="236" y="720" type="line" smooth="yes"/>
      <point x="211" y="720"/>
      <point x="200" y="709"/>
      <point x="200" y="684" type="curve" smooth="yes"/>
      <point x="200" y="563" type="line" smooth="yes"/>
      <point x="200" y="538"/>
      <point x="211" y="527"/>
      <point x="236" y="527" type="curve" smooth="yes"/>
      <point x="380" y="527" type="line"/>
      <point x="380" y="36" type="line" smooth="yes"/>
      <point x="380" y="11"/>
      <point x="391" y="0"/>
      <point x="416" y="0" type="curve" smooth="yes"/>
    </contour>
  </outline>
</glyph>
<glyph name="Tbar.alt000" format="1">
  <advance width="656"/>
  <outline>
    <contour>
      <point x="392" y="102" type="line" smooth="yes"/>
      <point x="405" y="102"/>
      <point x="433" y="111"/>
      <point x="424" y="111" type="curve" smooth="yes"/>
      <point x="424" y="111" type="line"/>
      <point x="553" y="220" type="line" smooth="yes"/>
      <point x="562" y="228"/>
      <point x="567" y="239"/>
      <point x="567" y="257" type="curve" smooth="yes"/>
      <point x="567" y="365" type="line" smooth="yes"/>
      <point x="567" y="398"/>
      <point x="553" y="411"/>
      <point x="521" y="411" type="curve" smooth="yes"/>
      <point x="133" y="411" type="line" smooth="yes"/>
      <point x="119" y="411"/>
      <point x="108" y="408"/>
      <point x="101" y="402" type="curve" smooth="yes"/>
      <point x="-28" y="293" type="line" smooth="yes"/>
      <point x="-37" y="285"/>
      <point x="-42" y="274"/>
      <point x="-42" y="256" type="curve" smooth="yes"/>
      <point x="-42" y="148" type="line" smooth="yes"/>
      <point x="-42" y="115"/>
      <point x="-28" y="102"/>
      <point x="4" y="102" type="curve" smooth="yes"/>
    </contour>
    <component base="T.alt000"/>
  </outline>
</glyph>
<glyph name="Tbar.alt002" format="1">
  <advance width="656"/>
  <outline>
    <contour>
      <point x="188" y="316" type="line"/>
      <point x="188" y="306" type="line"/>
      <point x="467" y="306" type="line"/>
      <point x="467" y="316" type="line"/>
    </contour>
    <contour>
      <point x="323" y="90" type="line"/>
      <point x="333" y="90" type="line"/>
      <point x="333" y="620" type="line"/>
      <point x="538" y="620" type="line"/>
      <point x="538" y="630" type="line"/>
      <point x="118" y="630" type="line"/>
      <point x="118" y="620" type="line"/>
      <point x="323" y="620" type="line"/>
    </contour>
    <component base="T.alt002"/>
  </outline>
</glyph>
